<svg width="30" height="30" viewBox="0 0 30 30" fill="none" xmlns="http://www.w3.org/2000/svg">
<g clip-path="url(#clip0_2698_5733)">
<path d="M30 14.985C30 6.7125 23.28 0 15 0C6.72 0 0 6.7125 0 14.985C0 19.5413 2.07 23.6475 5.31 26.4037C5.34 26.4337 5.37 26.4338 5.37 26.4638C5.64 26.6738 5.91 26.8837 6.21 27.0937C6.36 27.1837 6.48 27.3019 6.63 27.4219C9.10988 29.1005 12.0354 29.9984 15.03 30C18.0246 29.9984 20.9501 29.1005 23.43 27.4219C23.58 27.3319 23.7 27.2138 23.85 27.1219C24.12 26.9138 24.42 26.7038 24.69 26.4938C24.72 26.4638 24.75 26.4637 24.75 26.4337C27.93 23.6456 30 19.5413 30 14.985ZM15 28.1119C12.18 28.1119 9.6 27.2119 7.47 25.7137C7.5 25.4737 7.56 25.2356 7.62 24.9956C7.79935 24.3454 8.0615 23.7209 8.4 23.1375C8.73 22.5675 9.12 22.0575 9.6 21.6075C10.05 21.1575 10.59 20.7394 11.13 20.4094C11.7 20.0794 12.3 19.8394 12.96 19.6594C13.6253 19.4812 14.3112 19.391 15 19.3913C17.0452 19.3758 19.0154 20.1603 20.49 21.5775C21.18 22.2675 21.72 23.0769 22.11 24.0056C22.32 24.5456 22.47 25.115 22.56 25.7137C20.346 27.2703 17.7064 28.1076 15 28.1119ZM10.41 14.2369C10.1462 13.6315 10.0133 12.9772 10.02 12.3169C10.02 11.6587 10.14 10.9987 10.41 10.3988C10.68 9.79875 11.04 9.26062 11.49 8.81062C11.94 8.36062 12.48 8.0025 13.08 7.7325C13.68 7.4625 14.34 7.3425 15 7.3425C15.69 7.3425 16.32 7.4625 16.92 7.7325C17.52 8.0025 18.06 8.3625 18.51 8.81062C18.96 9.26062 19.32 9.80062 19.59 10.3988C19.86 10.9987 19.98 11.6587 19.98 12.3169C19.98 13.0069 19.86 13.6369 19.59 14.235C19.3309 14.8269 18.9648 15.366 18.51 15.825C18.0508 16.2791 17.5118 16.6446 16.92 16.9031C15.6801 17.4116 14.2899 17.4116 13.05 16.9031C12.4582 16.6446 11.9192 16.2791 11.46 15.825C11.0048 15.3725 10.6475 14.8332 10.41 14.2369ZM24.33 24.1856C24.33 24.1256 24.3 24.0956 24.3 24.0356C24.0055 23.0968 23.5706 22.208 23.01 21.3994C22.449 20.5848 21.7601 19.8662 20.97 19.2712C20.3664 18.817 19.712 18.4344 19.02 18.1313C19.3333 17.9216 19.6248 17.681 19.89 17.4131C20.3373 16.9716 20.7301 16.4781 21.06 15.9431C21.7267 14.8525 22.07 13.595 22.05 12.3169C22.0598 11.3709 21.876 10.4329 21.51 9.56062C21.1491 8.71997 20.6296 7.9567 19.98 7.3125C19.3298 6.67697 18.5667 6.16827 17.73 5.8125C16.8564 5.4466 15.9171 5.26346 14.97 5.27437C14.0228 5.26406 13.0835 5.44783 12.21 5.81438C11.3641 6.1658 10.5985 6.68573 9.96 7.3425C9.32115 7.98932 8.812 8.75242 8.46 9.59062C8.09396 10.4629 7.91019 11.4009 7.92 12.3469C7.92 13.0069 8.01 13.6362 8.19 14.235C8.37 14.865 8.61 15.435 8.94 15.9731C9.24 16.5131 9.66 16.9931 10.11 17.4431C10.38 17.7131 10.68 17.9525 11.01 18.1612C10.3149 18.4707 9.66012 18.8636 9.06 19.3313C8.28 19.9313 7.59 20.6494 7.02 21.4294C6.45426 22.2349 6.01893 23.1246 5.73 24.0656C5.7 24.1256 5.7 24.1856 5.7 24.2156C3.33 21.8175 1.86 18.5813 1.86 14.985C1.86 7.7625 7.77 1.85812 15 1.85812C22.23 1.85812 28.14 7.7625 28.14 14.985C28.1361 18.4349 26.7662 21.7429 24.33 24.1856Z" fill="#D55D57"/>
</g>
<defs>
<clipPath id="clip0_2698_5733">
<rect width="30" height="30" fill="white"/>
</clipPath>
</defs>
</svg>
