<svg width="40" height="52" viewBox="0 0 40 52" fill="none" xmlns="http://www.w3.org/2000/svg">
<g clip-path="url(#clip0_2088_4144)">
<path d="M22.4688 50.7C27.8125 44.1797 40 28.3766 40 19.5C40 8.73438 31.0417 0 20 0C8.95833 0 0 8.73438 0 19.5C0 28.3766 12.1875 44.1797 17.5312 50.7C18.8125 52.2539 21.1875 52.2539 22.4688 50.7ZM20 13C21.7681 13 23.4638 13.6848 24.714 14.9038C25.9643 16.1228 26.6667 17.7761 26.6667 19.5C26.6667 21.2239 25.9643 22.8772 24.714 24.0962C23.4638 25.3152 21.7681 26 20 26C18.2319 26 16.5362 25.3152 15.286 24.0962C14.0357 22.8772 13.3333 21.2239 13.3333 19.5C13.3333 17.7761 14.0357 16.1228 15.286 14.9038C16.5362 13.6848 18.2319 13 20 13Z" fill="#EC9E90"/>
</g>
<defs>
<clipPath id="clip0_2088_4144">
<rect width="40" height="52" fill="white"/>
</clipPath>
</defs>
</svg>
