<svg width="31" height="30" viewBox="0 0 31 30" fill="none" xmlns="http://www.w3.org/2000/svg">
<path d="M6.5 10V23.75H24V10H20.25V20L15.25 17.5L10.25 20V10H6.5ZM6.5 26.25C5.8125 26.25 5.22417 26.0054 4.735 25.5163C4.24583 25.0271 4.00083 24.4383 4 23.75V8.15626C4 7.86459 4.04708 7.58334 4.14125 7.31251C4.23542 7.04167 4.37583 6.79167 4.5625 6.56251L6.125 4.65626C6.35417 4.36459 6.64042 4.14042 6.98375 3.98376C7.32708 3.82709 7.68667 3.74917 8.0625 3.75001H22.4375C22.8125 3.75001 23.1721 3.82834 23.5163 3.98501C23.8604 4.14167 24.1467 4.36542 24.375 4.65626L25.9375 6.56251C26.125 6.79167 26.2658 7.04167 26.36 7.31251C26.4542 7.58334 26.5008 7.86459 26.5 8.15626V23.75C26.5 24.4375 26.2554 25.0263 25.7663 25.5163C25.2771 26.0063 24.6883 26.2508 24 26.25H6.5ZM7 7.50001H23.5L22.4375 6.25001H8.0625L7 7.50001ZM12.75 10V15.9375L15.25 14.6875L17.75 15.9375V10H12.75Z" fill="#D55D57"/>
</svg>
