<svg width="32" height="24" viewBox="0 0 32 24" fill="none" xmlns="http://www.w3.org/2000/svg">
<path d="M1.76707 0.504617C1.80299 0.504191 1.83893 0.505057 1.8748 0.507213L1.91235 0.50947L1.9498 0.506085C2.03958 0.497972 2.1299 0.497972 2.21968 0.506085L2.24214 0.508114H2.26468H10.2571C10.5316 0.513843 10.7992 0.594798 11.0308 0.742189C11.2636 0.890332 11.451 1.09984 11.5723 1.34765L11.5757 1.35444L11.5792 1.36111L13.0987 4.24014L13.2394 4.50676H13.5409H31.2949C31.3626 4.50676 31.3994 4.52091 31.4166 4.53018C31.4331 4.53905 31.4449 4.55032 31.4549 4.5672C31.4766 4.60373 31.505 4.70021 31.4577 4.85633L28.2201 14.8489L28.22 14.8489L28.2179 14.856C28.1773 14.9877 28.0576 15.156 27.8685 15.2959C27.68 15.4354 27.4819 15.5027 27.3362 15.5027H13.3409C13.219 15.5027 13.0201 15.4384 12.8198 15.2931C12.6199 15.1481 12.4973 14.9794 12.4593 14.856L12.4594 14.856L12.4565 14.8472L10.817 9.8489L9.1776 4.85059L9.17537 4.84379L9.17295 4.83706L8.81307 3.8374L8.69404 3.50676H8.34263H2.34465H2.30491L2.26566 3.51304C1.86635 3.57693 1.45801 3.47958 1.13048 3.2424C0.802947 3.00522 0.583048 2.64765 0.519158 2.24833C0.455269 1.84902 0.552621 1.44069 0.7898 1.11315C1.02365 0.790221 1.37454 0.571919 1.76707 0.504617ZM12.8413 22.0007C12.8413 21.1572 13.4971 20.5014 14.3406 20.5014C15.1841 20.5014 15.8399 21.1572 15.8399 22.0007C15.8399 22.8442 15.1841 23.5 14.3406 23.5C13.4971 23.5 12.8413 22.8442 12.8413 22.0007ZM24.8372 22.0007C24.8372 21.1572 25.4931 20.5014 26.3365 20.5014C27.18 20.5014 27.8359 21.1572 27.8359 22.0007C27.8359 22.8442 27.18 23.5 26.3365 23.5C25.4931 23.5 24.8372 22.8442 24.8372 22.0007Z" stroke="#EC9E90"/>
</svg>
