<svg width="31" height="30" viewBox="0 0 31 30" fill="none" xmlns="http://www.w3.org/2000/svg">
<path d="M24.5 5C25.4565 4.99995 26.3769 5.36541 27.0728 6.0216C27.7688 6.6778 28.1876 7.57513 28.2438 8.53L28.25 8.75V11.0213C28.2472 11.3589 28.1562 11.6899 27.986 11.9815C27.8159 12.2731 27.5725 12.5152 27.28 12.6838L27.1463 12.7562C26.7418 12.9548 26.3986 13.2588 26.1528 13.6364C25.9069 14.0139 25.7677 14.4508 25.7498 14.901C25.7319 15.3511 25.8359 15.7978 26.0509 16.1936C26.2659 16.5895 26.5839 16.92 26.9712 17.15L27.1463 17.2437C27.6875 17.5113 28.1712 18.0638 28.2412 18.7937L28.25 18.9787V21.25C28.2501 22.2065 27.8846 23.1269 27.2284 23.8228C26.5722 24.5188 25.6749 24.9376 24.72 24.9938L24.5 25H7C6.04349 25.0001 5.12311 24.6346 4.42717 23.9784C3.73124 23.3222 3.31237 22.4249 3.25625 21.47L3.25 21.25V18.9787C3.25 18.2212 3.69 17.6312 4.22 17.3162L4.35375 17.2437C4.75816 17.0452 5.10143 16.7412 5.34724 16.3636C5.59306 15.9861 5.73229 15.5492 5.75022 15.099C5.76815 14.6489 5.66411 14.2022 5.4491 13.8064C5.23409 13.4105 4.9161 13.08 4.52875 12.85L4.35375 12.7562C3.8125 12.4887 3.32875 11.9363 3.25875 11.2063L3.25 11.0225V8.75C3.24995 7.79349 3.61541 6.87311 4.2716 6.17717C4.9278 5.48124 5.82513 5.06237 6.78 5.00625L7 5H24.5ZM24.5 7.5H7C6.69383 7.50004 6.39833 7.61244 6.16954 7.81589C5.94074 8.01934 5.79457 8.29969 5.75875 8.60375L5.75 8.75V10.6687C6.49057 11.096 7.10921 11.706 7.54682 12.4405C7.98443 13.175 8.2264 14.0094 8.24959 14.864C8.27279 15.7187 8.07645 16.565 7.67932 17.3222C7.28219 18.0793 6.69755 18.722 5.98125 19.1887L5.75 19.3313V21.25C5.75004 21.5562 5.86244 21.8517 6.06589 22.0805C6.26934 22.3093 6.54969 22.4554 6.85375 22.4912L7 22.5H24.5C24.8062 22.5 25.1017 22.3876 25.3305 22.1841C25.5593 21.9807 25.7054 21.7003 25.7412 21.3963L25.75 21.25V19.3313C25.0094 18.904 24.3908 18.294 23.9532 17.5595C23.5156 16.825 23.2736 15.9906 23.2504 15.136C23.2272 14.2813 23.4236 13.435 23.8207 12.6778C24.2178 11.9207 24.8025 11.278 25.5188 10.8113L25.75 10.6687V8.75C25.75 8.44383 25.6376 8.14833 25.4341 7.91954C25.2307 7.69074 24.9503 7.54457 24.6463 7.50875L24.5 7.5ZM13.25 11.25C13.5562 11.25 13.8517 11.3624 14.0805 11.5659C14.3093 11.7693 14.4554 12.0497 14.4913 12.3538L14.5 12.5V17.5C14.4996 17.8186 14.3777 18.125 14.1589 18.3567C13.9402 18.5884 13.6413 18.7278 13.3233 18.7465C13.0052 18.7651 12.692 18.6617 12.4477 18.4572C12.2034 18.2527 12.0464 17.9626 12.0087 17.6462L12 17.5V12.5C12 12.1685 12.1317 11.8505 12.3661 11.6161C12.6005 11.3817 12.9185 11.25 13.25 11.25Z" fill="#D55D57"/>
</svg>
