<svg width="1400" height="48" viewBox="0 0 1400 48" fill="none" xmlns="http://www.w3.org/2000/svg">
<path d="M416.725 9.31348C416.725 11.1739 415.204 12.6821 413.328 12.6821C411.452 12.6821 409.931 11.1739 409.931 9.31348M416.725 9.31348C416.725 7.45302 415.204 5.94482 413.328 5.94482C411.452 5.94482 409.931 7.45302 409.931 9.31348M416.725 9.31348C416.725 9.43468 416.718 9.55439 416.706 9.67228C423.622 11.1586 428.857 17.1259 429.166 24.3572L429.141 23.9172C429.167 24.0986 429.18 24.284 429.18 24.4724C429.18 26.643 427.406 28.4025 425.217 28.4025M409.931 9.31348C409.931 9.43468 409.937 9.55439 409.952 9.67064C403.223 11.1178 398.087 16.8019 397.526 23.7651L397.518 23.8917C397.49 24.0812 397.475 24.2751 397.475 24.4724C397.475 26.643 399.25 28.4025 401.438 28.4025M425.217 28.4025C423.128 28.4025 421.416 26.7993 421.265 24.7657L421.252 24.4962L421.243 24.7657C421.092 26.7993 419.38 28.4025 417.291 28.4025M425.217 28.4025C425.81 28.4025 426.373 28.2733 426.878 28.0417L424.651 39.6314H402.005L399.777 28.0418C400.283 28.2734 400.845 28.4025 401.438 28.4025M425.217 28.4025C423.028 28.4025 421.254 26.643 421.254 24.4724M401.438 28.4025C403.52 28.4025 405.227 26.8111 405.389 24.7882L405.399 24.4962L405.412 24.7657C405.564 26.7993 407.275 28.4025 409.365 28.4025M401.438 28.4025C403.627 28.4025 405.401 26.643 405.401 24.4724C405.401 26.643 407.176 28.4025 409.365 28.4025M409.365 28.4025C411.454 28.4025 413.166 26.7993 413.317 24.7657L413.326 24.4962M409.365 28.4025C411.545 28.4025 413.313 26.6557 413.326 24.4962M413.326 24.4962L413.339 24.7657C413.49 26.7993 415.202 28.4025 417.291 28.4025M413.326 24.4962L413.328 24.4724C413.328 26.643 415.102 28.4025 417.291 28.4025M417.291 28.4025C419.48 28.4025 421.254 26.643 421.254 24.4724M421.254 24.4724L421.258 24.3298C421.253 24.378 421.254 24.4251 421.254 24.4724ZM420.405 31.7712L419.839 36.2627M413.611 31.7712V36.2627M406.817 31.7712L407.383 36.2627" stroke="#FFA08F" stroke-width="1.33829" stroke-linejoin="round"/>
<path d="M493.473 12.2856H524.297M493.473 12.2856V33.4223H524.297V12.2856M493.473 12.2856V20.7403L495.125 19.9473C496.78 19.153 498.754 19.469 500.078 20.7403C501.37 21.9802 503.343 22.1738 504.851 21.2087L505.583 20.7403C507.596 19.4518 510.175 19.4518 512.188 20.7403L512.92 21.2087C514.428 22.1738 516.401 21.9802 517.692 20.7403C519.016 19.469 520.991 19.153 522.645 19.9473L524.297 20.7403V12.2856M500.078 12.2856C501.294 12.2856 502.28 11.3393 502.28 10.1719C502.28 9.39368 501.546 7.98457 500.078 5.94458C498.61 7.98457 497.877 9.39368 497.877 10.1719C497.877 11.3393 498.862 12.2856 500.078 12.2856ZM508.885 12.2856C510.101 12.2856 511.087 11.3393 511.087 10.1719C511.087 9.39368 510.353 7.98457 508.885 5.94458C507.417 7.98457 506.683 9.39368 506.683 10.1719C506.683 11.3393 507.669 12.2856 508.885 12.2856ZM517.692 12.2856C518.908 12.2856 519.894 11.3393 519.894 10.1719C519.894 9.39368 519.16 7.98457 517.692 5.94458C516.224 7.98457 515.49 9.39368 515.49 10.1719C515.49 11.3393 516.476 12.2856 517.692 12.2856ZM493.297 37.6496H524.474C526.808 37.6496 528.701 35.7569 528.701 33.4223H489.07C489.07 35.7569 490.962 37.6496 493.297 37.6496Z" stroke="#FFA08F" stroke-width="1.78341" stroke-linejoin="round"/>
<path d="M588.592 31.1221H620.297V37.6496H588.592V31.1221ZM588.592 31.1221H620.297V20.6215C620.297 20.6151 620.291 20.6099 620.285 20.6099H588.603C588.597 20.6099 588.592 20.6151 588.592 20.6215V31.1221ZM611.315 9.90771C613.235 9.90771 614.792 11.4603 614.792 13.3755L614.78 13.104L614.851 13.0848C617.898 14.1145 620.122 16.8967 620.287 20.213L620.295 20.587L620.297 20.5982C620.297 20.6047 620.291 20.6099 620.285 20.6099H588.67C588.664 20.6099 588.658 20.6047 588.658 20.5982C588.658 20.5931 588.662 20.5886 588.667 20.5871L603.61 16.0659L608.158 14.8276C607.953 14.3859 607.839 13.894 607.839 13.3755C607.839 11.4603 609.395 9.90771 611.315 9.90771ZM611.315 16.8432C613.235 16.8432 614.792 15.2906 614.792 13.3755C614.792 11.4603 613.235 9.90771 611.315 9.90771C609.395 9.90771 607.839 11.4603 607.839 13.3755C607.839 15.2906 609.395 16.8432 611.315 16.8432Z" stroke="#FFA08F" stroke-width="1.78341" stroke-linejoin="round"/>
<path fill-rule="evenodd" clip-rule="evenodd" d="M699.999 29.7236C703.282 29.7236 705.944 27.0621 705.944 23.7789C705.944 20.4957 703.282 17.8342 699.999 17.8342C696.716 17.8342 694.054 20.4957 694.054 23.7789C694.054 27.0621 696.716 29.7236 699.999 29.7236ZM690.091 13.8711V17.8342V13.8711ZM705.944 9.90795V13.8711V9.90795ZM694.054 9.90795L696.036 11.8895L694.054 9.90795ZM711.888 19.8158L713.87 21.7973L711.888 19.8158ZM688.11 19.8158L686.128 21.7973L688.11 19.8158ZM699.999 13.8711L698.017 15.8526L699.999 13.8711ZM709.907 15.8526L707.925 17.8342L709.907 15.8526ZM701.981 7.92639L699.999 9.90795L701.981 7.92639ZM694.054 33.6867V37.6498V33.6867ZM711.888 25.7605V29.7236V25.7605ZM701.981 35.6683L699.999 37.6498L701.981 35.6683ZM705.944 31.7051L707.925 33.6867L705.944 31.7051ZM690.091 23.7789V27.742V23.7789ZM688.11 29.7236L686.128 31.7051L688.11 29.7236ZM699.999 41.613C709.848 41.613 717.833 33.6284 717.833 23.7789C717.833 13.9294 709.848 5.94482 699.999 5.94482C690.15 5.94482 682.165 13.9294 682.165 23.7789C682.165 33.6284 690.15 41.613 699.999 41.613Z" stroke="#FFA08F" stroke-width="1.78341"/>
<path d="M785.649 19.8155C786.908 17.6731 788.815 15.6539 791.226 13.8738L791.481 13.872L793.575 13.8708M788.508 14.2445C788.716 14.2025 788.924 14.1645 789.135 14.1304C794.705 16.4807 799.021 19.8536 801.278 23.6097M797.538 13.8708L798.488 13.8719C798.99 13.8719 799.488 13.895 799.978 13.9401C802.347 15.7047 804.221 17.7 805.464 19.8155M790.524 23.6097C792.733 19.946 796.914 16.6481 802.311 14.313C802.549 14.363 802.785 14.4187 803.018 14.4795M812.254 24.2571L812.701 25.9854C813.658 29.6876 811.433 33.4648 807.731 34.4221C807.165 34.5685 806.582 34.6425 805.998 34.6425L784.646 34.6431C780.823 34.6431 777.722 31.5433 777.722 27.7194C777.722 27.1346 777.797 26.5521 777.943 25.9859L778.39 24.2579C779.971 18.1436 785.487 13.8724 791.802 13.8721H798.842C805.157 13.8721 810.673 18.143 812.254 24.2571Z" stroke="#FFA08F" stroke-width="1.78497" stroke-linejoin="round"/>
<path d="M885.283 11.7182L886.006 11.4671C889.314 10.3183 892.913 10.3183 896.222 11.4671L896.945 11.7182C898.99 12.4284 900.072 14.6622 899.362 16.7075C899.29 16.9151 899.201 17.1163 899.095 17.3089C897.622 19.9904 896.736 22.9545 896.497 26.0045L896.222 29.5135C893 31.0928 889.228 31.0928 886.006 29.5135L885.731 26.0045C885.491 22.9545 884.606 19.9904 883.133 17.3089C882.09 15.4113 882.784 13.0279 884.681 11.9855C884.874 11.8797 885.075 11.7903 885.283 11.7182ZM876.622 28.751L880.594 31.087C881.472 31.6032 882.601 31.3209 883.133 30.4523C883.751 29.4424 884.709 28.6856 885.834 28.3178L886.006 28.2618L885.856 26.6497C885.534 23.1718 884.5 19.7974 882.818 16.7361L882.015 15.2749L880.357 15.9469C877.593 17.0665 875.41 19.2693 874.314 22.0421C873.326 24.5418 874.305 27.3884 876.622 28.751ZM873.795 27.0882L874.992 27.7924L877.386 29.2006L878.541 29.8798C879.184 30.258 879.41 31.0791 879.05 31.7325L875.79 37.6499C873.576 34.8879 872.773 31.2534 873.616 27.8157L873.795 27.0882ZM905.606 28.751L901.634 31.087C900.756 31.6032 899.627 31.3209 899.095 30.4523C898.477 29.4424 897.519 28.6856 896.393 28.3178L896.222 28.2618L896.371 26.6497C896.694 23.1718 897.728 19.7974 899.41 16.7361L900.212 15.2749L901.871 15.9469C904.634 17.0665 906.818 19.2693 907.914 22.0421C908.902 24.5418 907.922 27.3884 905.606 28.751ZM908.433 27.0882L907.236 27.7924L904.841 29.2006L903.686 29.8798C903.043 30.258 902.818 31.0791 903.178 31.7325L906.438 37.6499C908.651 34.8879 909.455 31.2534 908.611 27.8157L908.433 27.0882Z" stroke="#FFA08F" stroke-width="1.78341" stroke-linejoin="round"/>
<path d="M1000.96 13.5805C1000.96 12.6444 1000.17 11.8872 999.182 11.8892L974.215 11.9398C973.23 11.9513 972.438 12.7195 972.445 13.6555M1000.9 34.1476C1000.78 34.9753 1000.03 35.6161 999.129 35.6179L974.398 35.6679C973.532 35.6697 972.81 35.0839 972.651 34.3042M968.837 23.8149C968.825 29.4313 970.811 33.9803 973.273 33.9753C975.736 33.9703 977.742 29.4133 977.755 23.7968C977.767 18.1804 975.781 13.6314 973.319 13.6364C970.857 13.6414 968.85 18.1985 968.837 23.8149ZM968.837 23.8149C968.829 27.5592 970.02 30.5921 971.498 30.5891C971.809 30.5885 972.109 30.4528 972.387 30.2041M968.837 23.8149C968.846 20.0706 970.051 17.0328 971.528 17.0298C973.005 17.0269 974.196 20.0598 974.188 23.8041M974.188 23.8041C974.185 25.2082 973.384 26.348 972.399 26.35C971.414 26.352 970.618 25.2154 970.621 23.8113C970.624 22.4072 971.425 21.2673 972.41 21.2653C973.395 21.2633 974.191 22.4 974.188 23.8041ZM1004.51 23.7427C1004.49 29.3591 1002.49 33.9162 1000.02 33.9212C997.562 33.9262 995.576 29.3772 995.588 23.7608C995.601 18.1443 997.608 13.5873 1000.07 13.5823C1002.53 13.5773 1004.52 18.1263 1004.51 23.7427ZM1004.51 23.7427C1004.5 27.487 1003.29 30.5248 1001.82 30.5278C1001.5 30.5284 1001.2 30.394 1000.93 30.1463M1004.51 23.7427C1004.51 19.9984 1003.32 16.9655 1001.85 16.9685C1000.37 16.9715 999.164 20.0093 999.155 23.7535M999.155 23.7535C999.152 25.1576 999.948 26.2943 1000.93 26.2923C1001.92 26.2903 1002.72 25.1504 1002.72 23.7463C1002.73 22.3422 1001.93 21.2056 1000.94 21.2076C999.96 21.2096 999.159 22.3494 999.155 23.7535Z" stroke="#FFA08F" stroke-width="1.78497" stroke-linejoin="round"/>
</svg>
