<svg width="129" height="131" viewBox="0 0 129 131" fill="none" xmlns="http://www.w3.org/2000/svg">
<path fill-rule="evenodd" clip-rule="evenodd" d="M87.9928 19.6784C87.8192 20.6157 87.5706 21.5198 87.2546 22.3856C87.6032 22.5883 87.9492 22.7952 88.2923 23.0062C88.8893 22.3157 89.5512 21.6658 90.277 21.0654C97.3166 15.2415 107.707 16.273 113.484 23.3693C119.262 30.4656 118.238 40.9395 111.199 46.7633C110.472 47.3649 109.709 47.8933 108.919 48.3494C108.99 48.5469 109.061 48.7449 109.13 48.9435C110.025 48.7918 110.945 48.7129 111.883 48.7129C120.99 48.7129 128.373 56.1548 128.373 65.335C128.373 74.5151 120.99 81.9571 111.883 81.9571C110.945 81.9571 110.025 81.8781 109.13 81.7264C109.001 82.0976 108.867 82.4667 108.73 82.8338C109.514 83.2983 110.27 83.8346 110.99 84.4436C117.966 90.3446 118.876 100.829 113.022 107.861C107.168 114.894 96.7673 115.811 89.7911 109.91C89.0714 109.301 88.4163 108.643 87.8265 107.946C87.4877 108.149 87.1462 108.348 86.8022 108.544C87.1037 109.398 87.3397 110.288 87.5033 111.21C89.1068 120.246 83.1395 128.882 74.1749 130.499C65.2103 132.115 56.6431 126.1 55.0396 117.063C54.8711 116.114 54.7862 115.169 54.7796 114.236C54.3311 114.163 53.8846 114.083 53.4402 113.997C53.1209 114.853 52.7272 115.693 52.2567 116.509C47.6826 124.447 37.5908 127.145 29.7159 122.534C21.8411 117.923 19.1653 107.75 23.7394 99.8115C24.217 98.9827 24.7548 98.211 25.3439 97.4987C25.1033 97.2149 24.8659 96.9282 24.6316 96.6389C23.8387 97.0911 22.9977 97.4829 22.1125 97.8063C13.5506 100.934 4.0943 96.4734 0.991245 87.8427C-2.11181 79.2119 2.31346 69.6795 10.8754 66.5514C11.7708 66.2243 12.6761 65.9802 13.5828 65.8151C13.5813 65.6551 13.5805 65.495 13.5805 65.3346C13.5805 65.0475 13.583 64.761 13.5878 64.4751C12.6831 64.3032 11.7805 64.0523 10.8883 63.7187C2.3499 60.5259 -2.00422 50.9603 1.16306 42.3532C4.33035 33.7462 13.8196 29.357 22.358 32.5498C23.2416 32.8802 24.0803 33.2788 24.8706 33.7376C25.1039 33.4538 25.3403 33.1727 25.5797 32.8943C24.9956 32.1776 24.4634 31.4017 23.9917 30.5691C19.4758 22.5971 22.2259 12.4443 30.1342 7.89199C38.0425 3.33973 48.1144 6.11192 52.6303 14.0839C53.0949 14.9039 53.4825 15.7471 53.7956 16.6048C54.2924 16.5128 54.7919 16.4284 55.2938 16.3516C55.31 15.4345 55.4019 14.5064 55.5745 13.5747C57.2466 4.55061 65.8591 -1.39849 74.8112 0.287004C83.7632 1.9725 89.6649 10.6543 87.9928 19.6784Z" fill="#FF959F"/>
<mask id="path-2-inside-1_2212_3836" fill="white">
<path fill-rule="evenodd" clip-rule="evenodd" d="M87.634 21.1805C87.465 22.0926 87.2231 22.9725 86.9156 23.8152C87.2549 24.0125 87.5917 24.2139 87.9257 24.4193C88.5068 23.7473 89.1509 23.1148 89.8572 22.5304C96.7083 16.8626 106.82 17.8665 112.443 24.7726C118.065 31.6788 117.069 41.872 110.218 47.5398C109.511 48.1253 108.768 48.6396 107.999 49.0835C108.069 49.2758 108.138 49.4686 108.205 49.662C109.076 49.5143 109.971 49.4374 110.885 49.4374C119.747 49.4374 126.932 56.68 126.932 65.6142C126.932 74.5483 119.747 81.7909 110.885 81.7909C109.971 81.7909 109.076 81.714 108.204 81.5662C108.079 81.9273 107.949 82.2864 107.815 82.6435C108.578 83.0955 109.314 83.6174 110.015 84.21C116.804 89.9529 117.689 100.156 111.992 107C106.295 113.844 96.1729 114.737 89.3837 108.994C88.6834 108.401 88.0459 107.762 87.472 107.083C87.1423 107.281 86.8099 107.474 86.4751 107.664C86.7685 108.496 86.9982 109.362 87.1574 110.259C88.718 119.054 82.9105 127.458 74.1861 129.031C65.4617 130.605 57.1242 124.75 55.5636 115.956C55.3997 115.032 55.317 114.112 55.3106 113.204C54.8742 113.133 54.4398 113.055 54.0075 112.972C53.6968 113.804 53.3136 114.622 52.8558 115.416C48.4042 123.142 38.5828 125.767 30.919 121.28C23.2552 116.792 20.6511 106.892 25.1026 99.1663C25.5674 98.3597 26.0906 97.6088 26.6639 96.9157C26.4298 96.6396 26.1988 96.3607 25.971 96.0792C25.1994 96.5191 24.3812 96.9004 23.52 97.215C15.1875 100.259 5.98459 95.9178 2.96468 87.5183C-0.0552254 79.1188 4.25147 69.8418 12.584 66.7976C13.4551 66.4794 14.3357 66.2418 15.2178 66.0812C15.2163 65.9254 15.2155 65.7694 15.2155 65.6133C15.2155 65.334 15.2179 65.0552 15.2226 64.777C14.3422 64.6097 13.4637 64.3656 12.5954 64.0409C4.28586 60.9337 0.0484134 51.6244 3.13083 43.2479C6.21324 34.8715 15.4483 30.6 23.7578 33.7072C24.6177 34.0287 25.4339 34.4166 26.2029 34.863C26.4301 34.5868 26.6602 34.3132 26.8933 34.0422C26.325 33.3447 25.8071 32.5898 25.3482 31.7797C20.9533 24.0213 23.6296 14.1405 31.3261 9.71023C39.0225 5.27994 48.8244 7.97785 53.2194 15.7362C53.6714 16.5341 54.0486 17.3546 54.3533 18.1892C54.8368 18.0997 55.3228 18.0175 55.8112 17.9428C55.8269 17.0502 55.9164 16.147 56.0844 15.2403C57.7116 6.45801 66.0934 0.668317 74.8056 2.30865C83.5178 3.94898 89.2613 12.3982 87.634 21.1805Z"/>
</mask>
<path d="M86.9156 23.8152L86.0014 23.4815L85.722 24.2469L86.4264 24.6565L86.9156 23.8152ZM87.634 21.1805L88.5909 21.3578L87.634 21.1805ZM87.9257 24.4193L87.4159 25.2483L88.1207 25.6817L88.6619 25.0558L87.9257 24.4193ZM89.8572 22.5304L89.2369 21.7806L89.8572 22.5304ZM112.443 24.7726L113.197 24.1582V24.1582L112.443 24.7726ZM110.218 47.5398L109.598 46.7899L110.218 47.5398ZM107.999 49.0835L107.513 48.2407L106.807 48.6484L107.084 49.4148L107.999 49.0835ZM108.205 49.662L107.285 49.9816L107.556 50.759L108.367 50.6215L108.205 49.662ZM108.204 81.5662L108.367 80.6067L107.555 80.4692L107.285 81.2467L108.204 81.5662ZM107.815 82.6435L106.904 82.3021L106.618 83.0653L107.319 83.4808L107.815 82.6435ZM110.015 84.21L109.386 84.953L110.015 84.21ZM111.992 107L112.74 107.623L111.992 107ZM89.3837 108.994L90.0122 108.251H90.0122L89.3837 108.994ZM87.472 107.083L88.2151 106.454L87.681 105.823L86.9715 106.248L87.472 107.083ZM86.4751 107.664L85.9949 106.818L85.2861 107.22L85.5574 107.988L86.4751 107.664ZM87.1574 110.259L86.1992 110.429L87.1574 110.259ZM74.1861 129.031L74.0134 128.074L74.1861 129.031ZM55.5636 115.956L54.6054 116.126L55.5636 115.956ZM55.3106 113.204L56.2837 113.198L56.2779 112.377L55.4681 112.244L55.3106 113.204ZM54.0075 112.972L54.1918 112.016L53.3837 111.861L53.0958 112.632L54.0075 112.972ZM52.8558 115.416L53.699 115.902V115.902L52.8558 115.416ZM30.919 121.28L30.4272 122.119L30.919 121.28ZM25.1026 99.1663L25.9459 99.6522L25.9459 99.6522L25.1026 99.1663ZM26.6639 96.9157L27.4138 97.536L27.9331 96.9081L27.4063 96.2865L26.6639 96.9157ZM25.971 96.0792L26.7274 95.4669L26.2071 94.8242L25.4889 95.2338L25.971 96.0792ZM23.52 97.215L23.1861 96.3009L23.52 97.215ZM12.584 66.7976L12.25 65.8835H12.25L12.584 66.7976ZM15.2178 66.0812L15.3921 67.0387L16.1986 66.8918L16.1909 66.0721L15.2178 66.0812ZM15.2226 64.777L16.1957 64.7934L16.2095 63.9739L15.4043 63.8209L15.2226 64.777ZM12.5954 64.0409L12.9363 63.1293L12.5954 64.0409ZM3.13083 43.2479L2.2175 42.9118L3.13083 43.2479ZM23.7578 33.7072L23.417 34.6187L23.7578 33.7072ZM26.2029 34.863L25.7143 35.7047L26.4295 36.1199L26.9547 35.4811L26.2029 34.863ZM26.8933 34.0422L27.6311 34.6767L28.1624 34.059L27.6477 33.4274L26.8933 34.0422ZM25.3482 31.7797L24.5014 32.2594V32.2594L25.3482 31.7797ZM31.3261 9.71023L31.8116 10.5537L31.3261 9.71023ZM53.2194 15.7362L52.3726 16.2159L53.2194 15.7362ZM54.3533 18.1892L53.4391 18.5229L53.7213 19.296L54.5305 19.1461L54.3533 18.1892ZM55.8112 17.9428L55.9584 18.9048L56.7698 18.7806L56.7843 17.9599L55.8112 17.9428ZM56.0844 15.2403L55.1274 15.063V15.063L56.0844 15.2403ZM87.8298 24.1488C88.1558 23.2555 88.412 22.3233 88.5909 21.3578L86.6771 21.0032C86.518 21.8619 86.2904 22.6895 86.0014 23.4815L87.8298 24.1488ZM88.4355 23.5903C88.0946 23.3807 87.751 23.1752 87.4048 22.9738L86.4264 24.6565C86.7588 24.8498 87.0887 25.0471 87.4159 25.2483L88.4355 23.5903ZM88.6619 25.0558C89.2077 24.4245 89.8131 23.83 90.4776 23.2803L89.2369 21.7806C88.4886 22.3996 87.8058 23.07 87.1895 23.7828L88.6619 25.0558ZM90.4776 23.2803C96.9111 17.9579 106.406 18.8989 111.688 25.3871L113.197 24.1582C107.235 16.834 96.5055 15.7673 89.2369 21.7806L90.4776 23.2803ZM111.688 25.387C116.974 31.8798 116.036 41.4637 109.598 46.7899L110.839 48.2897C118.103 42.2802 119.157 31.4777 113.197 24.1582L111.688 25.387ZM109.598 46.7899C108.932 47.3407 108.235 47.8239 107.513 48.2407L108.486 49.9263C109.302 49.4552 110.089 48.9099 110.839 48.2897L109.598 46.7899ZM109.124 49.3424C109.055 49.1451 108.986 48.9484 108.915 48.7523L107.084 49.4148C107.153 49.6031 107.22 49.7921 107.285 49.9816L109.124 49.3424ZM110.885 48.4642C109.917 48.4642 108.967 48.5457 108.042 48.7025L108.367 50.6215C109.185 50.4829 110.026 50.4106 110.885 50.4106V48.4642ZM127.905 65.6142C127.905 56.1499 120.292 48.4642 110.885 48.4642V50.4106C119.203 50.4106 125.959 57.2101 125.959 65.6142H127.905ZM110.885 82.7641C120.292 82.7641 127.905 75.0784 127.905 65.6142H125.959C125.959 74.0182 119.203 80.8177 110.885 80.8177V82.7641ZM108.042 82.5258C108.967 82.6826 109.917 82.7641 110.885 82.7641V80.8177C110.026 80.8177 109.185 80.7454 108.367 80.6067L108.042 82.5258ZM108.727 82.9849C108.863 82.6206 108.995 82.2542 109.123 81.8858L107.285 81.2467C107.162 81.6004 107.035 81.9522 106.904 82.3021L108.727 82.9849ZM110.643 83.4669C109.901 82.8392 109.121 82.2858 108.311 81.8062L107.319 83.4808C108.036 83.9052 108.727 84.3956 109.386 84.953L110.643 83.4669ZM112.74 107.623C118.778 100.369 117.841 89.5558 110.643 83.4669L109.386 84.953C115.766 90.3499 116.6 99.9436 111.244 106.378L112.74 107.623ZM88.7552 109.737C95.9581 115.83 106.698 114.881 112.74 107.623L111.244 106.378C105.892 112.807 96.3878 113.644 90.0122 108.251L88.7552 109.737ZM86.7289 107.711C87.3376 108.431 88.0134 109.109 88.7552 109.737L90.0122 108.251C89.3535 107.693 88.7543 107.092 88.2151 106.454L86.7289 107.711ZM86.9553 108.511C87.297 108.317 87.6361 108.119 87.9726 107.917L86.9715 106.248C86.6484 106.442 86.3229 106.632 85.9949 106.818L86.9553 108.511ZM88.1157 110.089C87.9472 109.139 87.7039 108.222 87.3928 107.34L85.5574 107.988C85.8332 108.77 86.0493 109.585 86.1992 110.429L88.1157 110.089ZM74.3588 129.989C83.6179 128.32 89.7687 119.405 88.1157 110.089L86.1992 110.429C87.6672 118.702 82.2032 126.597 74.0134 128.074L74.3588 129.989ZM54.6054 116.126C56.2588 125.444 65.0976 131.659 74.3588 129.989L74.0134 128.074C65.8258 129.55 57.9895 124.057 56.5218 115.786L54.6054 116.126ZM54.3374 113.211C54.3442 114.174 54.4318 115.148 54.6054 116.126L56.5218 115.786C56.3675 114.916 56.2898 114.051 56.2837 113.198L54.3374 113.211ZM53.8232 113.928C54.2644 114.013 54.7077 114.092 55.1531 114.165L55.4681 112.244C55.0407 112.174 54.6152 112.098 54.1918 112.016L53.8232 113.928ZM53.699 115.902C54.1838 115.061 54.5898 114.195 54.9192 113.312L53.0958 112.632C52.8037 113.414 52.4434 114.183 52.0125 114.931L53.699 115.902ZM30.4272 122.119C38.5603 126.881 48.9796 124.093 53.699 115.902L52.0125 114.931C47.8288 122.191 38.6053 124.652 31.4107 120.44L30.4272 122.119ZM24.2594 98.6804C19.5426 106.866 22.2988 117.36 30.4272 122.119L31.4107 120.44C24.2116 116.224 21.7595 106.917 25.9459 99.6522L24.2594 98.6804ZM25.9139 96.2955C25.306 97.0305 24.7515 97.8264 24.2594 98.6804L25.9459 99.6522C26.3832 98.8931 26.8753 98.1871 27.4138 97.536L25.9139 96.2955ZM25.2146 96.6916C25.447 96.9787 25.6827 97.2632 25.9214 97.5449L27.4063 96.2865C27.177 96.0159 26.9507 95.7427 26.7274 95.4669L25.2146 96.6916ZM23.854 98.1291C24.7667 97.7957 25.6344 97.3914 26.453 96.9246L25.4889 95.2338C24.7645 95.6469 23.9958 96.0051 23.1861 96.3009L23.854 98.1291ZM2.04887 87.8476C5.24936 96.7494 15.0095 101.36 23.854 98.1291L23.1861 96.3009C15.3656 99.158 6.71982 95.0863 3.8805 87.1891L2.04887 87.8476ZM12.25 65.8835C3.40924 69.1134 -1.15033 78.9494 2.04887 87.8476L3.8805 87.1891C1.03988 79.2882 5.09371 70.5702 12.9179 67.7117L12.25 65.8835ZM15.0434 65.1238C14.1072 65.2942 13.1732 65.5462 12.25 65.8835L12.9179 67.7117C13.737 67.4125 14.5642 67.1894 15.3921 67.0387L15.0434 65.1238ZM14.2423 65.6133C14.2423 65.7725 14.2431 65.9315 14.2446 66.0904L16.1909 66.0721C16.1895 65.9193 16.1888 65.7664 16.1888 65.6133H14.2423ZM14.2495 64.7606C14.2447 65.0442 14.2423 65.3285 14.2423 65.6133H16.1888C16.1888 65.3394 16.1911 65.0661 16.1957 64.7934L14.2495 64.7606ZM12.2546 64.9524C13.1748 65.2965 14.1064 65.5555 15.0409 65.7331L15.4043 63.8209C14.5779 63.6639 13.7527 63.4346 12.9363 63.1293L12.2546 64.9524ZM2.2175 42.9118C-1.04794 51.7856 3.43825 61.6557 12.2546 64.9524L12.9363 63.1293C5.13347 60.2116 1.14476 51.4631 4.04416 43.584L2.2175 42.9118ZM24.0987 32.7956C15.2786 29.4975 5.48428 34.0344 2.2175 42.9118L4.04416 43.584C6.94221 35.7086 15.618 31.7024 23.417 34.6187L24.0987 32.7956ZM26.6915 34.0214C25.8755 33.5477 25.0099 33.1364 24.0987 32.7956L23.417 34.6187C24.2254 34.921 24.9923 35.2855 25.7143 35.7047L26.6915 34.0214ZM26.1554 33.4076C25.9176 33.684 25.6829 33.9632 25.4512 34.245L26.9547 35.4811C27.1772 35.2104 27.4027 34.9423 27.6311 34.6767L26.1554 33.4076ZM24.5014 32.2594C24.9873 33.1172 25.5361 33.9173 26.1388 34.6569L27.6477 33.4274C27.1138 32.7722 26.6269 32.0624 26.195 31.3L24.5014 32.2594ZM30.8405 8.86678C22.6774 13.5658 19.8447 24.0389 24.5014 32.2594L26.195 31.3C22.0618 24.0038 24.5819 14.7153 31.8116 10.5537L30.8405 8.86678ZM54.0662 15.2565C49.4069 7.03151 39.0083 4.16516 30.8405 8.86678L31.8116 10.5537C39.0366 6.39472 48.242 8.92419 52.3726 16.2159L54.0662 15.2565ZM55.2675 17.8555C54.9445 16.9707 54.5448 16.1014 54.0662 15.2565L52.3726 16.2159C52.798 16.9669 53.1527 17.7384 53.4391 18.5229L55.2675 17.8555ZM55.664 16.9807C55.1655 17.057 54.6695 17.1409 54.1761 17.2323L54.5305 19.1461C55.004 19.0585 55.48 18.978 55.9584 18.9048L55.664 16.9807ZM55.1274 15.063C54.9496 16.0228 54.8548 16.9796 54.8382 17.9256L56.7843 17.9599C56.799 17.1209 56.8831 16.2713 57.0413 15.4176L55.1274 15.063ZM74.9856 1.35225C65.7374 -0.389009 56.8516 5.75791 55.1274 15.063L57.0413 15.4176C58.5717 7.1581 66.4493 1.72564 74.6255 3.26505L74.9856 1.35225ZM88.5909 21.3578C90.3146 12.0548 84.2317 3.09309 74.9856 1.35225L74.6255 3.26505C82.8039 4.80488 88.2079 12.7416 86.6771 21.0032L88.5909 21.3578Z" fill="white" mask="url(#path-2-inside-1_2212_3836)"/>
<path d="M43.364 48.76H50.514V51.048H43.364V48.76ZM45.036 45.108H50.624V47.308H45.036V45.108ZM45.168 50.102H47.5V59.936H45.168V50.102ZM49.348 48.76H51.636V54.876C51.636 55.866 51.504 56.526 50.866 56.9C50.228 57.274 49.436 57.296 48.336 57.296C48.292 56.614 48.05 55.69 47.764 55.074C48.358 55.096 48.908 55.096 49.106 55.074C49.304 55.074 49.348 55.008 49.348 54.832V48.76ZM51.834 40.18H63.076V42.402H51.834V40.18ZM55.002 49.002V50.41H59.908V49.002H55.002ZM55.002 52.214V53.622H59.908V52.214H55.002ZM55.002 45.812V47.198H59.908V45.812H55.002ZM52.582 43.876H62.438V55.558H52.582V43.876ZM56.124 41.39L59.138 41.72C58.72 43.106 58.258 44.492 57.884 45.438L55.596 45.02C55.816 43.964 56.058 42.468 56.124 41.39ZM54.738 55.58L56.894 56.988C55.684 58.154 53.594 59.386 51.878 60.046C51.46 59.562 50.69 58.77 50.118 58.33C51.834 57.714 53.77 56.526 54.738 55.58ZM57.928 57.054L59.886 55.734C61.118 56.526 62.79 57.736 63.648 58.572L61.58 60.046C60.81 59.232 59.182 57.934 57.928 57.054ZM46.422 39.322H47.874V39.828H48.644V40.532C47.72 42.468 46.224 45.13 43.672 47.484C43.386 46.89 42.704 45.878 42.22 45.482C44.288 43.678 45.674 41.28 46.422 39.322ZM46.62 39.322H48.512C49.964 40.488 51.878 42.248 52.758 43.502L51.13 45.834C50.316 44.558 48.512 42.424 47.104 41.324H46.62V39.322ZM75.418 42.138H82.92V44.712H75.418V42.138ZM64.924 40.554H76.034V42.996H64.924V40.554ZM67.828 45.108H73.13V47.462H67.828V45.108ZM67.828 49.684H73.13V52.038H67.828V49.684ZM82.194 42.138H82.656L83.118 42.072L84.834 42.49C83.976 51.4 81.094 56.812 76.122 59.848C75.726 59.166 74.978 58.176 74.384 57.67C78.762 55.382 81.468 49.97 82.194 42.71V42.138ZM77.992 44.778C79.07 50.498 81.424 55.36 85.648 57.648C85.054 58.154 84.24 59.166 83.822 59.848C79.202 57.054 76.848 51.906 75.462 45.262L77.992 44.778ZM66.442 41.566H68.95V55.954H66.442V41.566ZM72.096 41.566H74.648V59.98H72.096V41.566ZM64.418 54.986C66.596 54.744 69.874 54.304 72.976 53.864L73.13 56.262C70.27 56.768 67.212 57.252 64.902 57.604L64.418 54.986ZM38.26 73.202H51.812V75.094H38.26V73.202ZM40.856 77.8H49.15V78.878H40.856V77.8ZM40.856 79.56H49.15V80.638H40.856V79.56ZM39.514 75.864H50.448V81.98H47.984V77.162H41.868V81.98H39.514V75.864ZM37.512 81.342H52.318V84.488H49.964V82.816H39.734V84.488H37.512V81.342ZM40.284 83.19L41.934 84.092C41.34 84.95 40.504 85.94 39.58 86.6L38.018 85.324C38.898 84.84 39.756 83.96 40.284 83.19ZM41.67 83.168H43.76V84.29C43.76 84.752 43.87 84.818 44.464 84.818C44.728 84.818 46.048 84.818 46.422 84.818C46.84 84.818 46.95 84.686 47.038 84.07C47.412 84.268 48.182 84.488 48.688 84.576C48.512 85.852 48.006 86.204 46.708 86.204C46.268 86.204 44.596 86.204 44.156 86.204C42.176 86.204 41.67 85.808 41.67 84.29V83.168ZM43.408 82.75L44.904 81.87C45.674 82.376 46.554 83.124 46.95 83.718L45.366 84.664C44.992 84.07 44.156 83.278 43.408 82.75ZM47.874 83.938L49.48 83.102C50.316 83.828 51.35 84.862 51.79 85.632L50.096 86.534C49.678 85.808 48.71 84.708 47.874 83.938ZM42.704 85.566L45.014 86.072C43.452 87.744 41.428 88.998 38.612 90.076C38.304 89.548 37.622 88.8 37.16 88.47C39.756 87.722 41.648 86.644 42.704 85.566ZM48.182 86.864H48.666L49.106 86.776L50.69 87.634C48.798 90.538 44.508 92.254 38.436 93.068C38.194 92.496 37.644 91.682 37.204 91.176C42.924 90.604 46.906 89.196 48.182 87.238V86.864ZM41.956 87.656C43.826 89.68 47.83 90.67 52.582 90.934C52.098 91.44 51.482 92.386 51.196 93.024C46.158 92.54 42.198 91.154 39.866 88.36L41.956 87.656ZM42.286 86.864H48.798V88.338H40.812L42.286 86.864ZM43.496 74.082L46.356 74.39C45.96 75.336 45.586 76.172 45.3 76.788L43.034 76.414C43.21 75.688 43.43 74.742 43.496 74.082ZM35.598 72.366L38.04 73.07C36.786 76.92 34.762 81.1 32.518 83.74C32.298 83.08 31.66 81.584 31.242 80.88C33.024 78.812 34.652 75.578 35.598 72.366ZM33.86 78.394L36.302 75.974L36.368 76.018V92.958H33.86V78.394ZM54.43 73.378H73.438V75.446H54.43V73.378ZM62.438 72.322H65.144V85.038H62.438V72.322ZM58.214 80.396V81.386H69.302V80.396H58.214ZM58.214 77.954V78.944H69.302V77.954H58.214ZM55.728 76.414H71.92V82.97H55.728V76.414ZM66.904 83.652L68.708 82.442C70.468 83.256 72.536 84.664 73.592 85.72L71.766 87.128C70.71 86.006 68.664 84.51 66.904 83.652ZM54.496 84.202C58.632 84.224 65.144 84.224 71.172 84.158L71.04 86.16C65.122 86.292 58.786 86.38 54.606 86.402L54.496 84.202ZM58.588 87.326H61.206V89.812C61.206 90.428 61.426 90.494 62.702 90.494C63.274 90.494 65.782 90.494 66.552 90.494C67.542 90.494 67.74 90.252 67.828 88.58C68.4 88.932 69.434 89.284 70.116 89.416C69.808 92.012 69.082 92.628 66.772 92.628C66.112 92.628 63.098 92.628 62.46 92.628C59.38 92.628 58.588 91.99 58.588 89.834V87.326ZM61.932 87.216L63.648 85.83C64.836 86.534 66.31 87.612 67.014 88.404L65.21 89.944C64.572 89.13 63.12 87.964 61.932 87.216ZM69.346 87.964L71.634 87.216C72.646 88.536 73.636 90.296 73.944 91.55L71.502 92.342C71.216 91.154 70.314 89.328 69.346 87.964ZM55.794 87.106L58.082 88.052C57.598 89.482 56.894 91.198 56.036 92.364L53.748 91.066C54.606 90.054 55.376 88.448 55.794 87.106ZM76.056 80.022H95.878V82.42H76.056V80.022ZM77.508 75.952H94.646V78.262H77.508V75.952ZM79.862 84.268H90.224V86.644H79.862V84.268ZM89.036 76.986C90.268 80.704 92.842 83.894 96.428 85.39C95.834 85.874 95.042 86.886 94.69 87.546C90.796 85.676 88.222 82.112 86.682 77.602L89.036 76.986ZM78.542 73.356L80.742 72.564C81.424 73.51 82.15 74.808 82.436 75.688L80.082 76.568C79.862 75.71 79.18 74.368 78.542 73.356ZM90.576 72.454L93.194 73.224C92.512 74.478 91.764 75.732 91.17 76.546L88.904 75.82C89.476 74.918 90.202 73.488 90.576 72.454ZM89.52 84.268H92.226C92.226 84.268 92.204 84.95 92.16 85.28C91.896 89.482 91.566 91.33 90.95 92.012C90.444 92.606 89.916 92.782 89.19 92.892C88.552 92.958 87.474 92.958 86.33 92.936C86.286 92.166 85.978 91.132 85.56 90.45C86.528 90.538 87.452 90.56 87.892 90.56C88.244 90.56 88.464 90.516 88.684 90.296C89.058 89.922 89.322 88.404 89.52 84.642V84.268ZM83.426 85.06H86.176C85.736 88.888 84.658 91.572 79.048 93.024C78.806 92.364 78.124 91.286 77.574 90.758C82.414 89.746 83.074 87.832 83.426 85.06ZM84.262 72.256L87.056 72.74C85.648 78.944 83.096 84.576 77.156 87.524C76.782 86.908 76.034 85.918 75.506 85.39C80.984 82.86 83.316 77.712 84.262 72.256Z" fill="white"/>
</svg>
