<svg width="26" height="24" viewBox="0 0 26 24" fill="none" xmlns="http://www.w3.org/2000/svg">
<path d="M17.3 8.55C17.3 10.7945 15.3951 12.65 13 12.65V13.65C15.9068 13.65 18.3 11.3865 18.3 8.55H17.3ZM13 12.65C10.6049 12.65 8.7 10.7945 8.7 8.55H7.7C7.7 11.3865 10.0932 13.65 13 13.65V12.65ZM8.7 8.55C8.7 6.30547 10.6049 4.45 13 4.45V3.45C10.0932 3.45 7.7 5.71351 7.7 8.55H8.7ZM13 4.45C15.3951 4.45 17.3 6.30547 17.3 8.55H18.3C18.3 5.71351 15.9068 3.45 13 3.45V4.45ZM9.4 17.1H16.6V16.1H9.4V17.1ZM1.5 12C1.5 5.94471 6.62846 1 13 1V0C6.11671 0 0.5 5.35274 0.5 12H1.5ZM13 1C19.3715 1 24.5 5.94471 24.5 12H25.5C25.5 5.35274 19.8833 0 13 0V1ZM24.5 12C24.5 15.1121 23.1491 17.9257 20.9694 19.9303L21.6463 20.6663C24.0178 18.4853 25.5 15.4104 25.5 12H24.5ZM20.9694 19.9303C18.9039 21.8299 16.0968 23 13 23V24C16.3519 24 19.3995 22.7327 21.6463 20.6663L20.9694 19.9303ZM16.6 17.1C18.7017 17.1 20.431 18.5326 20.8182 20.3999L21.7974 20.1968C21.31 17.8465 19.1562 16.1 16.6 16.1V17.1ZM13 23C9.90319 23 7.09609 21.8299 5.03064 19.9303L4.35371 20.6663C6.60051 22.7327 9.64809 24 13 24V23ZM5.03064 19.9303C2.85095 17.9257 1.5 15.1121 1.5 12H0.5C0.5 15.4104 1.98216 18.4853 4.35371 20.6663L5.03064 19.9303ZM9.4 16.1C6.84384 16.1 4.69 17.8465 4.20259 20.1968L5.18176 20.3999C5.56899 18.5326 7.29826 17.1 9.4 17.1V16.1Z" fill="#EC9E90"/>
</svg>
