<svg width="129" height="136" viewBox="0 0 129 136" fill="none" xmlns="http://www.w3.org/2000/svg">
<path fill-rule="evenodd" clip-rule="evenodd" d="M87.9928 21.084C87.8192 22.0523 87.5706 22.9862 87.2546 23.8807C87.6032 24.0901 87.9492 24.3038 88.2923 24.5218C88.8893 23.8084 89.5512 23.1371 90.277 22.5168C97.3166 16.5005 107.707 17.5661 113.484 24.8968C119.262 32.2276 118.238 43.0476 111.199 49.0639C110.472 49.6854 109.709 50.2312 108.919 50.7024C108.99 50.9064 109.061 51.111 109.13 51.3162C110.025 51.1595 110.945 51.0779 111.883 51.0779C120.99 51.0779 128.373 58.7658 128.373 68.2493C128.373 77.7328 120.99 85.4207 111.883 85.4207C110.945 85.4207 110.025 85.3391 109.13 85.1823C109.001 85.5658 108.867 85.9471 108.73 86.3263C109.514 86.8062 110.27 87.3602 110.99 87.9893C117.966 94.0853 118.876 104.916 113.022 112.181C107.168 119.446 96.7673 120.393 89.7911 114.297C89.0714 113.668 88.4163 112.989 87.8265 112.268C87.4877 112.478 87.1462 112.684 86.8022 112.886C87.1037 113.768 87.3397 114.688 87.5033 115.64C89.1068 124.975 83.1395 133.897 74.1749 135.567C65.2103 137.236 56.6431 131.022 55.0396 121.687C54.8711 120.706 54.7862 119.73 54.7796 118.766C54.3311 118.69 53.8846 118.608 53.4402 118.52C53.1209 119.403 52.7272 120.271 52.2567 121.114C47.6826 129.315 37.5908 132.101 29.7159 127.338C21.8411 122.575 19.1653 112.066 23.7394 103.865C24.217 103.009 24.7548 102.212 25.3439 101.476C25.1033 101.183 24.8659 100.886 24.6316 100.588C23.8387 101.055 22.9977 101.46 22.1125 101.794C13.5506 105.025 4.0943 100.417 0.991245 91.5007C-2.11181 82.5847 2.31346 72.7373 10.8754 69.5059C11.7708 69.168 12.6761 68.9158 13.5828 68.7453C13.5813 68.58 13.5805 68.4146 13.5805 68.2489C13.5805 67.9523 13.583 67.6563 13.5878 67.3609C12.6831 67.1834 11.7805 66.9242 10.8883 66.5796C2.3499 63.2813 -2.00422 53.3996 1.16306 44.5081C4.33035 35.6166 13.8196 31.0825 22.358 34.3807C23.2416 34.722 24.0803 35.1338 24.8706 35.6077C25.1039 35.3146 25.3403 35.0242 25.5797 34.7366C24.9956 33.9962 24.4634 33.1947 23.9917 32.3346C19.4758 24.0992 22.2259 13.6108 30.1342 8.9081C38.0425 4.20541 48.1144 7.06921 52.6303 15.3046C53.0949 16.1517 53.4825 17.0228 53.7956 17.9089C54.2924 17.8138 54.7919 17.7266 55.2938 17.6472C55.31 16.6998 55.4019 15.7411 55.5745 14.7786C57.2466 5.4563 65.8591 -0.689383 74.8112 1.05181C83.7633 2.793 89.6649 11.7617 87.9928 21.084Z" fill="#FF959F"/>
<mask id="path-2-inside-1_1305_45450" fill="white">
<path fill-rule="evenodd" clip-rule="evenodd" d="M87.634 22.6355C87.465 23.5778 87.2231 24.4868 86.9156 25.3573C87.2549 25.5611 87.5917 25.7692 87.9257 25.9814C88.5068 25.2872 89.1509 24.6338 89.8572 24.0301C96.7083 18.175 106.82 19.212 112.443 26.3464C118.065 33.4807 117.069 44.0108 110.218 49.8659C109.511 50.4707 108.768 51.002 107.999 51.4606C108.069 51.6592 108.138 51.8584 108.205 52.0582C109.076 51.9057 109.971 51.8262 110.885 51.8262C119.747 51.8262 126.932 59.3081 126.932 68.5375C126.932 77.7669 119.747 85.2488 110.885 85.2488C109.971 85.2488 109.076 85.1693 108.204 85.0167C108.079 85.3897 107.949 85.7607 107.815 86.1296C108.578 86.5965 109.314 87.1357 110.015 87.7478C116.804 93.6805 117.689 104.221 111.992 111.291C106.295 118.361 96.1729 119.283 89.3837 113.351C88.6834 112.739 88.046 112.078 87.472 111.376C87.1423 111.581 86.8099 111.781 86.4751 111.977C86.7685 112.836 86.9982 113.731 87.1574 114.658C88.718 123.743 82.9105 132.425 74.1861 134.05C65.4617 135.676 57.1242 129.628 55.5636 120.543C55.3997 119.588 55.317 118.638 55.3106 117.7C54.8742 117.627 54.4398 117.546 54.0075 117.46C53.6968 118.32 53.3136 119.165 52.8558 119.985C48.4042 127.966 38.5828 130.678 30.919 126.042C23.2552 121.407 20.6511 111.179 25.1026 103.198C25.5674 102.365 26.0906 101.589 26.6639 100.873C26.4298 100.588 26.1989 100.3 25.971 100.009C25.1994 100.464 24.3812 100.858 23.52 101.183C15.1875 104.327 5.98459 99.8426 2.96468 91.1655C-0.0552254 82.4884 4.25147 72.9049 12.584 69.7601C13.4551 69.4313 14.3357 69.1859 15.2178 69.02C15.2163 68.8591 15.2155 68.6979 15.2155 68.5366C15.2155 68.2481 15.2179 67.9601 15.2226 67.6727C14.3422 67.4999 13.4637 67.2477 12.5954 66.9123C4.28586 63.7024 0.0484136 54.0854 3.13083 45.4322C6.21325 36.779 15.4483 32.3663 23.7578 35.5762C24.6177 35.9083 25.4339 36.3091 26.2029 36.7702C26.4301 36.4849 26.6602 36.2022 26.8933 35.9222C26.325 35.2018 25.8071 34.4219 25.3482 33.585C20.9533 25.5703 23.6296 15.363 31.326 10.7863C39.0225 6.20958 48.8244 8.99664 53.2194 17.0113C53.6714 17.8357 54.0486 18.6832 54.3533 19.5454C54.8368 19.4529 55.3228 19.368 55.8112 19.2908C55.8269 18.3688 55.9164 17.4358 56.0844 16.4991C57.7116 7.42657 66.0934 1.44556 74.8056 3.1401C83.5178 4.83464 89.2613 13.563 87.634 22.6355Z"/>
</mask>
<path d="M86.9156 25.3573L85.998 25.0331L85.7332 25.7824L86.4145 26.1916L86.9156 25.3573ZM87.634 22.6355L86.6761 22.4637L87.634 22.6355ZM87.9257 25.9814L87.4039 26.8028L88.1242 27.2605L88.672 26.606L87.9257 25.9814ZM89.8572 24.0301L89.225 23.2903L89.8572 24.0301ZM112.443 26.3464L113.207 25.744V25.744L112.443 26.3464ZM110.218 49.8659L109.586 49.1261L109.586 49.1261L110.218 49.8659ZM107.999 51.4606L107.501 50.6249L106.818 51.0322L107.081 51.7825L107.999 51.4606ZM108.205 52.0582L107.282 52.3686L107.549 53.161L108.373 53.0168L108.205 52.0582ZM108.204 85.0167L108.372 84.0581L107.548 83.9139L107.282 84.7063L108.204 85.0167ZM107.815 86.1296L106.9 85.7978L106.629 86.5448L107.307 86.9597L107.815 86.1296ZM110.015 87.7478L110.655 87.015V87.015L110.015 87.7478ZM111.992 111.291L112.75 111.902L111.992 111.291ZM89.3837 113.351L88.7433 114.083H88.7433L89.3837 113.351ZM87.472 111.376L88.2251 110.76L87.6847 110.1L86.9595 110.549L87.472 111.376ZM86.4751 111.977L85.983 111.138L85.2971 111.54L85.5542 112.292L86.4751 111.977ZM87.1574 114.658L86.1983 114.823L87.1574 114.658ZM55.5636 120.543L54.6045 120.707L55.5636 120.543ZM55.3106 117.7L56.2838 117.694L56.2781 116.877L55.4731 116.741L55.3106 117.7ZM54.0075 117.46L54.1977 116.506L53.3768 116.342L53.0923 117.13L54.0075 117.46ZM52.8558 119.985L53.7057 120.46L52.8558 119.985ZM30.919 126.042L30.4153 126.875L30.919 126.042ZM25.1026 103.198L24.2527 102.724L25.1026 103.198ZM26.6639 100.873L27.4236 101.482L27.9165 100.866L27.4163 100.256L26.6639 100.873ZM25.971 100.009L26.737 99.409L26.2113 98.7382L25.477 99.1707L25.971 100.009ZM23.52 101.183L23.8637 102.093L23.52 101.183ZM2.96468 91.1655L2.04555 91.4854H2.04555L2.96468 91.1655ZM12.584 69.7601L12.2403 68.8496H12.2403L12.584 69.7601ZM15.2178 69.02L15.3977 69.9765L16.1984 69.8258L16.1909 69.0111L15.2178 69.02ZM15.2226 67.6727L16.1957 67.6886L16.209 66.8745L15.41 66.7177L15.2226 67.6727ZM12.5954 66.9123L12.9461 66.0044H12.9461L12.5954 66.9123ZM3.13083 45.4322L2.21405 45.1056H2.21405L3.13083 45.4322ZM23.7578 35.5762L24.1085 34.6684L23.7578 35.5762ZM26.2029 36.7702L25.7024 37.6049L26.4335 38.0433L26.9644 37.3763L26.2029 36.7702ZM26.8933 35.9222L27.6412 36.5449L28.1458 35.9388L27.6574 35.3195L26.8933 35.9222ZM25.3482 33.585L24.4949 34.0529L25.3482 33.585ZM31.326 10.7863L31.8235 11.6227L31.326 10.7863ZM53.2194 17.0113L52.3661 17.4793L53.2194 17.0113ZM54.3533 19.5454L53.4357 19.8696L53.7144 20.6585L54.5361 20.5013L54.3533 19.5454ZM55.8112 19.2908L55.9632 20.2521L56.7703 20.1245L56.7843 19.3074L55.8112 19.2908ZM56.0844 16.4991L55.1264 16.3272L55.1264 16.3272L56.0844 16.4991ZM74.8056 3.1401L74.9914 2.1848L74.8056 3.1401ZM87.8332 25.6815C88.1583 24.7614 88.4136 23.8015 88.5919 22.8073L86.6761 22.4637C86.5164 23.3542 86.288 24.2122 85.998 25.0331L87.8332 25.6815ZM88.4476 25.1599C88.1067 24.9434 87.763 24.731 87.4167 24.523L86.4145 26.1916C86.7468 26.3912 87.0767 26.595 87.4039 26.8028L88.4476 25.1599ZM88.672 26.606C89.2187 25.9528 89.8247 25.3381 90.4895 24.7699L89.225 23.2903C88.477 23.9295 87.7948 24.6215 87.1794 25.3568L88.672 26.606ZM90.4895 24.7699C96.9146 19.2789 106.393 20.2424 111.678 26.9488L113.207 25.744C107.247 18.1816 96.502 17.0711 89.225 23.2903L90.4895 24.7699ZM111.678 26.9488C116.982 33.6782 116.035 43.6148 109.586 49.1261L110.851 50.6057C118.104 44.4068 119.149 33.2833 113.207 25.744L111.678 26.9488ZM109.586 49.1261C108.92 49.6953 108.222 50.1945 107.501 50.6249L108.498 52.2964C109.314 51.8096 110.101 51.2462 110.851 50.6057L109.586 49.1261ZM109.127 51.7478C109.059 51.5442 108.989 51.3412 108.918 51.1388L107.081 51.7825C107.149 51.9773 107.216 52.1726 107.282 52.3686L109.127 51.7478ZM110.885 50.853C109.915 50.853 108.963 50.9374 108.037 51.0996L108.373 53.0168C109.189 52.8739 110.028 52.7994 110.885 52.7994V50.853ZM127.905 68.5375C127.905 58.8082 120.322 50.853 110.885 50.853V52.7994C119.173 52.7994 125.959 59.8081 125.959 68.5375H127.905ZM110.885 86.222C120.322 86.222 127.905 78.2668 127.905 68.5375H125.959C125.959 77.267 119.173 84.2756 110.885 84.2756V86.222ZM108.036 85.9753C108.963 86.1376 109.915 86.222 110.885 86.222V84.2756C110.028 84.2756 109.189 84.2011 108.372 84.0581L108.036 85.9753ZM108.73 86.4613C108.866 86.0854 108.999 85.7073 109.127 85.3271L107.282 84.7063C107.159 85.0722 107.031 85.436 106.9 85.7978L108.73 86.4613ZM110.655 87.015C109.913 86.3669 109.133 85.7952 108.323 85.2995L107.307 86.9597C108.023 87.3979 108.715 87.9045 109.374 88.4807L110.655 87.015ZM112.75 111.902C118.771 104.43 117.842 93.2954 110.655 87.015L109.374 88.4807C115.766 94.0656 116.608 104.013 111.234 110.681L112.75 111.902ZM88.7433 114.083C95.9539 120.384 106.71 119.397 112.75 111.902L111.234 110.681C105.88 117.326 96.392 118.182 90.0241 112.618L88.7433 114.083ZM86.719 111.993C87.3268 112.735 88.0019 113.435 88.7433 114.083L90.0241 112.618C89.365 112.042 88.7651 111.42 88.2251 110.76L86.719 111.993ZM86.9672 112.817C87.3089 112.617 87.648 112.412 87.9846 112.204L86.9595 110.549C86.6365 110.749 86.311 110.945 85.983 111.138L86.9672 112.817ZM88.1166 114.493C87.9486 113.515 87.7061 112.57 87.396 111.663L85.5542 112.292C85.8309 113.102 86.0478 113.947 86.1983 114.823L88.1166 114.493ZM74.3643 135.007C83.6451 133.278 89.7614 124.069 88.1166 114.493L86.1983 114.823C87.6746 123.417 82.1759 131.572 74.0079 133.094L74.3643 135.007ZM54.6045 120.707C56.2508 130.292 65.0716 136.738 74.3643 135.007L74.0079 133.094C65.8519 134.613 57.9975 128.964 56.5228 120.378L54.6045 120.707ZM54.3374 117.707C54.3442 118.698 54.4315 119.701 54.6045 120.707L56.5228 120.378C56.3678 119.476 56.2899 118.579 56.2838 117.694L54.3374 117.707ZM53.8174 118.415C54.2588 118.503 54.7024 118.585 55.148 118.66L55.4731 116.741C55.046 116.669 54.6208 116.59 54.1977 116.506L53.8174 118.415ZM53.7057 120.46C54.1894 119.592 54.5943 118.7 54.9228 117.791L53.0923 117.13C52.7992 117.94 52.4378 118.737 52.0058 119.511L53.7057 120.46ZM30.4153 126.875C38.567 131.806 48.9953 128.904 53.7057 120.46L52.0058 119.511C47.8132 127.028 38.5986 129.55 31.4227 125.21L30.4153 126.875ZM24.2527 102.724C19.5544 111.147 22.2881 121.959 30.4153 126.875L31.4227 125.21C24.2222 120.854 21.7478 111.211 25.9525 103.672L24.2527 102.724ZM25.9042 100.265C25.2971 101.023 24.7437 101.844 24.2527 102.724L25.9525 103.672C26.391 102.886 26.8842 102.155 27.4236 101.482L25.9042 100.265ZM25.205 100.61C25.4373 100.906 25.6728 101.2 25.9114 101.491L27.4163 100.256C27.1869 99.9765 26.9604 99.6941 26.737 99.409L25.205 100.61ZM23.8637 102.093C24.7774 101.748 25.6459 101.33 26.4649 100.848L25.477 99.1707C24.753 99.5972 23.985 99.9669 23.1764 100.272L23.8637 102.093ZM2.04555 91.4854C5.23555 100.651 14.9915 105.442 23.8637 102.093L23.1764 100.272C15.3836 103.213 6.73363 99.034 3.88381 90.8456L2.04555 91.4854ZM12.2403 68.8496C3.3887 72.1903 -1.1387 82.3361 2.04555 91.4854L3.88381 90.8456C1.02825 82.6407 5.11425 73.6195 12.9276 70.6706L12.2403 68.8496ZM15.0378 68.0636C14.1 68.24 13.1646 68.5007 12.2403 68.8496L12.9276 70.6706C13.7455 70.3619 14.5714 70.1319 15.3977 69.9765L15.0378 68.0636ZM14.2423 68.5366C14.2423 68.7009 14.2431 68.865 14.2446 69.0289L16.1909 69.0111C16.1895 68.8531 16.1888 68.695 16.1888 68.5366H14.2423ZM14.2495 67.6568C14.2447 67.9495 14.2423 68.2428 14.2423 68.5366H16.1888C16.1888 68.2534 16.1911 67.9707 16.1957 67.6886L14.2495 67.6568ZM12.2447 67.8201C13.166 68.176 14.0991 68.4439 15.0352 68.6277L15.41 66.7177C14.5853 66.5558 13.7615 66.3194 12.9461 66.0044L12.2447 67.8201ZM2.21405 45.1056C-1.0362 54.23 3.41807 64.4104 12.2447 67.8201L12.9461 66.0044C5.15365 62.9943 1.13303 53.9408 4.04761 45.7588L2.21405 45.1056ZM24.1085 34.6684C15.261 31.2507 5.4703 35.9644 2.21405 45.1056L4.04761 45.7588C6.9562 37.5935 15.6355 33.4819 23.4072 36.484L24.1085 34.6684ZM26.7034 35.9356C25.8871 35.4461 25.0208 35.0208 24.1085 34.6684L23.4072 36.484C24.2146 36.7959 24.9807 37.1721 25.7024 37.6049L26.7034 35.9356ZM26.1453 35.2996C25.9077 35.585 25.673 35.8732 25.4415 36.1642L26.9644 37.3763C27.1871 37.0965 27.4127 36.8194 27.6412 36.5449L26.1453 35.2996ZM24.4949 34.0529C24.9797 34.937 25.5274 35.762 26.1291 36.5249L27.6574 35.3195C27.1226 34.6415 26.6345 33.9067 26.2015 33.1171L24.4949 34.0529ZM30.8286 9.94978C22.6663 14.8035 19.8565 25.5943 24.4949 34.0529L26.2015 33.1171C22.05 25.5462 24.593 15.9224 31.8235 11.6227L30.8286 9.94978ZM54.0727 16.5434C49.4226 8.0633 39.0155 5.08145 30.8286 9.94978L31.8235 11.6227C39.0294 7.3377 48.2263 9.92998 52.3661 17.4793L54.0727 16.5434ZM55.2709 19.2212C54.9489 18.3099 54.5502 17.4142 54.0727 16.5434L52.3661 17.4793C52.7926 18.2571 53.1484 19.0565 53.4357 19.8696L55.2709 19.2212ZM55.6592 18.3296C55.1605 18.4084 54.6642 18.4951 54.1705 18.5895L54.5361 20.5013C55.0093 20.4108 55.4851 20.3277 55.9632 20.2521L55.6592 18.3296ZM55.1264 16.3272C54.9492 17.3155 54.8547 18.3004 54.8381 19.2742L56.7843 19.3074C56.7991 18.4372 56.8835 17.5561 57.0423 16.6709L55.1264 16.3272ZM74.9914 2.1848C65.7117 0.379876 56.8432 6.75544 55.1264 16.3272L57.0423 16.6709C58.58 8.0977 66.4751 2.51125 74.6198 4.0954L74.9914 2.1848ZM88.5919 22.8073C90.307 13.245 84.2587 3.98731 74.9914 2.1848L74.6198 4.0954C82.7768 5.68197 88.2155 13.8811 86.6761 22.4637L88.5919 22.8073Z" fill="white" mask="url(#path-2-inside-1_1305_45450)"/>
<path d="M45.925 55.71C45.925 56.634 45.6977 57.4333 45.243 58.108C44.7884 58.7827 44.1284 59.3033 43.263 59.67C42.4124 60.0367 41.393 60.22 40.205 60.22C39.633 60.22 39.083 60.1833 38.555 60.11C38.0417 60.0513 37.5504 59.956 37.081 59.824C36.6264 59.692 36.201 59.5307 35.805 59.34V56.7C36.465 56.9933 37.191 57.2647 37.983 57.514C38.775 57.7487 39.5817 57.866 40.403 57.866C41.0337 57.866 41.547 57.7853 41.943 57.624C42.3537 57.448 42.6544 57.2133 42.845 56.92C43.0357 56.612 43.131 56.26 43.131 55.864C43.131 55.424 43.0064 55.05 42.757 54.742C42.5077 54.434 42.141 54.148 41.657 53.884C41.173 53.62 40.5717 53.3413 39.853 53.048C39.369 52.8427 38.8924 52.6153 38.423 52.366C37.9684 52.102 37.5577 51.7867 37.191 51.42C36.8244 51.0533 36.531 50.6207 36.311 50.122C36.091 49.6233 35.981 49.0367 35.981 48.362C35.981 47.4673 36.1937 46.6973 36.619 46.052C37.059 45.4067 37.6677 44.9153 38.445 44.578C39.237 44.2407 40.1537 44.072 41.195 44.072C42.031 44.072 42.8157 44.16 43.549 44.336C44.2824 44.512 45.0084 44.7613 45.727 45.084L44.825 47.35C44.1797 47.0713 43.5564 46.8513 42.955 46.69C42.3537 46.5287 41.7377 46.448 41.107 46.448C40.6084 46.448 40.183 46.5287 39.831 46.69C39.479 46.8367 39.215 47.0493 39.039 47.328C38.863 47.6067 38.775 47.9293 38.775 48.296C38.775 48.7213 38.885 49.0807 39.105 49.374C39.325 49.6673 39.6624 49.946 40.117 50.21C40.5864 50.4593 41.1877 50.7453 41.921 51.068C42.7717 51.4347 43.4904 51.816 44.077 52.212C44.6637 52.608 45.1184 53.0847 45.441 53.642C45.7637 54.1993 45.925 54.8887 45.925 55.71ZM53.4447 60.22C52.3154 60.22 51.3327 60.0073 50.4967 59.582C49.6754 59.142 49.0374 58.4747 48.5827 57.58C48.1427 56.6707 47.9227 55.512 47.9227 54.104C47.9227 52.6373 48.1647 51.4493 48.6487 50.54C49.1474 49.616 49.8294 48.9413 50.6947 48.516C51.5601 48.076 52.5501 47.856 53.6647 47.856C54.4127 47.856 55.0801 47.9293 55.6667 48.076C56.2534 48.2227 56.7521 48.3987 57.1627 48.604L56.3487 50.782C55.8941 50.606 55.4394 50.4593 54.9847 50.342C54.5301 50.21 54.0901 50.144 53.6647 50.144C53.0047 50.144 52.4547 50.2907 52.0147 50.584C51.5894 50.8773 51.2741 51.3173 51.0687 51.904C50.8634 52.476 50.7607 53.202 50.7607 54.082C50.7607 54.9327 50.8634 55.644 51.0687 56.216C51.2887 56.788 51.6114 57.2207 52.0367 57.514C52.4621 57.7927 52.9901 57.932 53.6207 57.932C54.2954 57.932 54.8894 57.8513 55.4027 57.69C55.9161 57.5287 56.4001 57.3087 56.8547 57.03V59.428C56.4001 59.7067 55.9087 59.9047 55.3807 60.022C54.8674 60.154 54.2221 60.22 53.4447 60.22ZM65.8962 47.856C66.0722 47.856 66.2775 47.8633 66.5122 47.878C66.7469 47.8927 66.9449 47.922 67.1062 47.966L66.8642 50.54C66.7322 50.5107 66.5562 50.4887 66.3362 50.474C66.1309 50.4447 65.9475 50.43 65.7862 50.43C65.3462 50.43 64.9209 50.5033 64.5102 50.65C64.1142 50.782 63.7549 50.9873 63.4322 51.266C63.1242 51.53 62.8749 51.8747 62.6842 52.3C62.5082 52.7253 62.4202 53.2313 62.4202 53.818V60H59.6482V48.076H61.7822L62.1782 50.144H62.3102C62.5449 49.7187 62.8382 49.3373 63.1902 49C63.5422 48.648 63.9455 48.3693 64.4002 48.164C64.8695 47.9587 65.3682 47.856 65.8962 47.856ZM79.5345 54.016C79.5345 55.0133 79.4025 55.8933 79.1385 56.656C78.8745 57.4187 78.4932 58.0713 77.9945 58.614C77.5105 59.142 76.9092 59.5453 76.1905 59.824C75.4865 60.088 74.7018 60.22 73.8365 60.22C73.0152 60.22 72.2598 60.088 71.5705 59.824C70.8812 59.5453 70.2798 59.142 69.7665 58.614C69.2678 58.0713 68.8792 57.4187 68.6005 56.656C68.3218 55.8933 68.1825 55.0133 68.1825 54.016C68.1825 52.696 68.4098 51.5813 68.8645 50.672C69.3192 49.748 69.9718 49.0513 70.8225 48.582C71.6878 48.098 72.7072 47.856 73.8805 47.856C74.9952 47.856 75.9705 48.098 76.8065 48.582C77.6572 49.0513 78.3245 49.748 78.8085 50.672C79.2925 51.5813 79.5345 52.696 79.5345 54.016ZM71.0205 54.016C71.0205 54.852 71.1158 55.5707 71.3065 56.172C71.5118 56.7587 71.8198 57.206 72.2305 57.514C72.6558 57.822 73.1985 57.976 73.8585 57.976C74.5332 57.976 75.0758 57.822 75.4865 57.514C75.9118 57.206 76.2198 56.7587 76.4105 56.172C76.6012 55.5707 76.6965 54.852 76.6965 54.016C76.6965 53.1653 76.5938 52.454 76.3885 51.882C76.1978 51.2953 75.8898 50.8553 75.4645 50.562C75.0538 50.254 74.5185 50.1 73.8585 50.1C72.8612 50.1 72.1352 50.4373 71.6805 51.112C71.2405 51.7867 71.0205 52.7547 71.0205 54.016ZM85.1722 60H82.4002V43.28H85.1722V60ZM91.4886 60H88.7166V43.28H91.4886V60ZM48.0639 84.992C48.0639 86.752 47.7266 88.226 47.0519 89.414C46.3919 90.602 45.4313 91.4967 44.1699 92.098C42.9233 92.6993 41.4126 93 39.6379 93H35.2159V77.292H40.0999C41.7279 77.292 43.1359 77.5853 44.3239 78.172C45.5119 78.7587 46.4286 79.624 47.0739 80.768C47.7339 81.8973 48.0639 83.3053 48.0639 84.992ZM45.1159 85.08C45.1159 83.8333 44.9253 82.8067 44.5439 82C44.1626 81.1933 43.5979 80.5993 42.8499 80.218C42.1019 79.822 41.1853 79.624 40.0999 79.624H38.0319V90.646H39.7259C41.5446 90.646 42.8939 90.184 43.7739 89.26C44.6686 88.3213 45.1159 86.928 45.1159 85.08ZM61.7991 87.016C61.7991 88.0133 61.6671 88.8933 61.4031 89.656C61.1391 90.4187 60.7578 91.0713 60.2591 91.614C59.7751 92.142 59.1738 92.5453 58.4551 92.824C57.7511 93.088 56.9665 93.22 56.1011 93.22C55.2798 93.22 54.5245 93.088 53.8351 92.824C53.1458 92.5453 52.5445 92.142 52.0311 91.614C51.5325 91.0713 51.1438 90.4187 50.8651 89.656C50.5865 88.8933 50.4471 88.0133 50.4471 87.016C50.4471 85.696 50.6745 84.5813 51.1291 83.672C51.5838 82.748 52.2365 82.0513 53.0871 81.582C53.9525 81.098 54.9718 80.856 56.1451 80.856C57.2598 80.856 58.2351 81.098 59.0711 81.582C59.9218 82.0513 60.5891 82.748 61.0731 83.672C61.5571 84.5813 61.7991 85.696 61.7991 87.016ZM53.2851 87.016C53.2851 87.852 53.3805 88.5707 53.5711 89.172C53.7765 89.7587 54.0845 90.206 54.4951 90.514C54.9205 90.822 55.4631 90.976 56.1231 90.976C56.7978 90.976 57.3405 90.822 57.7511 90.514C58.1765 90.206 58.4845 89.7587 58.6751 89.172C58.8658 88.5707 58.9611 87.852 58.9611 87.016C58.9611 86.1653 58.8585 85.454 58.6531 84.882C58.4625 84.2953 58.1545 83.8553 57.7291 83.562C57.3185 83.254 56.7831 83.1 56.1231 83.1C55.1258 83.1 54.3998 83.4373 53.9451 84.112C53.5051 84.7867 53.2851 85.7547 53.2851 87.016ZM72.6831 87.874C72.6098 87.5953 72.5218 87.2507 72.4191 86.84C72.3165 86.4147 72.2065 85.9747 72.0891 85.52C71.9865 85.0653 71.8838 84.6473 71.7811 84.266C71.6931 83.8847 71.6345 83.5913 71.6051 83.386H71.5171C71.4731 83.5913 71.4071 83.8847 71.3191 84.266C71.2311 84.6473 71.1358 85.0653 71.0331 85.52C70.9305 85.9747 70.8205 86.4147 70.7031 86.84C70.6005 87.2653 70.5125 87.6173 70.4391 87.896L69.0531 93H66.0171L62.6731 81.054H65.4671L66.9411 86.752C67.0438 87.1333 67.1391 87.566 67.2271 88.05C67.3298 88.534 67.4178 89.0033 67.4911 89.458C67.5645 89.898 67.6158 90.2573 67.6451 90.536H67.7331C67.7625 90.3453 67.7991 90.096 67.8431 89.788C67.8871 89.4653 67.9385 89.1353 67.9971 88.798C68.0705 88.446 68.1365 88.1233 68.1951 87.83C68.2685 87.5367 68.3271 87.3093 68.3711 87.148L70.0871 81.054H73.1231L74.7731 87.148C74.8465 87.412 74.9271 87.7567 75.0151 88.182C75.1031 88.6073 75.1838 89.0327 75.2571 89.458C75.3305 89.8833 75.3745 90.2353 75.3891 90.514H75.4771C75.5065 90.2647 75.5578 89.9273 75.6311 89.502C75.7045 89.062 75.7925 88.5927 75.8951 88.094C75.9978 87.5953 76.1078 87.148 76.2251 86.752L77.7211 81.054H80.4711L77.0831 93H74.0031L72.6831 87.874ZM88.8768 80.856C90.2115 80.856 91.2528 81.2007 92.0008 81.89C92.7635 82.5793 93.1448 83.694 93.1448 85.234V93H90.3728V85.784C90.3728 84.8893 90.1968 84.222 89.8448 83.782C89.4928 83.3273 88.9355 83.1 88.1728 83.1C87.0582 83.1 86.2955 83.452 85.8848 84.156C85.4742 84.8453 85.2688 85.85 85.2688 87.17V93H82.4968V81.076H84.6308L85.0268 82.638H85.1808C85.4448 82.2273 85.7675 81.89 86.1488 81.626C86.5302 81.362 86.9555 81.1713 87.4248 81.054C87.8942 80.922 88.3782 80.856 88.8768 80.856Z" fill="white"/>
</svg>
