<svg width="129" height="136" viewBox="0 0 129 136" fill="none" xmlns="http://www.w3.org/2000/svg">
<path fill-rule="evenodd" clip-rule="evenodd" d="M87.9928 21.084C87.8192 22.0523 87.5706 22.9862 87.2546 23.8807C87.6032 24.0901 87.9492 24.3038 88.2923 24.5218C88.8893 23.8084 89.5512 23.1371 90.277 22.5168C97.3166 16.5005 107.707 17.5661 113.484 24.8968C119.262 32.2276 118.238 43.0476 111.199 49.0639C110.472 49.6854 109.709 50.2312 108.919 50.7024C108.99 50.9064 109.061 51.111 109.13 51.3162C110.025 51.1595 110.945 51.0779 111.883 51.0779C120.99 51.0779 128.373 58.7658 128.373 68.2493C128.373 77.7328 120.99 85.4207 111.883 85.4207C110.945 85.4207 110.025 85.3391 109.13 85.1823C109.001 85.5658 108.867 85.9471 108.73 86.3263C109.514 86.8062 110.27 87.3602 110.99 87.9893C117.966 94.0853 118.876 104.916 113.022 112.181C107.168 119.446 96.7673 120.393 89.7911 114.297C89.0714 113.668 88.4163 112.989 87.8265 112.268C87.4877 112.478 87.1462 112.684 86.8022 112.886C87.1037 113.768 87.3397 114.688 87.5033 115.64C89.1068 124.975 83.1395 133.897 74.1749 135.567C65.2103 137.236 56.6431 131.022 55.0396 121.687C54.8711 120.706 54.7862 119.73 54.7796 118.766C54.3311 118.69 53.8846 118.608 53.4402 118.52C53.1209 119.403 52.7272 120.271 52.2567 121.114C47.6826 129.315 37.5908 132.101 29.7159 127.338C21.8411 122.575 19.1653 112.066 23.7394 103.865C24.217 103.009 24.7548 102.212 25.3439 101.476C25.1033 101.183 24.8659 100.886 24.6316 100.588C23.8387 101.055 22.9977 101.46 22.1125 101.794C13.5506 105.025 4.0943 100.417 0.991245 91.5007C-2.11181 82.5847 2.31346 72.7373 10.8754 69.5059C11.7708 69.168 12.6761 68.9158 13.5828 68.7453C13.5813 68.58 13.5805 68.4146 13.5805 68.2489C13.5805 67.9523 13.583 67.6563 13.5878 67.3609C12.6831 67.1834 11.7805 66.9242 10.8883 66.5796C2.3499 63.2813 -2.00422 53.3996 1.16306 44.5081C4.33035 35.6166 13.8196 31.0825 22.358 34.3807C23.2416 34.722 24.0803 35.1338 24.8706 35.6077C25.1039 35.3146 25.3403 35.0242 25.5797 34.7366C24.9956 33.9962 24.4634 33.1947 23.9917 32.3346C19.4758 24.0992 22.2259 13.6108 30.1342 8.9081C38.0425 4.20541 48.1144 7.0692 52.6303 15.3046C53.0949 16.1517 53.4825 17.0228 53.7956 17.9089C54.2924 17.8138 54.7919 17.7266 55.2938 17.6472C55.31 16.6998 55.4019 15.7411 55.5745 14.7786C57.2466 5.4563 65.8591 -0.689383 74.8112 1.05181C83.7633 2.79301 89.6649 11.7617 87.9928 21.084Z" fill="#FF959F"/>
<mask id="path-2-inside-1_2409_4007" fill="white">
<path fill-rule="evenodd" clip-rule="evenodd" d="M87.634 22.6355C87.465 23.5778 87.2231 24.4868 86.9156 25.3573C87.2549 25.5611 87.5917 25.7692 87.9257 25.9814C88.5068 25.2872 89.1509 24.6338 89.8572 24.0301C96.7083 18.175 106.82 19.212 112.443 26.3464C118.065 33.4807 117.069 44.0108 110.218 49.8659C109.511 50.4707 108.768 51.002 107.999 51.4606C108.069 51.6592 108.138 51.8584 108.205 52.0582C109.076 51.9057 109.971 51.8262 110.885 51.8262C119.747 51.8262 126.932 59.3081 126.932 68.5375C126.932 77.7669 119.747 85.2488 110.885 85.2488C109.971 85.2488 109.076 85.1693 108.204 85.0167C108.079 85.3897 107.949 85.7607 107.815 86.1296C108.578 86.5965 109.314 87.1357 110.015 87.7478C116.804 93.6805 117.689 104.221 111.992 111.291C106.295 118.361 96.1729 119.283 89.3837 113.351C88.6834 112.739 88.0459 112.078 87.472 111.377C87.1423 111.581 86.8099 111.781 86.4751 111.977C86.7685 112.836 86.9982 113.731 87.1574 114.658C88.718 123.743 82.9105 132.425 74.1861 134.05C65.4617 135.676 57.1242 129.628 55.5636 120.543C55.3997 119.588 55.317 118.638 55.3106 117.7C54.8742 117.627 54.4398 117.546 54.0075 117.46C53.6968 118.32 53.3136 119.165 52.8558 119.985C48.4042 127.966 38.5828 130.678 30.919 126.042C23.2552 121.407 20.6511 111.179 25.1026 103.198C25.5674 102.365 26.0906 101.589 26.6639 100.873C26.4298 100.588 26.1988 100.3 25.971 100.009C25.1994 100.464 24.3812 100.858 23.52 101.183C15.1875 104.327 5.98459 99.8426 2.96468 91.1655C-0.0552253 82.4884 4.25147 72.9049 12.584 69.7601C13.4551 69.4313 14.3357 69.186 15.2178 69.02C15.2163 68.8591 15.2155 68.6979 15.2155 68.5366C15.2155 68.2481 15.2179 67.9601 15.2226 67.6727C14.3422 67.4999 13.4637 67.2477 12.5954 66.9123C4.28586 63.7024 0.0484137 54.0854 3.13083 45.4322C6.21325 36.779 15.4483 32.3663 23.7578 35.5762C24.6177 35.9083 25.4339 36.3091 26.2029 36.7702C26.4301 36.4849 26.6602 36.2022 26.8933 35.9222C26.325 35.2018 25.8071 34.4219 25.3482 33.585C20.9533 25.5703 23.6296 15.363 31.326 10.7863C39.0225 6.20958 48.8244 8.99664 53.2194 17.0113C53.6714 17.8357 54.0486 18.6832 54.3533 19.5454C54.8368 19.4529 55.3228 19.368 55.8112 19.2908C55.8269 18.3688 55.9164 17.4358 56.0844 16.4991C57.7116 7.42657 66.0934 1.44556 74.8056 3.1401C83.5178 4.83464 89.2613 13.563 87.634 22.6355Z"/>
</mask>
<path d="M86.9156 25.3573L85.998 25.0331L85.7332 25.7824L86.4145 26.1916L86.9156 25.3573ZM87.634 22.6355L86.6761 22.4637L87.634 22.6355ZM87.9257 25.9814L87.4039 26.8028L88.1242 27.2605L88.672 26.606L87.9257 25.9814ZM89.8572 24.0301L89.225 23.2903H89.2249L89.8572 24.0301ZM112.443 26.3464L113.207 25.744L112.443 26.3464ZM110.218 49.8659L109.586 49.1261L109.586 49.1261L110.218 49.8659ZM107.999 51.4606L107.501 50.6249L106.818 51.0322L107.081 51.7825L107.999 51.4606ZM108.205 52.0582L107.282 52.3686L107.549 53.161L108.373 53.0168L108.205 52.0582ZM108.204 85.0167L108.372 84.0581L107.548 83.9139L107.282 84.7063L108.204 85.0167ZM107.815 86.1296L106.9 85.7978L106.629 86.5448L107.307 86.9596L107.815 86.1296ZM110.015 87.7478L110.655 87.015L110.015 87.7478ZM111.992 111.291L112.75 111.902L111.992 111.291ZM89.3837 113.351L88.7433 114.083H88.7433L89.3837 113.351ZM87.472 111.377L88.2251 110.76L87.6847 110.1L86.9595 110.549L87.472 111.377ZM86.4751 111.977L85.983 111.138L85.2971 111.54L85.5542 112.292L86.4751 111.977ZM87.1574 114.658L86.1983 114.823L87.1574 114.658ZM74.1861 134.05L74.0079 133.094L74.1861 134.05ZM55.5636 120.543L54.6045 120.707L55.5636 120.543ZM55.3106 117.7L56.2838 117.694L56.2781 116.877L55.4731 116.741L55.3106 117.7ZM54.0075 117.46L54.1977 116.506L53.3768 116.342L53.0922 117.13L54.0075 117.46ZM52.8558 119.985L52.0058 119.511L52.8558 119.985ZM30.919 126.042L30.4153 126.875L30.919 126.042ZM25.1026 103.198L25.9525 103.672H25.9525L25.1026 103.198ZM26.6639 100.873L27.4236 101.482L27.9165 100.866L27.4163 100.256L26.6639 100.873ZM25.971 100.009L26.737 99.409L26.2113 98.7382L25.477 99.1707L25.971 100.009ZM23.52 101.183L23.8637 102.093L23.52 101.183ZM2.96468 91.1655L2.04555 91.4854H2.04555L2.96468 91.1655ZM12.584 69.7601L12.9276 70.6706H12.9276L12.584 69.7601ZM15.2178 69.02L15.3977 69.9765L16.1984 69.8258L16.1909 69.0111L15.2178 69.02ZM15.2226 67.6727L16.1957 67.6886L16.209 66.8745L15.41 66.7177L15.2226 67.6727ZM12.5954 66.9123L12.9461 66.0044H12.9461L12.5954 66.9123ZM23.7578 35.5762L24.1085 34.6684V34.6684L23.7578 35.5762ZM26.2029 36.7702L25.7024 37.6049L26.4335 38.0433L26.9644 37.3763L26.2029 36.7702ZM26.8933 35.9222L27.6412 36.5449L28.1458 35.9388L27.6574 35.3195L26.8933 35.9222ZM25.3482 33.585L24.4949 34.0529L25.3482 33.585ZM31.326 10.7863L31.8235 11.6227L31.326 10.7863ZM53.2194 17.0113L52.3661 17.4793V17.4793L53.2194 17.0113ZM54.3533 19.5454L53.4357 19.8696L53.7144 20.6585L54.5361 20.5013L54.3533 19.5454ZM55.8112 19.2908L55.9632 20.2521L56.7703 20.1245L56.7843 19.3074L55.8112 19.2908ZM56.0844 16.4991L55.1264 16.3272L55.1264 16.3272L56.0844 16.4991ZM74.8056 3.1401L74.9914 2.1848L74.8056 3.1401ZM87.8332 25.6815C88.1583 24.7614 88.4136 23.8015 88.5919 22.8073L86.6761 22.4637C86.5164 23.3542 86.288 24.2122 85.998 25.0331L87.8332 25.6815ZM88.4476 25.1599C88.1067 24.9434 87.763 24.731 87.4167 24.523L86.4145 26.1916C86.7468 26.3912 87.0767 26.595 87.4039 26.8028L88.4476 25.1599ZM88.672 26.606C89.2187 25.9528 89.8247 25.3381 90.4895 24.7699L89.2249 23.2903C88.477 23.9295 87.7948 24.6215 87.1794 25.3568L88.672 26.606ZM90.4895 24.7699C96.9146 19.2789 106.393 20.2424 111.678 26.9488L113.207 25.744C107.247 18.1816 96.502 17.0711 89.225 23.2903L90.4895 24.7699ZM111.678 26.9488C116.982 33.6782 116.035 43.6148 109.586 49.1261L110.851 50.6057C118.104 44.4067 119.149 33.2833 113.207 25.744L111.678 26.9488ZM109.586 49.1261C108.92 49.6953 108.222 50.1945 107.501 50.6249L108.498 52.2964C109.314 51.8096 110.101 51.2462 110.851 50.6057L109.586 49.1261ZM109.127 51.7478C109.059 51.5442 108.989 51.3412 108.918 51.1388L107.081 51.7825C107.149 51.9773 107.216 52.1726 107.282 52.3686L109.127 51.7478ZM110.885 50.853C109.915 50.853 108.963 50.9374 108.037 51.0996L108.373 53.0168C109.189 52.8739 110.028 52.7994 110.885 52.7994V50.853ZM127.905 68.5375C127.905 58.8082 120.322 50.853 110.885 50.853V52.7994C119.173 52.7994 125.959 59.8081 125.959 68.5375H127.905ZM110.885 86.222C120.322 86.222 127.905 78.2668 127.905 68.5375H125.959C125.959 77.267 119.173 84.2756 110.885 84.2756V86.222ZM108.036 85.9753C108.963 86.1376 109.915 86.222 110.885 86.222V84.2756C110.028 84.2756 109.189 84.2011 108.372 84.0581L108.036 85.9753ZM108.73 86.4613C108.866 86.0854 108.999 85.7073 109.127 85.3271L107.282 84.7063C107.159 85.0722 107.031 85.436 106.9 85.7978L108.73 86.4613ZM110.655 87.015C109.913 86.3669 109.133 85.7952 108.323 85.2995L107.307 86.9596C108.023 87.3979 108.715 87.9045 109.374 88.4807L110.655 87.015ZM112.75 111.902C118.771 104.43 117.842 93.2954 110.655 87.015L109.374 88.4807C115.766 94.0656 116.608 104.013 111.234 110.681L112.75 111.902ZM88.7433 114.083C95.9539 120.384 106.71 119.397 112.75 111.902L111.234 110.681C105.88 117.326 96.392 118.182 90.0241 112.618L88.7433 114.083ZM86.7189 111.993C87.3268 112.735 88.0019 113.435 88.7433 114.083L90.0241 112.618C89.365 112.042 88.7651 111.42 88.2251 110.76L86.7189 111.993ZM86.9672 112.817C87.3089 112.617 87.648 112.412 87.9846 112.204L86.9595 110.549C86.6365 110.749 86.311 110.945 85.983 111.138L86.9672 112.817ZM88.1166 114.493C87.9486 113.515 87.7061 112.57 87.396 111.663L85.5542 112.292C85.8309 113.102 86.0478 113.947 86.1983 114.823L88.1166 114.493ZM74.3643 135.007C83.6451 133.278 89.7614 124.069 88.1166 114.493L86.1983 114.823C87.6746 123.417 82.1759 131.572 74.0079 133.094L74.3643 135.007ZM54.6045 120.707C56.2508 130.292 65.0716 136.738 74.3643 135.007L74.0079 133.094C65.8519 134.613 57.9975 128.964 56.5228 120.378L54.6045 120.707ZM54.3374 117.707C54.3442 118.698 54.4315 119.701 54.6045 120.707L56.5228 120.378C56.3678 119.476 56.2899 118.579 56.2838 117.694L54.3374 117.707ZM53.8174 118.415C54.2588 118.503 54.7024 118.585 55.148 118.66L55.4731 116.741C55.046 116.669 54.6208 116.59 54.1977 116.506L53.8174 118.415ZM53.7057 120.46C54.1894 119.592 54.5943 118.7 54.9228 117.791L53.0922 117.13C52.7992 117.94 52.4378 118.737 52.0058 119.511L53.7057 120.46ZM30.4153 126.875C38.567 131.806 48.9953 128.904 53.7057 120.46L52.0058 119.511C47.8132 127.028 38.5986 129.55 31.4227 125.21L30.4153 126.875ZM24.2527 102.724C19.5544 111.147 22.2881 121.959 30.4153 126.875L31.4227 125.21C24.2222 120.854 21.7478 111.211 25.9525 103.672L24.2527 102.724ZM25.9042 100.265C25.2971 101.023 24.7437 101.844 24.2527 102.724L25.9525 103.672C26.391 102.886 26.8842 102.155 27.4236 101.482L25.9042 100.265ZM25.2049 100.61C25.4373 100.906 25.6728 101.2 25.9114 101.491L27.4163 100.256C27.1869 99.9765 26.9604 99.6941 26.737 99.409L25.2049 100.61ZM23.8637 102.093C24.7774 101.748 25.6459 101.33 26.4649 100.848L25.477 99.1707C24.753 99.5972 23.985 99.9669 23.1764 100.272L23.8637 102.093ZM2.04555 91.4854C5.23555 100.651 14.9915 105.442 23.8637 102.093L23.1764 100.272C15.3836 103.213 6.73363 99.034 3.88381 90.8456L2.04555 91.4854ZM12.2403 68.8496C3.3887 72.1903 -1.1387 82.3361 2.04555 91.4854L3.88381 90.8456C1.02825 82.6407 5.11425 73.6195 12.9276 70.6706L12.2403 68.8496ZM15.0378 68.0636C14.1 68.24 13.1646 68.5007 12.2403 68.8496L12.9276 70.6706C13.7455 70.3619 14.5714 70.1319 15.3977 69.9765L15.0378 68.0636ZM14.2423 68.5366C14.2423 68.7009 14.2431 68.865 14.2446 69.0289L16.1909 69.0111C16.1895 68.8532 16.1888 68.695 16.1888 68.5366H14.2423ZM14.2495 67.6568C14.2447 67.9495 14.2423 68.2428 14.2423 68.5366H16.1888C16.1888 68.2534 16.1911 67.9707 16.1957 67.6886L14.2495 67.6568ZM12.2447 67.8201C13.166 68.176 14.0991 68.4439 15.0352 68.6276L15.41 66.7177C14.5853 66.5558 13.7615 66.3194 12.9461 66.0044L12.2447 67.8201ZM2.21405 45.1056C-1.0362 54.23 3.41807 64.4104 12.2447 67.8201L12.9461 66.0044C5.15365 62.9943 1.13303 53.9408 4.04761 45.7588L2.21405 45.1056ZM24.1085 34.6684C15.261 31.2507 5.4703 35.9644 2.21405 45.1056L4.04761 45.7588C6.9562 37.5935 15.6355 33.4819 23.4072 36.484L24.1085 34.6684ZM26.7034 35.9356C25.8871 35.4461 25.0208 35.0208 24.1085 34.6684L23.4072 36.484C24.2146 36.7959 24.9807 37.1721 25.7024 37.6049L26.7034 35.9356ZM26.1453 35.2996C25.9077 35.585 25.673 35.8732 25.4415 36.1642L26.9644 37.3763C27.1871 37.0965 27.4127 36.8194 27.6412 36.5449L26.1453 35.2996ZM24.4949 34.0529C24.9797 34.937 25.5274 35.762 26.1291 36.5249L27.6574 35.3195C27.1226 34.6415 26.6345 33.9067 26.2015 33.1171L24.4949 34.0529ZM30.8286 9.94978C22.6663 14.8035 19.8565 25.5943 24.4949 34.0529L26.2015 33.1171C22.05 25.5462 24.593 15.9224 31.8235 11.6227L30.8286 9.94978ZM54.0727 16.5434C49.4226 8.0633 39.0155 5.08145 30.8286 9.94978L31.8235 11.6227C39.0294 7.3377 48.2263 9.92998 52.3661 17.4793L54.0727 16.5434ZM55.2709 19.2212C54.9489 18.3099 54.5502 17.4142 54.0727 16.5434L52.3661 17.4793C52.7926 18.2571 53.1484 19.0565 53.4357 19.8696L55.2709 19.2212ZM55.6593 18.3296C55.1605 18.4084 54.6642 18.4951 54.1705 18.5895L54.5361 20.5013C55.0093 20.4108 55.4851 20.3277 55.9632 20.2521L55.6593 18.3296ZM55.1264 16.3272C54.9492 17.3155 54.8547 18.3004 54.8381 19.2742L56.7843 19.3074C56.7991 18.4372 56.8835 17.556 57.0423 16.6709L55.1264 16.3272ZM74.9914 2.1848C65.7117 0.379875 56.8432 6.75544 55.1264 16.3272L57.0423 16.6709C58.58 8.0977 66.4751 2.51125 74.6198 4.0954L74.9914 2.1848ZM88.5919 22.8073C90.307 13.245 84.2587 3.98731 74.9914 2.1848L74.6198 4.0954C82.7768 5.68197 88.2155 13.8811 86.6761 22.4637L88.5919 22.8073Z" fill="white" mask="url(#path-2-inside-1_2409_4007)"/>
<path d="M49.5237 55.71C49.5237 56.634 49.2963 57.4333 48.8417 58.108C48.387 58.7827 47.727 59.3033 46.8617 59.67C46.011 60.0367 44.9917 60.22 43.8037 60.22C43.2317 60.22 42.6817 60.1833 42.1537 60.11C41.6403 60.0513 41.149 59.956 40.6797 59.824C40.225 59.692 39.7997 59.5307 39.4037 59.34V56.7C40.0637 56.9933 40.7897 57.2647 41.5817 57.514C42.3737 57.7487 43.1803 57.866 44.0017 57.866C44.6323 57.866 45.1457 57.7853 45.5417 57.624C45.9523 57.448 46.253 57.2133 46.4437 56.92C46.6343 56.612 46.7297 56.26 46.7297 55.864C46.7297 55.424 46.605 55.05 46.3557 54.742C46.1063 54.434 45.7397 54.148 45.2557 53.884C44.7717 53.62 44.1703 53.3413 43.4517 53.048C42.9677 52.8427 42.491 52.6153 42.0217 52.366C41.567 52.102 41.1563 51.7867 40.7897 51.42C40.423 51.0533 40.1297 50.6207 39.9097 50.122C39.6897 49.6233 39.5797 49.0367 39.5797 48.362C39.5797 47.4673 39.7923 46.6973 40.2177 46.052C40.6577 45.4067 41.2663 44.9153 42.0437 44.578C42.8357 44.2407 43.7523 44.072 44.7937 44.072C45.6297 44.072 46.4143 44.16 47.1477 44.336C47.881 44.512 48.607 44.7613 49.3257 45.084L48.4237 47.35C47.7783 47.0713 47.155 46.8513 46.5537 46.69C45.9523 46.5287 45.3363 46.448 44.7057 46.448C44.207 46.448 43.7817 46.5287 43.4297 46.69C43.0777 46.8367 42.8137 47.0493 42.6377 47.328C42.4617 47.6067 42.3737 47.9293 42.3737 48.296C42.3737 48.7213 42.4837 49.0807 42.7037 49.374C42.9237 49.6673 43.261 49.946 43.7157 50.21C44.185 50.4593 44.7863 50.7453 45.5197 51.068C46.3703 51.4347 47.089 51.816 47.6757 52.212C48.2623 52.608 48.717 53.0847 49.0397 53.642C49.3623 54.1993 49.5237 54.8887 49.5237 55.71ZM57.1754 44.292C59.214 44.292 60.6954 44.7173 61.6194 45.568C62.558 46.4187 63.0274 47.592 63.0274 49.088C63.0274 49.7627 62.9247 50.408 62.7194 51.024C62.514 51.6253 62.1694 52.168 61.6854 52.652C61.2014 53.136 60.5634 53.5173 59.7714 53.796C58.994 54.0747 58.026 54.214 56.8674 54.214H55.3054V60H52.4894V44.292H57.1754ZM56.9994 46.624H55.3054V51.882H56.5814C57.344 51.882 57.9894 51.794 58.5174 51.618C59.06 51.4273 59.4707 51.134 59.7494 50.738C60.028 50.342 60.1674 49.8287 60.1674 49.198C60.1674 48.3327 59.9107 47.6873 59.3974 47.262C58.884 46.8367 58.0847 46.624 56.9994 46.624ZM71.4345 60H64.8345V58.394L66.7265 57.69V46.624L64.8345 45.898V44.292H71.4345V45.898L69.5425 46.624V57.69L71.4345 58.394V60ZM87.607 60H84.109L76.673 47.68H76.585C76.5997 48.0027 76.6144 48.3473 76.629 48.714C76.6584 49.066 76.6804 49.4327 76.695 49.814C76.7097 50.1807 76.7244 50.5547 76.739 50.936C76.7537 51.3173 76.7684 51.6987 76.783 52.08V60H74.253V44.292H77.729L85.143 56.524H85.209C85.1944 56.2307 85.1797 55.9153 85.165 55.578C85.1504 55.226 85.1357 54.8667 85.121 54.5C85.121 54.1333 85.1137 53.7593 85.099 53.378C85.0844 52.9967 85.0697 52.63 85.055 52.278V44.292H87.607V60ZM53.3674 93L49.0554 80.13H48.9674C48.982 80.4233 49.004 80.8413 49.0334 81.384C49.0627 81.912 49.0847 82.4913 49.0994 83.122C49.1287 83.738 49.1434 84.3173 49.1434 84.86V93H46.6134V77.292H50.5294L54.6654 89.634H54.7534L59.0654 77.292H62.9814V93H60.2974V84.728C60.2974 84.2293 60.3047 83.6867 60.3194 83.1C60.3487 82.4987 60.3707 81.934 60.3854 81.406C60.4147 80.8633 60.4367 80.4453 60.4514 80.152H60.3634L55.8754 93H53.3674ZM75.977 93H67.045V77.292H75.977V79.646H69.861V83.65H75.581V86.004H69.861V90.624H75.977V93ZM81.4026 88.094H79.2906L78.7406 77.292H81.9526L81.4026 88.094ZM78.6526 91.592C78.6526 90.976 78.8139 90.5433 79.1366 90.294C79.4593 90.03 79.8626 89.898 80.3466 89.898C80.8013 89.898 81.1899 90.0227 81.5126 90.272C81.8499 90.5213 82.0186 90.9613 82.0186 91.592C82.0186 92.1933 81.8499 92.626 81.5126 92.89C81.1899 93.154 80.8013 93.286 80.3466 93.286C79.8626 93.286 79.4593 93.154 79.1366 92.89C78.8139 92.626 78.6526 92.1933 78.6526 91.592Z" fill="white"/>
</svg>
