<svg width="148" height="84" viewBox="0 0 148 84" fill="none" xmlns="http://www.w3.org/2000/svg">
<path d="M35.1917 35.6647H32.5567V59.6029H28.003V57.7213H22.3569V59.753H17.9161V35.6647H15.9216V39.3534H10.3513V44.0587H15.2439V58.399H11.029V57.1951H5.27001V59.3026H1.27962V44.0587H5.79619V39.3534H0V35.1757H5.79619V29.5296H0.677691V25.3519H15.0924V29.5296H10.3499V35.1757H15.0552V31.3368H17.9161V24.75H22.3569V31.3368H28.003V24.75H32.5567V31.3368H35.1917V35.6647ZM11.0276 48.0477H5.27001V53.2034H11.029V48.0477H11.0276ZM28.003 35.6647H22.3569V42.3645H28.003V35.6647ZM28.003 53.4678V46.5807H22.3569V53.4678H28.003Z" fill="#EC9E90"/>
<path d="M67.1106 55.5389C68.3144 55.5389 68.5789 55.0871 68.6918 52.0761C69.5954 52.7152 71.4398 53.3185 72.6065 53.5816C72.1547 58.1354 70.9508 59.3034 67.5252 59.3034H62.1808C57.7014 59.3034 56.6477 58.0982 56.6477 54.4852V51.6243H52.5829C51.492 55.8778 48.8198 58.437 40.2371 59.8296C39.861 58.7387 38.8073 57.0444 37.9795 56.1794C44.9052 55.3888 47.0126 53.9962 47.9162 51.6257H43.5498V35.6297H44.1145C43.6255 34.3129 42.6462 32.7316 41.631 31.4892L45.7716 30.2853C47.1641 31.7151 48.368 33.6724 48.7826 34.9906L46.6751 35.6311H53.6008C53.3749 34.2385 52.5843 32.1682 51.5677 30.5869L55.6697 29.5704C50.5884 29.985 45.3941 30.2109 40.5387 30.3611C40.4258 29.3817 39.8239 27.9148 39.2591 27.0112C49.1958 26.6723 60.4494 25.8817 67.2249 24.6406L71.0266 27.8018C66.6601 28.5924 61.3915 29.1572 55.9342 29.5704C57.0637 31.1517 58.0044 33.1462 58.2675 34.5388L53.9011 35.6297H61.6546L60.5251 35.2908C61.729 33.5966 63.2731 30.9616 64.1009 29.0429L69.0693 30.3597C67.8654 32.204 66.51 34.1228 65.3061 35.6297H66.6987V51.6257H61.0155V54.4108C61.0155 55.3902 61.3171 55.5403 62.7841 55.5403H67.1119L67.1106 55.5389ZM47.7647 40.1077H62.2552V38.565H47.7647V40.1077ZM47.7647 44.3983H62.2552V42.8556H47.7647V44.3983ZM47.7647 48.689H62.2552V47.1835H47.7647V48.689Z" fill="#EC9E90"/>
<path d="M96.0186 26.1042C95.7555 26.4059 95.4924 26.6689 95.2279 26.9692C99.0668 29.9045 105.391 32.6153 110.924 33.9321C109.907 34.8357 108.627 36.6043 108.026 37.658C106.67 37.2434 105.353 36.7544 103.961 36.1897V48.4225H86.1204V54.6333L94.7775 53.6926C94.6646 54.822 94.6646 56.5149 94.7403 57.4185C84.6535 58.7739 82.9964 59.0741 81.8683 59.6017C81.5667 58.6609 80.5887 57.0796 79.9482 56.4019C80.7388 55.913 81.6796 54.8964 81.6796 53.2022V36.2269C80.5129 36.7159 79.3835 37.1676 78.1796 37.5822C77.6149 36.5285 76.4482 35.023 75.4316 34.0065C81.8298 32.1621 88.5681 28.6249 92.0296 24.1455L96.0186 26.1028V26.1042ZM103.583 36.0409C101.702 35.2131 99.7817 34.2723 97.9759 33.2186V35.0258H87.889V33.0313C86.0447 34.1222 84.0874 35.1387 82.13 36.0423H103.583V36.0409ZM99.4056 39.2021H86.119V40.7834H99.4056V39.2021ZM99.4056 45.2242V43.6429H86.119V45.2242H99.4056ZM96.0558 32.0505C94.8519 31.2599 93.6466 30.3949 92.5929 29.567C91.5764 30.4321 90.4855 31.2613 89.356 32.0505H96.0558ZM108.665 50.0796C106.896 51.2463 104.863 52.4501 102.906 53.5052C104.863 54.5975 106.594 55.6884 107.874 56.6292L104.713 59.6031C101.739 57.2697 95.491 53.6182 90.7486 51.3234L93.6467 48.7256C95.3409 49.5162 97.2982 50.457 99.2541 51.4735C101.475 50.2683 103.808 48.6884 105.426 47.3716L108.663 50.081L108.665 50.0796Z" fill="#EC9E90"/>
<path d="M142.466 54.7473C143.483 54.7473 143.709 54.2197 143.859 51.2087C144.8 51.9236 146.72 52.677 147.999 52.9401C147.435 57.6826 146.268 59.0379 142.881 59.0379H138.176C133.848 59.0379 132.793 57.6454 132.793 53.279V42.4387H127.862C127.108 50.2293 125.265 56.4029 115.78 59.903C115.253 58.6991 114.049 56.9291 112.995 56.0255C121.313 53.3161 122.593 48.5737 123.119 42.4387H113.897V38.0722H128.125V24.4854H132.867V38.0722H147.132V42.4387H137.384V53.2404C137.384 54.5958 137.572 54.7459 138.852 54.7459H142.465L142.466 54.7473ZM121.652 36.681C120.674 34.5736 118.302 31.2237 116.271 28.7388L119.846 26.6686C121.917 28.9647 124.4 32.2017 125.53 34.3091L121.652 36.6797V36.681ZM145.741 28.6273C143.783 31.5625 141.45 34.6493 139.568 36.6438L135.654 35.0254C137.498 32.8807 139.756 29.4923 140.998 26.8958L145.741 28.6273Z" fill="#EC9E90"/>
<path d="M41.2392 0.986029V6.07009H45.866V6.73125H41.2392V11.493H47.1539V12.1707H40.5615V0.342773H47.3068V0.986029H41.2406H41.2392Z" fill="#EC9E90"/>
<path d="M47.6804 10.4595L48.0703 9.9512C49.0868 11.527 51.4091 11.527 51.4091 11.527C53.0524 11.527 54.1543 10.3575 54.1543 8.78177C54.1543 6.24042 51.1378 6.25695 50.562 6.12059C49.478 5.95117 47.6309 5.39193 47.6309 3.34095C47.6309 1.67978 49.0042 0.273438 50.8843 0.273438C51.9009 0.273438 52.9518 0.663248 53.5951 1.27344L53.2562 1.84921C52.562 1.22248 51.8334 0.951128 50.9009 0.900164C49.3581 0.900164 48.2741 2.01863 48.2741 3.34095C48.2741 4.54482 49.3416 5.3575 50.6295 5.49248C52.4601 5.67844 54.8155 6.37403 54.8155 8.86441C54.8155 10.6771 53.3416 12.1013 51.4091 12.1523C51.4091 12.1523 48.8168 12.1358 47.6804 10.4581V10.4595Z" fill="#EC9E90"/>
<path d="M66.1009 0.969683H61.6945V12.2218H61.0333V0.969683H56.627V0.291992H66.0995V0.969683H66.1009Z" fill="#EC9E90"/>
<path d="M73.5249 11.7473C73.5249 11.9677 73.372 12.1206 73.1516 12.1206C72.9477 12.1206 72.7783 11.9677 72.7783 11.7473C72.7783 11.5434 72.9477 11.374 73.1516 11.374C73.372 11.374 73.5249 11.5434 73.5249 11.7473Z" fill="#EC9E90"/>
<path d="M82.8791 3.88438C82.8791 4.68053 82.6243 5.49458 82.116 6.13784L76.3708 11.5773H82.8778V12.1709H75.8281V11.2729L81.7262 5.69706C82.167 5.01937 82.3364 4.46014 82.3364 3.88438C82.3364 2.24111 81.032 0.902262 79.4218 0.902262C77.948 0.902262 76.7441 2.0042 76.5237 3.4436H75.9645C76.1849 1.68188 77.6422 0.308594 79.4218 0.308594C81.3364 0.308594 82.8791 1.9188 82.8791 3.88438Z" fill="#EC9E90"/>
<path d="M92.0302 4.46014V8.07036C92.0302 10.3583 90.234 12.2054 88.0136 12.2054C85.7932 12.2054 83.9971 10.3583 83.9971 8.07036V4.46014C83.9971 2.17224 85.7932 0.308594 88.0136 0.308594C90.234 0.308594 92.0302 2.17224 92.0302 4.46014ZM91.42 4.46014C91.42 2.52762 89.8952 0.969756 88.0136 0.969756C86.1321 0.969756 84.6073 2.529 84.6073 4.46014V8.07036C84.6073 9.98497 86.1321 11.5607 88.0136 11.5607C89.8952 11.5607 91.42 9.98497 91.42 8.07036V4.46014Z" fill="#EC9E90"/>
<path d="M99.928 3.88438C99.928 4.68053 99.6745 5.49458 99.1649 6.13784L93.4197 11.5773H99.9266V12.1709H92.877V11.2729L98.7737 5.69706C99.2145 5.01937 99.3839 4.46014 99.3839 3.88438C99.3839 2.24111 98.0795 0.902262 96.4693 0.902262C94.9954 0.902262 93.7916 2.0042 93.5712 3.4436H93.0119C93.2323 1.68188 94.6896 0.308594 96.4693 0.308594C98.3839 0.308594 99.9266 1.9188 99.9266 3.88438H99.928Z" fill="#EC9E90"/>
<path d="M107.436 9.28956H105.741V12.1697H105.115V9.32262H98.5732L105.115 0.257812H105.741V8.68074H107.436V9.29094V9.28956ZM105.115 8.67936V1.39281L99.8446 8.67936H105.115Z" fill="#EC9E90"/>
<path d="M30.0198 78.4396L30.3077 77.9478C30.9179 78.5071 31.5956 78.8803 32.7815 78.8969C33.8835 78.8803 34.6286 78.1517 34.6286 77.0828C34.6286 75.6765 33.2898 75.372 32.7471 75.3376C31.5777 75.2701 29.9854 74.8128 29.9854 73.1861C29.9854 71.9657 30.9854 70.9326 32.3573 70.9326C33.1204 70.9326 33.9165 71.2549 34.3738 71.7122L34.0515 72.288C33.5598 71.8142 33.035 71.5924 32.3738 71.5594C31.4922 71.5594 30.6121 72.1516 30.6121 73.1861C30.6121 74.3045 31.5776 74.6944 32.5267 74.7453C33.7981 74.8128 35.2554 75.5924 35.2554 77.0842C35.2554 78.4396 34.1534 79.4905 32.7815 79.4905C31.6465 79.4905 30.5446 79.0842 30.0198 78.4396Z" fill="#EC9E90"/>
<path d="M41.595 73.0678L38.9008 79.5238L35.376 70.9824H35.9696L38.9187 77.948L41.5964 71.6271L44.2741 77.948L47.2397 70.9824H47.8155L44.2741 79.5238L41.5964 73.0678H41.595Z" fill="#EC9E90"/>
<path d="M56.1009 75.5253H48.4081C48.7125 77.7622 50.3902 78.8462 51.9494 78.8462C52.5761 78.8462 53.2373 78.6258 53.78 78.3214L54.7965 78.338C54.0334 79.0666 53.0169 79.4909 51.9494 79.4909C49.6615 79.4909 47.7979 77.5762 47.7979 75.203C47.7979 72.8297 49.6615 70.915 51.9494 70.915C54.2373 70.915 56.05 72.9316 56.1009 75.5239V75.5253ZM55.4233 74.882C54.9825 72.6616 53.5086 71.5432 51.9494 71.5432C50.3902 71.5432 48.7634 72.5266 48.4246 74.882H55.4233Z" fill="#EC9E90"/>
<path d="M65.5248 75.5253H57.8319C58.1363 77.7622 59.814 78.8462 61.3732 78.8462C62 78.8462 62.6611 78.6258 63.2038 78.3214L64.2204 78.338C63.4573 79.0666 62.4407 79.4909 61.3732 79.4909C59.0853 79.4909 57.2217 77.5762 57.2217 75.203C57.2217 72.8297 59.0853 70.915 61.3732 70.915C63.6611 70.915 65.4738 72.9316 65.5248 75.5239V75.5253ZM64.8471 74.882C64.4063 72.6616 62.9325 71.5432 61.3732 71.5432C59.814 71.5432 58.1873 72.5266 57.8484 74.882H64.8471Z" fill="#EC9E90"/>
<path d="M70.6432 72.3724H68.5413V79.524H67.8636V72.3724H65.7451V71.6768H67.8636V67.5928H68.5248L68.5413 71.6768H70.6432V72.3724Z" fill="#EC9E90"/>
<path d="M75.7961 78.5071L73.5248 83.7936H72.7617L74.8967 78.828L71.5068 71.0332H72.2699L75.252 77.828L78.2521 71.0332H78.9972L75.7947 78.5057L75.7961 78.5071Z" fill="#EC9E90"/>
<path d="M90.5729 72.3724H88.471V79.524H87.7933V72.3724H85.6748V71.6768H87.7933V67.5928H88.4544L88.471 71.6768H90.5729V72.3724Z" fill="#EC9E90"/>
<path d="M91.6416 68.0509C91.6416 67.8306 91.8276 67.6611 92.0314 67.6611C92.2518 67.6611 92.4212 67.8306 92.4212 68.0509C92.4212 68.2548 92.2518 68.4242 92.0314 68.4242C91.8276 68.4242 91.6416 68.2548 91.6416 68.0509ZM92.3193 71.0331V79.54H91.6416V71.0331H92.3193Z" fill="#EC9E90"/>
<path d="M101.335 74.5417V79.5239H100.658V74.4577C100.166 72.831 98.8779 71.8145 97.3531 71.8145C95.9633 71.8145 94.7429 72.6616 94.1671 74.1368L94.1506 79.5252H93.4385V71.0527H94.1506V72.8145C94.1506 72.8145 94.4729 72.3062 95.0487 71.8999C95.8283 71.3406 96.5225 71.1037 97.3531 71.1037C98.6066 71.1037 99.776 71.7304 100.539 72.8489L100.996 73.5101L101.454 72.8489C102.233 71.7304 103.368 71.1037 104.656 71.1037C106.791 71.1037 108.418 72.9674 108.604 75.0514C108.62 75.3393 108.62 75.5776 108.587 79.5252H107.926L107.943 74.8145C107.722 73.0858 106.163 71.8145 104.655 71.8145C103.147 71.8145 101.773 72.882 101.334 74.5431L101.335 74.5417Z" fill="#EC9E90"/>
<path d="M118.011 75.5253H110.318C110.623 77.7622 112.302 78.8462 113.86 78.8462C114.486 78.8462 115.147 78.6258 115.69 78.3214L116.707 78.338C115.944 79.0666 114.927 79.4909 113.86 79.4909C111.572 79.4909 109.708 77.5762 109.708 75.203C109.708 72.8297 111.572 70.915 113.86 70.915C116.147 70.915 117.96 72.9316 118.011 75.5239V75.5253ZM117.333 74.882C116.893 72.6616 115.419 71.5432 113.86 71.5432C112.3 71.5432 110.674 72.5266 110.335 74.882H117.333Z" fill="#EC9E90"/>
</svg>
