<svg width="31" height="30" viewBox="0 0 31 30" fill="none" xmlns="http://www.w3.org/2000/svg">
<path d="M9 11.25V8.75H26.5V11.25H9ZM9 16.25V13.75H26.5V16.25H9ZM9 21.25V18.75H26.5V21.25H9ZM5.25 11.25C4.89584 11.25 4.59917 11.13 4.36 10.89C4.12084 10.65 4.00084 10.3533 4 10C3.99917 9.64667 4.11917 9.35 4.36 9.11C4.60084 8.87 4.8975 8.75 5.25 8.75C5.6025 8.75 5.89959 8.87 6.14125 9.11C6.38292 9.35 6.5025 9.64667 6.5 10C6.4975 10.3533 6.3775 10.6504 6.14 10.8913C5.9025 11.1321 5.60584 11.2517 5.25 11.25ZM5.25 16.25C4.89584 16.25 4.59917 16.13 4.36 15.89C4.12084 15.65 4.00084 15.3533 4 15C3.99917 14.6467 4.11917 14.35 4.36 14.11C4.60084 13.87 4.8975 13.75 5.25 13.75C5.6025 13.75 5.89959 13.87 6.14125 14.11C6.38292 14.35 6.5025 14.6467 6.5 15C6.4975 15.3533 6.3775 15.6504 6.14 15.8913C5.9025 16.1321 5.60584 16.2517 5.25 16.25ZM5.25 21.25C4.89584 21.25 4.59917 21.13 4.36 20.89C4.12084 20.65 4.00084 20.3533 4 20C3.99917 19.6467 4.11917 19.35 4.36 19.11C4.60084 18.87 4.8975 18.75 5.25 18.75C5.6025 18.75 5.89959 18.87 6.14125 19.11C6.38292 19.35 6.5025 19.6467 6.5 20C6.4975 20.3533 6.3775 20.6504 6.14 20.8912C5.9025 21.1321 5.60584 21.2517 5.25 21.25Z" fill="#D55D57"/>
</svg>
