<svg width="42" height="34" viewBox="0 0 42 34" fill="none" xmlns="http://www.w3.org/2000/svg">
<path d="M5.4733 7.32538H36.2976M5.4733 7.32538V28.4621H36.2976V7.32538M5.4733 7.32538V15.78L7.12524 14.9871C8.78015 14.1928 10.7543 14.5088 12.0785 15.78C13.3701 17.02 15.3429 17.2136 16.8509 16.2485L17.5828 15.78C19.5961 14.4916 22.1748 14.4916 24.1881 15.78L24.92 16.2485C26.428 17.2136 28.4008 17.02 29.6924 15.78C31.0166 14.5088 32.9908 14.1928 34.6457 14.9871L36.2976 15.78V7.32538M12.0785 7.32538C13.2945 7.32538 14.2802 6.37906 14.2802 5.21171C14.2802 4.43348 13.5463 3.02437 12.0785 0.984375C10.6107 3.02437 9.87677 4.43348 9.87677 5.21171C9.87677 6.37906 10.8625 7.32538 12.0785 7.32538ZM20.8855 7.32538C22.1014 7.32538 23.0872 6.37906 23.0872 5.21171C23.0872 4.43348 22.3533 3.02437 20.8855 0.984375C19.4176 3.02437 18.6837 4.43348 18.6837 5.21171C18.6837 6.37906 19.6695 7.32538 20.8855 7.32538ZM29.6924 7.32538C30.9084 7.32538 31.8941 6.37906 31.8941 5.21171C31.8941 4.43348 31.1602 3.02437 29.6924 0.984375C28.2246 3.02437 27.4907 4.43348 27.4907 5.21171C27.4907 6.37906 28.4764 7.32538 29.6924 7.32538ZM5.29716 32.6894H36.4737C38.8084 32.6894 40.7011 30.7967 40.7011 28.4621H1.06982C1.06982 30.7967 2.96247 32.6894 5.29716 32.6894Z" stroke="#FE6F67" stroke-width="1.78341" stroke-linejoin="round"/>
</svg>
