<svg width="35" height="30" viewBox="0 0 35 30" fill="none" xmlns="http://www.w3.org/2000/svg">
<path d="M1.5918 22.1617H33.2968V28.6892H1.5918V22.1617ZM1.5918 22.1617H33.2968V11.661C33.2968 11.6546 33.2916 11.6494 33.2852 11.6494H1.60342C1.597 11.6494 1.5918 11.6546 1.5918 11.661V22.1617ZM24.3156 0.947266C26.2356 0.947266 27.7921 2.49982 27.7921 4.415L27.7801 4.14353L27.8516 4.12437C30.8986 5.15408 33.1218 7.93627 33.287 11.2525L33.2952 11.6266L33.2968 11.6378C33.2968 11.6442 33.2916 11.6494 33.2852 11.6494H1.67035C1.66393 11.6494 1.65873 11.6442 1.65873 11.6378C1.65873 11.6327 1.66208 11.6282 1.66698 11.6267L16.61 7.10549L21.1578 5.86715C20.9533 5.42542 20.8392 4.9335 20.8392 4.415C20.8392 2.49982 22.3957 0.947266 24.3156 0.947266ZM24.3156 7.88274C26.2356 7.88274 27.7921 6.33018 27.7921 4.415C27.7921 2.49982 26.2356 0.947266 24.3156 0.947266C22.3957 0.947266 20.8392 2.49982 20.8392 4.415C20.8392 6.33018 22.3957 7.88274 24.3156 7.88274Z" stroke="#FE6F67" stroke-width="1.78341" stroke-linejoin="round"/>
</svg>
