<svg width="34" height="36" viewBox="0 0 34 36" fill="none" xmlns="http://www.w3.org/2000/svg">
<path d="M20.7246 4.35303C20.7246 6.21349 19.2037 7.72169 17.3276 7.72169C15.4515 7.72169 13.9306 6.21349 13.9306 4.35303M20.7246 4.35303C20.7246 2.49257 19.2037 0.984375 17.3276 0.984375C15.4515 0.984375 13.9306 2.49257 13.9306 4.35303M20.7246 4.35303C20.7246 4.47423 20.7181 4.59394 20.7055 4.71183C27.6219 6.19814 32.8569 12.1654 33.1657 19.3968L33.1409 18.9567C33.1667 19.1381 33.1801 19.3235 33.1801 19.512C33.1801 21.6825 31.4058 23.4421 29.217 23.4421M13.9306 4.35303C13.9306 4.47423 13.9371 4.59394 13.952 4.71019C7.22302 6.15735 2.08676 11.8415 1.52598 18.8047L1.51807 18.9312C1.48976 19.1207 1.4751 19.3147 1.4751 19.512C1.4751 21.6825 3.24945 23.4421 5.43822 23.4421M29.217 23.4421C27.1277 23.4421 25.416 21.8389 25.2647 19.8053L25.2519 19.5358L25.243 19.8053C25.0917 21.8389 23.38 23.4421 21.2907 23.4421M29.217 23.4421C29.8101 23.4421 30.3728 23.3129 30.878 23.0813L28.6508 34.671H6.00438L3.77732 23.0813C4.28249 23.3129 4.84514 23.4421 5.43822 23.4421M29.217 23.4421C27.0282 23.4421 25.2539 21.6825 25.2539 19.512M5.43822 23.4421C7.51981 23.4421 9.22657 21.8506 9.38874 19.8278L9.39937 19.5358L9.41222 19.8053C9.56351 21.8389 11.2752 23.4421 13.3645 23.4421M5.43822 23.4421C7.627 23.4421 9.40135 21.6825 9.40135 19.512C9.40135 21.6825 11.1757 23.4421 13.3645 23.4421M13.3645 23.4421C15.4538 23.4421 17.1654 21.8389 17.3167 19.8053L17.3256 19.5358M13.3645 23.4421C15.5452 23.4421 17.3126 21.6953 17.3256 19.5358M17.3256 19.5358L17.3385 19.8053C17.4898 21.8389 19.2014 23.4421 21.2907 23.4421M17.3256 19.5358L17.3276 19.512C17.3276 21.6825 19.102 23.4421 21.2907 23.4421M21.2907 23.4421C23.4795 23.4421 25.2539 21.6825 25.2539 19.512M25.2539 19.512L25.2578 19.3693C25.253 19.4175 25.2539 19.4647 25.2539 19.512ZM24.4046 26.8107L23.8385 31.3023M17.6107 26.8107V31.3023M10.8168 26.8107L11.3829 31.3023" stroke="#FE6F67" stroke-width="1.33829" stroke-linejoin="round"/>
</svg>
