<svg width="38" height="30" viewBox="0 0 38 30" fill="none" xmlns="http://www.w3.org/2000/svg">
<path d="M13.283 2.75823L14.0062 2.50712C17.3145 1.3583 20.9136 1.3583 24.2219 2.50712L24.9451 2.75823C26.9904 3.46845 28.0727 5.70223 27.3624 7.74753C27.2904 7.95515 27.2009 8.15635 27.0951 8.34899C25.6222 11.0304 24.7366 13.9945 24.4973 17.0445L24.2219 20.5535C20.9998 22.1328 17.2283 22.1328 14.0062 20.5535L13.7308 17.0445C13.4915 13.9945 12.6059 11.0304 11.133 8.34899C10.0906 6.45135 10.7839 4.06797 12.6815 3.02558C12.8742 2.91976 13.0754 2.83033 13.283 2.75823ZM4.6223 19.7911L8.59395 22.127C9.47174 22.6433 10.6013 22.3609 11.133 21.4924C11.7512 20.4824 12.7089 19.7257 13.8345 19.3579L14.0062 19.3018L13.8567 17.6897C13.5341 14.2118 12.4999 10.8374 10.8183 7.77613L10.0156 6.31489L8.35692 6.98695C5.59364 8.10655 3.4097 10.3094 2.3139 13.0822C1.32607 15.5818 2.30556 18.4285 4.6223 19.7911ZM1.79513 18.1283L2.99229 18.8324L5.38661 20.2406L6.54144 20.9198C7.18443 21.298 7.40977 22.1191 7.04986 22.7725L3.7904 28.6899C1.57656 25.928 0.773196 22.2935 1.61665 18.8557L1.79513 18.1283ZM33.6058 19.7911L29.6341 22.127C28.7563 22.6433 27.6267 22.3609 27.0951 21.4924C26.4769 20.4824 25.5192 19.7257 24.3936 19.3579L24.2219 19.3018L24.3714 17.6897C24.694 14.2118 25.7282 10.8374 27.4098 7.77613L28.2125 6.31489L29.8712 6.98695C32.6344 8.10655 34.8184 10.3094 35.9142 13.0822C36.902 15.5818 35.9225 18.4285 33.6058 19.7911ZM36.4329 18.1283L35.2358 18.8324L32.8415 20.2406L31.6866 20.9198C31.0437 21.298 30.8183 22.1191 31.1782 22.7725L34.4377 28.6899C36.6515 25.928 37.4549 22.2935 36.6114 18.8557L36.4329 18.1283Z" stroke="#FE6F67" stroke-width="1.78341" stroke-linejoin="round"/>
</svg>
