<svg width="38" height="38" viewBox="0 0 38 38" fill="none" xmlns="http://www.w3.org/2000/svg">
<path fill-rule="evenodd" clip-rule="evenodd" d="M18.9991 24.7631C22.2823 24.7631 24.9438 22.1016 24.9438 18.8184C24.9438 15.5353 22.2823 12.8738 18.9991 12.8738C15.7159 12.8738 13.0544 15.5353 13.0544 18.8184C13.0544 22.1016 15.7159 24.7631 18.9991 24.7631ZM9.09129 8.91063V12.8738V8.91063ZM24.9438 4.9475V8.91063V4.9475ZM13.0544 4.9475L15.036 6.92906L13.0544 4.9475ZM30.8885 14.8553L32.87 16.8369L30.8885 14.8553ZM7.10973 14.8553L5.12817 16.8369L7.10973 14.8553ZM18.9991 8.91063L17.0175 10.8922L18.9991 8.91063ZM28.9069 10.8922L26.9254 12.8738L28.9069 10.8922ZM20.9807 2.96594L18.9991 4.9475L20.9807 2.96594ZM13.0544 28.7263V32.6894V28.7263ZM30.8885 20.8V24.7631V20.8ZM20.9807 30.7078L18.9991 32.6894L20.9807 30.7078ZM24.9438 26.7447L26.9254 28.7263L24.9438 26.7447ZM9.09129 18.8184V22.7816V18.8184ZM7.10973 24.7631L5.12817 26.7447L7.10973 24.7631ZM18.9991 36.6525C28.8486 36.6525 36.8332 28.6679 36.8332 18.8184C36.8332 8.96896 28.8486 0.984375 18.9991 0.984375C9.14962 0.984375 1.16504 8.96896 1.16504 18.8184C1.16504 28.6679 9.14962 36.6525 18.9991 36.6525Z" stroke="#FE6F67" stroke-width="1.78341"/>
</svg>
