<svg width="38" height="23" viewBox="0 0 38 23" fill="none" xmlns="http://www.w3.org/2000/svg">
<path d="M9.64891 6.85582C10.908 4.71337 12.8147 2.69416 15.2259 0.914042L15.4808 0.912323L17.5752 0.911133M12.5085 1.28475C12.7157 1.24283 12.9246 1.20479 13.135 1.1707C18.7049 3.52097 23.0208 6.89386 25.2779 10.65M21.5383 0.911133L22.4881 0.912179C22.9905 0.912169 23.4877 0.935264 23.9782 0.980408C26.3469 2.74496 28.2213 4.74031 29.4645 6.85582M14.5239 10.65C16.733 6.98626 20.9141 3.68839 26.3116 1.35325C26.5494 1.40328 26.7848 1.45903 27.0178 1.51974M36.2542 11.2974L36.7011 13.0257C37.6584 16.7279 35.4332 20.5051 31.731 21.4624C31.165 21.6087 30.5826 21.6828 29.9979 21.6828L8.64664 21.6833C4.82272 21.6833 1.72266 18.5836 1.72266 14.7597C1.72266 14.1749 1.79672 13.5924 1.94312 13.0262L2.38995 11.2982C3.97094 5.18392 9.4869 0.91271 15.8023 0.912384H22.8421C29.1573 0.912384 34.6733 5.18324 36.2542 11.2974Z" stroke="#FE6F67" stroke-width="1.78497" stroke-linejoin="round"/>
</svg>
