<svg width="39" height="26" viewBox="0 0 39 26" fill="none" xmlns="http://www.w3.org/2000/svg">
<path d="M33.9618 2.62102C33.9639 1.68495 33.1671 0.927725 32.1822 0.929691L7.21472 0.980328C6.22981 0.991872 5.43783 1.76001 5.44538 2.69601M33.8985 23.1881C33.7813 24.0158 33.033 24.6566 32.129 24.6584L7.39813 24.7084C6.53192 24.7102 5.81012 24.1244 5.65113 23.3447M1.83746 12.8554C1.82528 18.4718 3.81121 23.0208 6.27357 23.0159C8.73592 23.0109 10.7423 18.4538 10.7552 12.8374C10.7674 7.22094 8.78149 2.67197 6.31913 2.67692C3.85678 2.68193 1.85045 7.23899 1.83746 12.8554ZM1.83746 12.8554C1.82937 16.5997 3.02035 19.6326 4.49777 19.6296C4.80937 19.629 5.10882 19.4934 5.38748 19.2446M1.83746 12.8554C1.84615 9.11113 3.05073 6.07336 4.52814 6.07036C6.00556 6.06738 7.19644 9.1003 7.18835 12.8446M7.18835 12.8446C7.1852 14.2487 6.3839 15.3886 5.39896 15.3906C4.41402 15.3926 3.61811 14.2559 3.62119 12.8518C3.6244 11.4477 4.42541 10.3078 5.41035 10.3058C6.39529 10.3039 7.19143 11.4405 7.18835 12.8446ZM37.5062 12.7832C37.4932 18.3997 35.4869 22.9567 33.0245 22.9617C30.5621 22.9667 28.5762 18.4177 28.5884 12.8013C28.6014 7.18486 30.6077 2.6278 33.0701 2.62279C35.5324 2.61784 37.5183 7.16681 37.5062 12.7832ZM37.5062 12.7832C37.4975 16.5275 36.2929 19.5653 34.8155 19.5683C34.5039 19.5689 34.205 19.4345 33.9275 19.1868M37.5062 12.7832C37.5143 9.03896 36.3233 6.00604 34.8459 6.00901C33.3684 6.01202 32.164 9.04978 32.1556 12.7941M32.1556 12.7941C32.1525 14.1982 32.9483 15.3348 33.9333 15.3328C34.9182 15.3308 35.7192 14.191 35.7224 12.7868C35.7255 11.3827 34.9296 10.2461 33.9447 10.2481C32.9597 10.2501 32.1588 11.39 32.1556 12.7941Z" stroke="#FE6F67" stroke-width="1.78497" stroke-linejoin="round"/>
</svg>
