<svg width="92" height="74" viewBox="0 0 92 74" fill="none" xmlns="http://www.w3.org/2000/svg">
<mask id="path-1-inside-1_1552_5289" fill="white">
<path d="M91.0569 11.2377V5.92066L88.0862 3.54514C87.8889 3.38739 87.7845 3.17396 87.7845 2.96054C87.5176 2.96054 87.2391 2.88629 87.0418 2.71927L84.0712 0.34375H77.422L74.4513 2.71927C74.0451 3.04404 73.3721 3.04404 72.966 2.71927L69.9953 0.34375H63.3461L60.3754 2.71927C60.1781 2.87702 59.9228 2.95126 59.656 2.96054C59.3891 2.96054 59.1222 2.88629 58.9133 2.71927L55.9426 0.34375H49.2934L46.3228 2.71927C45.9166 3.04404 45.2436 3.04404 44.8374 2.71927L41.8667 0.34375H35.2175L32.2469 2.71927C32.0496 2.87702 31.7827 2.96054 31.5158 2.96054C31.2373 2.96054 30.9704 2.88629 30.7615 2.71927L27.7909 0.34375H21.1417L18.171 2.71927C17.7649 3.04404 17.0918 3.04404 16.6857 2.71927L13.715 0.34375H7.0658L4.09513 2.71927C3.89786 2.87702 3.64256 2.96054 3.37567 2.96054H3.35246C3.35246 3.17396 3.24802 3.38739 3.05075 3.54514L0.0800781 5.92066V11.2377L3.05075 13.6133C3.4569 13.938 3.4569 14.4762 3.05075 14.801L0.0800781 17.1765V22.4936L3.05075 24.8691C3.25963 25.0361 3.36406 25.2589 3.35246 25.4723C3.35246 25.6857 3.24802 25.8898 3.05075 26.0569L0.0800781 28.4324V33.7495L3.05075 36.125C3.4569 36.4498 3.4569 36.988 3.05075 37.3128L0.0800781 39.6883V45.0054L3.05075 47.3809C3.25963 47.5479 3.35246 47.7613 3.35246 47.9748C3.35246 48.1789 3.24802 48.3923 3.05075 48.5501L0.0800781 50.9256V56.2427L3.05075 58.6182C3.4569 58.943 3.4569 59.4812 3.05075 59.806L0.0800781 62.1815V67.4985L3.05075 69.8741C3.25963 70.0411 3.36406 70.2638 3.35246 70.4772H3.37567C3.64256 70.4772 3.89786 70.5607 4.10673 70.7185L7.0774 73.094H13.7266L16.6973 70.7185C17.1034 70.3937 17.7765 70.3937 18.1826 70.7185L21.1533 73.094H27.8025L30.7731 70.7185C30.982 70.5514 31.2605 70.468 31.5274 70.4772C31.7943 70.4772 32.0496 70.5607 32.2585 70.7185L35.2292 73.094H41.8783L44.849 70.7185C45.2552 70.3937 45.9282 70.3937 46.3344 70.7185L49.305 73.094H55.9542L58.9249 70.7185C59.1338 70.5514 59.4007 70.4772 59.6676 70.4772C59.9229 70.4772 60.1897 70.5607 60.387 70.7185L63.3577 73.094H70.0069L72.9776 70.7185C73.3837 70.3937 74.0567 70.3937 74.4629 70.7185L77.4336 73.094H84.0828L87.0534 70.7185C87.2623 70.5514 87.5408 70.468 87.8077 70.4772C87.8077 70.2545 87.9005 70.0411 88.1094 69.8741L91.0801 67.4985V62.1815L88.1094 59.806C87.7033 59.4812 87.7033 58.943 88.1094 58.6182L91.0801 56.2427V50.9256L88.1094 48.5501C87.9121 48.3923 87.8193 48.1882 87.8077 47.9748C87.8077 47.7613 87.9005 47.5479 88.1094 47.3809L91.0801 45.0054V39.6883L88.1094 37.3128C87.7033 36.988 87.7033 36.4498 88.1094 36.125L91.0801 33.7495V28.4324L88.1094 26.0569C87.9121 25.8991 87.8077 25.6857 87.8077 25.4723C87.8077 25.2496 87.9005 25.0361 88.1094 24.8691L91.0801 22.4936V17.1765L88.1094 14.801C87.7033 14.4762 87.7033 13.938 88.1094 13.6133L91.0801 11.2377H91.0569Z"/>
</mask>
<path d="M91.0569 11.2377V5.92066L88.0862 3.54514C87.8889 3.38739 87.7845 3.17396 87.7845 2.96054C87.5176 2.96054 87.2391 2.88629 87.0418 2.71927L84.0712 0.34375H77.422L74.4513 2.71927C74.0451 3.04404 73.3721 3.04404 72.966 2.71927L69.9953 0.34375H63.3461L60.3754 2.71927C60.1781 2.87702 59.9228 2.95126 59.656 2.96054C59.3891 2.96054 59.1222 2.88629 58.9133 2.71927L55.9426 0.34375H49.2934L46.3228 2.71927C45.9166 3.04404 45.2436 3.04404 44.8374 2.71927L41.8667 0.34375H35.2175L32.2469 2.71927C32.0496 2.87702 31.7827 2.96054 31.5158 2.96054C31.2373 2.96054 30.9704 2.88629 30.7615 2.71927L27.7909 0.34375H21.1417L18.171 2.71927C17.7649 3.04404 17.0918 3.04404 16.6857 2.71927L13.715 0.34375H7.0658L4.09513 2.71927C3.89786 2.87702 3.64256 2.96054 3.37567 2.96054H3.35246C3.35246 3.17396 3.24802 3.38739 3.05075 3.54514L0.0800781 5.92066V11.2377L3.05075 13.6133C3.4569 13.938 3.4569 14.4762 3.05075 14.801L0.0800781 17.1765V22.4936L3.05075 24.8691C3.25963 25.0361 3.36406 25.2589 3.35246 25.4723C3.35246 25.6857 3.24802 25.8898 3.05075 26.0569L0.0800781 28.4324V33.7495L3.05075 36.125C3.4569 36.4498 3.4569 36.988 3.05075 37.3128L0.0800781 39.6883V45.0054L3.05075 47.3809C3.25963 47.5479 3.35246 47.7613 3.35246 47.9748C3.35246 48.1789 3.24802 48.3923 3.05075 48.5501L0.0800781 50.9256V56.2427L3.05075 58.6182C3.4569 58.943 3.4569 59.4812 3.05075 59.806L0.0800781 62.1815V67.4985L3.05075 69.8741C3.25963 70.0411 3.36406 70.2638 3.35246 70.4772H3.37567C3.64256 70.4772 3.89786 70.5607 4.10673 70.7185L7.0774 73.094H13.7266L16.6973 70.7185C17.1034 70.3937 17.7765 70.3937 18.1826 70.7185L21.1533 73.094H27.8025L30.7731 70.7185C30.982 70.5514 31.2605 70.468 31.5274 70.4772C31.7943 70.4772 32.0496 70.5607 32.2585 70.7185L35.2292 73.094H41.8783L44.849 70.7185C45.2552 70.3937 45.9282 70.3937 46.3344 70.7185L49.305 73.094H55.9542L58.9249 70.7185C59.1338 70.5514 59.4007 70.4772 59.6676 70.4772C59.9229 70.4772 60.1897 70.5607 60.387 70.7185L63.3577 73.094H70.0069L72.9776 70.7185C73.3837 70.3937 74.0567 70.3937 74.4629 70.7185L77.4336 73.094H84.0828L87.0534 70.7185C87.2623 70.5514 87.5408 70.468 87.8077 70.4772C87.8077 70.2545 87.9005 70.0411 88.1094 69.8741L91.0801 67.4985V62.1815L88.1094 59.806C87.7033 59.4812 87.7033 58.943 88.1094 58.6182L91.0801 56.2427V50.9256L88.1094 48.5501C87.9121 48.3923 87.8193 48.1882 87.8077 47.9748C87.8077 47.7613 87.9005 47.5479 88.1094 47.3809L91.0801 45.0054V39.6883L88.1094 37.3128C87.7033 36.988 87.7033 36.4498 88.1094 36.125L91.0801 33.7495V28.4324L88.1094 26.0569C87.9121 25.8991 87.8077 25.6857 87.8077 25.4723C87.8077 25.2496 87.9005 25.0361 88.1094 24.8691L91.0801 22.4936V17.1765L88.1094 14.801C87.7033 14.4762 87.7033 13.938 88.1094 13.6133L91.0801 11.2377H91.0569Z" fill="#FE6F67" stroke="#F4C8C5" stroke-width="2" mask="url(#path-1-inside-1_1552_5289)"/>
</svg>
