<svg width="83" height="68" viewBox="0 0 83 68" fill="none" xmlns="http://www.w3.org/2000/svg">
<path d="M77.1193 28.7833C78.6452 38.7556 78.8967 47.1486 79.8961 57.1873L79.9792 57.8453C75.9989 58.3476 72.2154 58.2893 68.1969 58.5311C48.5507 58.8671 28.1125 61.4463 8.56707 58.2999L5.77308 29.7601L77.1193 28.7833Z" fill="#A0A0A0"/>
<path d="M31.7538 43.0869C37.5941 43.4215 43.2181 42.0433 49.2447 42.7523C55.0027 43.4952 59.8946 43.8169 65.7715 43.3405C68.4415 43.1362 79.3255 42.8344 78.9769 40.0719C78.7027 37.8995 66.1529 41.0218 60.1757 40.7044C50.0037 40.2479 39.3336 40.1249 28.9978 40.4902C23.8816 40.5948 12.2094 38.4655 7.79095 39.2247C7.61607 36.4403 7.44449 33.7244 7.28222 31.5061C7.41827 30.465 6.42018 28.2354 4.33073 28.759C3.79898 28.8261 3.36279 29.6505 3.16347 30.1902C3.16347 30.1902 4.03617 34.2659 4.3123 36.454C4.97065 41.6709 5.07551 46.7825 5.53903 51.8542C5.78443 55.2398 5.49801 58.3106 8.56749 58.3052C9.37501 58.3041 8.87804 53.9422 8.61635 51.4871C11.7261 52.2247 13.6301 52.308 16.1449 52.9509C21.4212 54.1578 26.7126 54.4238 32.125 54.5471C42.6807 54.8225 53.8437 54.6128 64.5295 53.8001C69.2113 53.4745 73.8877 52.0886 78.4985 52.3025C80.1504 52.3805 80.2191 50.2126 79.0444 50.2282C74.5955 50.2804 68.8739 50.8433 63.7636 50.9523C53.1765 51.4873 42.7256 51.9998 32.0719 52.0073C24.0468 51.9908 16.4437 49.4701 8.43694 49.133C8.28257 46.9773 8.11562 44.3829 7.94603 41.7251C13.0501 43.5585 28.6665 42.9088 31.7538 43.0869Z" fill="#7E7E7E"/>
<path d="M76.7922 26.66C77.6319 26.6743 78.1484 26.9663 78.3415 27.5361C78.8274 28.5465 78.8751 30.323 77.8999 31.157C76.9471 32.1685 75.4425 31.6475 74.2053 31.8036C70.8186 32.0506 71.7715 35.3204 72.2385 37.5799C72.4158 38.9846 72.2845 40.7838 70.7334 41.335C69.3613 41.8636 68.187 41.1205 67.836 39.7377C67.3249 37.1283 68.7663 34.2673 65.9993 32.3034C63.6337 30.6389 60.0463 30.7362 58.1901 33.1085C56.1774 35.6809 56.7109 38.4678 56.8865 41.2998C57.2004 45.1861 53.3668 44.7733 53.8137 41.1518C53.9891 39.7025 54.0133 38.4528 54.0368 37.1977C54.0385 35.7704 54.5667 34.2766 54.2328 33.072C53.611 29.5854 49.6107 32.0478 49.3669 34.397C49.1473 35.4964 49.7432 37.3788 48.5725 38.0624C47.2228 38.7685 46.0721 36.7704 45.5869 35.7653C44.8779 34.4277 44.5722 32.9808 43.1295 31.9745C41.9914 31.1791 40.2763 30.727 38.8383 30.7334C35.6089 30.7855 33.3064 32.5032 32.8206 35.7742C32.601 36.8736 32.9962 42.8876 30.0548 40.9404C28.8806 40.1973 29.2126 38.5479 29.0802 37.4983C28.8805 35.916 27.9977 34.6003 27.1097 33.2852C24.9861 30.699 22.2443 30.3341 19.0756 30.909C16.0911 31.4607 15.159 34.0771 15.1608 36.9311C15.3157 38.1583 15.6943 39.718 15.3175 41.0123C14.9188 42.1343 13.7699 42.9902 12.7523 42.047C11.9361 41.2587 11.9773 35.9058 12.0008 34.6508C11.8235 33.246 11.6245 31.669 10.2541 30.7702C9.28063 30.1769 7.86438 30.3556 7.28675 31.5002C6.67022 32.2942 7.29028 32.9268 7.19958 33.6492C6.97996 34.7486 6.4319 35.7037 5.47301 35.6496C2.57593 35.4953 2.69224 30.568 3.2711 28.8821C6.34761 19.9471 25.0694 13.5578 29.8499 12.9545L29.6091 13.1653C43.3948 16.9536 57.0186 20.9428 70.8042 24.7312C73.0367 25.3407 75.2744 25.9496 77.3331 26.5811L76.8014 26.6482L76.7922 26.66Z" fill="#F8F8F8"/>
<path d="M19.4581 22.6641C18.1084 19.7256 18.1109 15.2105 21.6133 14.1C21.1951 8.66718 27.6336 9.46215 29.4599 5.75142C31.2377 6.99663 32.5286 8.70647 33.0462 10.6465C37.028 11.2157 41.8079 14.8886 39.8178 19.421C38.0409 23.5234 32.7834 24.4575 29.0163 24.5297C26.8616 24.5363 20.4074 24.7195 19.4627 22.6583L19.4581 22.6641Z" fill="#D8D8D8"/>
<path d="M13.8689 40.0863C13.8689 40.0863 13.8649 39.8428 13.8622 39.4399C13.8483 39.0332 13.8298 38.4626 13.8119 37.8123C13.7709 36.5124 13.7673 34.8735 14.0007 33.5867C14.1177 32.9459 14.2927 32.2129 14.6499 31.5259C14.9854 30.8363 15.5572 30.1965 16.2278 29.9156C16.8912 29.6196 17.5348 29.6339 17.9527 29.682C18.1692 29.7024 18.3338 29.7347 18.4496 29.7625C18.5654 29.7903 18.626 29.8039 18.626 29.8039C18.7642 29.8395 18.6813 30.1577 18.5517 30.1475C18.5517 30.1475 18.4918 30.1392 18.3832 30.1263C18.274 30.1083 18.116 30.0858 17.9232 30.0836C17.5355 30.0635 16.9788 30.102 16.4517 30.3754C15.9232 30.6384 15.4883 31.176 15.214 31.7995C14.9285 32.4192 14.7798 33.1064 14.6687 33.7093C14.4471 34.9203 14.3658 36.5222 14.3259 37.8164C14.301 38.4668 14.282 39.0368 14.2643 39.4476C14.2413 39.859 14.219 40.1058 14.219 40.1058C14.1769 40.2385 13.8853 40.2169 13.8689 40.0863Z" fill="#E8E3E6"/>
<path d="M32.1737 34.6727C32.1737 34.6727 32.1959 34.1712 32.3334 33.5226C32.4649 32.8693 32.7596 32.0682 33.1379 31.5058C33.4998 30.9403 34.1776 30.3348 34.8343 30.0716C35.1594 29.935 35.4562 29.8711 35.6707 29.8334C35.8866 29.8061 36.0136 29.7954 36.0136 29.7954C36.0873 29.7861 36.1183 30.1164 36.0571 30.1401C36.0571 30.1401 35.9433 30.1703 35.757 30.2204C35.5721 30.2808 35.322 30.3761 35.0575 30.5262C34.5278 30.8211 34.0152 31.3792 33.7033 31.8748C33.3743 32.362 33.0283 33.0529 32.8257 33.6514C32.6172 34.2454 32.5165 34.7197 32.5165 34.7197C32.4705 34.7785 32.1822 34.7406 32.1677 34.6682L32.1737 34.6727Z" fill="#E8E3E6"/>
<path d="M31.3333 39.161C31.3333 39.161 31.2891 38.896 31.2252 38.5592C31.1758 38.21 31.1817 37.7901 31.1987 37.459C31.2717 36.8079 31.5012 35.8293 31.5012 35.8293C31.513 35.796 31.846 35.807 31.8507 35.8435C31.8507 35.8435 31.9436 36.8769 31.8746 37.517C31.8556 37.8324 31.7675 38.2361 31.7379 38.5528C31.7031 38.8702 31.6808 39.1171 31.6808 39.1171C31.6479 39.1531 31.353 39.1903 31.3333 39.161Z" fill="#E8E3E6"/>
<path d="M48.4317 33.1728C48.4317 33.1728 48.4692 33.0885 48.5317 32.948C48.5942 32.8074 48.6817 32.6107 48.81 32.3982C49.0324 31.9564 49.4304 31.4658 49.7884 31.1235C50.1714 30.8099 50.7156 30.4601 51.2124 30.3284C51.4467 30.2352 51.6672 30.202 51.8185 30.1723C51.9699 30.1426 52.064 30.1254 52.064 30.1254C52.1167 30.1188 52.1891 30.4386 52.1496 30.4648C52.1496 30.4648 52.0687 30.5015 51.9364 30.5554C51.8048 30.6144 51.6093 30.6762 51.4165 30.8013C51.0019 30.9916 50.5782 31.3634 50.2432 31.6338C49.9281 31.9335 49.5109 32.3151 49.2365 32.6839C49.0819 32.8573 48.9694 33.0254 48.8779 33.1483C48.791 33.2654 48.7364 33.3412 48.7364 33.3412C48.6805 33.3642 48.4225 33.227 48.4264 33.1735L48.4317 33.1728Z" fill="#E8E3E6"/>
<path d="M47.9906 36.332C47.9906 36.332 47.907 36.2206 47.8155 36.0464C47.7292 35.8716 47.6509 35.6322 47.662 35.4239C47.658 35.2228 47.7738 34.9535 47.9232 34.7808C48.0034 34.6964 48.0752 34.629 48.1462 34.5988C48.2068 34.5699 48.2469 34.549 48.2469 34.549C48.2726 34.5404 48.4523 34.8201 48.449 34.8365C48.449 34.8365 48.3905 34.9234 48.3681 35.043C48.3464 35.1677 48.3438 35.3166 48.3497 35.4485C48.3392 35.5771 48.3241 35.7541 48.3228 35.9134C48.3268 36.0721 48.3268 36.1994 48.3268 36.1994C48.2985 36.2295 48.0228 36.3333 48.0004 36.3255L47.9906 36.332Z" fill="#E8E3E6"/>
<path d="M56.5509 33.3418C56.5509 33.3418 56.5812 33.2425 56.6358 33.0818C56.6897 32.9158 56.7627 32.6891 56.8983 32.4492C57.1233 31.9433 57.5634 31.405 57.9378 31.0235C58.3366 30.6655 58.8959 30.2659 59.4027 30.0428C59.6435 29.917 59.8732 29.8296 60.0384 29.7822C60.2022 29.7244 60.3003 29.6961 60.3003 29.6961C60.3569 29.6784 60.4708 29.9876 60.4267 30.0197C60.4267 30.0197 60.3418 30.0676 60.2023 30.1488C60.0621 30.2249 59.8673 30.3344 59.662 30.4876C59.2317 30.7647 58.7717 31.1888 58.4118 31.5154C58.0703 31.8609 57.6162 32.2896 57.3432 32.7113C57.1866 32.9115 57.0826 33.105 57.009 33.2416C56.93 33.3789 56.882 33.4645 56.882 33.4645C56.8274 33.4979 56.5483 33.4058 56.5516 33.3471L56.5509 33.3418Z" fill="#E8E3E6"/>
<path d="M55.5229 41.1748C55.5229 41.1748 55.3324 39.411 55.3112 38.2677C55.3538 37.1217 55.5693 35.3544 55.5693 35.3544C55.5779 35.295 55.9129 35.3217 55.9201 35.3791C55.9201 35.3791 56.0251 37.1431 55.9904 38.2669C56.005 39.4004 55.8744 41.1623 55.8744 41.1623C55.8395 41.2251 55.546 41.2303 55.5223 41.1696L55.5229 41.1748Z" fill="#E8E3E6"/>
<path d="M69.8952 34.2256C69.8952 34.2256 69.9143 34.1224 69.9406 33.9493C69.9721 33.7756 70.0056 33.5326 70.1004 33.266C70.2398 32.7179 70.6102 32.0929 70.9675 31.6605C71.361 31.2607 71.9394 30.8004 72.4955 30.6294C72.7528 30.5068 73.0048 30.4697 73.1759 30.4268C73.3477 30.3892 73.4517 30.3655 73.4517 30.3655C73.5096 30.3582 73.582 30.678 73.532 30.7055C73.532 30.7055 73.4406 30.7436 73.2879 30.8053C73.1411 30.8716 72.9253 30.9412 72.7134 31.0847C72.2495 31.3077 71.8145 31.7605 71.4783 32.1053C71.1723 32.4782 70.7802 32.9733 70.5782 33.4497C70.4519 33.6779 70.3828 33.8935 70.3269 34.0438C70.2716 34.1993 70.2348 34.2889 70.2348 34.2889C70.1868 34.3321 69.8965 34.2785 69.8893 34.2211L69.8952 34.2256Z" fill="#E8E3E6"/>
<path d="M70.5225 39.2819C70.5225 39.2819 70.4499 38.4528 70.4604 37.9422C70.4866 37.4296 70.5714 36.6178 70.5714 36.6178C70.5786 36.5904 70.905 36.5492 70.9188 36.574C70.9188 36.574 71.1631 37.4079 71.1422 37.9623C71.1265 38.516 70.8706 39.3282 70.8706 39.3282C70.8311 39.3544 70.5376 39.3171 70.5231 39.2871L70.5225 39.2819Z" fill="#E8E3E6"/>
<path d="M5.36827 32.4054C5.36827 32.4054 5.36759 32.3153 5.36428 32.1619C5.37149 32.0071 5.33789 31.7833 5.41419 31.5402C5.47268 31.0288 5.82402 30.4646 6.17407 30.1021C6.54915 29.7682 7.12429 29.4516 7.62972 29.3878C7.87321 29.3253 8.09303 29.3294 8.249 29.3362C8.40432 29.3378 8.49514 29.337 8.49514 29.337C8.54911 29.3408 8.53732 29.6712 8.49652 29.687C8.49652 29.687 8.41294 29.7028 8.27803 29.7358C8.14246 29.7635 7.95358 29.7926 7.76209 29.8857C7.34946 30.0068 6.93688 30.34 6.64274 30.5947C6.52365 30.7529 6.32623 30.884 6.2236 31.0879C6.1611 31.186 6.09201 31.2743 6.03477 31.3717C5.98938 31.4782 5.94859 31.5789 5.91241 31.6736C5.8078 31.8619 5.8052 32.0532 5.76837 32.1852C5.74273 32.321 5.72102 32.4034 5.72102 32.4034C5.68352 32.4452 5.38539 32.4563 5.36827 32.4054Z" fill="#E8E3E6"/>
<path d="M77.6544 27.2621C77.6544 27.2621 77.8078 27.5876 77.7572 28.0343C77.7276 28.4783 77.498 28.9901 77.2177 29.312C76.9499 29.6482 76.4577 29.9437 76.026 30.0406C75.8141 30.0992 75.6219 30.1022 75.489 30.1084C75.3547 30.1041 75.2738 30.0984 75.2738 30.0984C75.2303 30.0933 75.2316 29.7642 75.2671 29.7491C75.2671 29.7491 75.5462 29.7139 75.8588 29.563C76.172 29.4174 76.4951 29.1379 76.6977 28.8789C76.9129 28.6342 77.1563 28.2746 77.2484 27.9446C77.3622 27.6173 77.3148 27.3686 77.3148 27.3686C77.3418 27.3281 77.6175 27.2243 77.6498 27.268L77.6544 27.2621Z" fill="#E8E3E6"/>
<path d="M32.7338 11.434C32.7338 11.434 32.612 11.6138 32.4094 11.9153C32.36 11.9905 32.3008 12.0722 32.2423 12.1592C32.1725 12.2423 32.0922 12.3267 32.0133 12.4215C31.8494 12.6067 31.679 12.8245 31.4395 13.0032C31.0157 13.4175 30.3985 13.7394 29.7628 13.9576C29.1139 14.1562 28.4505 14.1974 27.8845 14.2052C26.7486 14.1894 25.3724 13.9652 24.2721 14.0192C23.7225 14.0301 23.2454 14.1063 22.9058 14.1704C22.5682 14.2501 22.3655 14.2969 22.3655 14.2969C22.251 14.322 22.147 14.0062 22.2595 13.9654C22.2595 13.9654 22.4701 13.8964 22.8143 13.784C23.1657 13.6866 23.6639 13.5654 24.2457 13.5132C25.4052 13.3775 26.8354 13.5206 27.9009 13.5294C28.43 13.5263 29.0315 13.5034 29.6021 13.3624C29.7475 13.3282 29.8791 13.2691 30.018 13.2251C30.1575 13.1862 30.2944 13.1265 30.4188 13.0525C30.5438 12.9836 30.6695 12.92 30.7952 12.8564C30.9077 12.7733 31.0202 12.6901 31.1281 12.6128C31.3558 12.4674 31.5243 12.2763 31.6914 12.1173C31.7723 12.0381 31.8539 11.9642 31.925 11.8915C31.9901 11.8143 32.05 11.7378 32.106 11.6724C32.3237 11.4062 32.458 11.2407 32.458 11.2407C32.556 11.17 32.8009 11.3301 32.7502 11.4372L32.7338 11.434Z" fill="#B4B4B4"/>
<path d="M26.58 13.7014C26.58 13.7014 26.7096 13.6267 26.9241 13.5041C27.1314 13.3665 27.4045 13.157 27.6796 12.8782C28.2231 12.311 28.6974 11.45 28.9487 10.7286C29.2171 10.0157 29.4315 9.04427 29.4649 8.24957C29.4787 7.84994 29.4615 7.50196 29.4404 7.24997C29.4088 6.99931 29.3903 6.8531 29.3903 6.8531C29.3798 6.76954 29.7068 6.69113 29.7332 6.77269C29.7332 6.77269 29.774 6.92669 29.8392 7.18903C29.8932 7.44748 29.9505 7.81692 29.9776 8.24323C30.0317 9.09585 29.8831 10.165 29.5871 10.9557C29.3076 11.7497 28.6976 12.6808 28.0311 13.2477C27.6922 13.5292 27.3638 13.7245 27.1229 13.8504C26.8689 13.9567 26.7222 14.023 26.7222 14.023C26.6274 14.0349 26.5175 13.757 26.58 13.7014Z" fill="#B4B4B4"/>
<path d="M22.6005 14.1664C22.6005 14.1664 22.5952 13.9973 22.5866 13.7172C22.5688 13.5762 22.601 13.4077 22.6306 13.2183C22.6451 13.121 22.6648 13.023 22.6779 12.9152C22.7135 12.8153 22.7536 12.7094 22.7931 12.5983C22.9404 12.1553 23.2602 11.7223 23.6214 11.3637C23.9879 11.0045 24.4025 10.7293 24.7592 10.504C25.4843 10.0623 26.4208 9.59927 26.9913 9.03389C27.2657 8.74991 27.4532 8.45569 27.5644 8.23475C27.6525 8.0008 27.7097 7.86095 27.7097 7.86095C27.7426 7.78253 28.0664 7.84777 28.0513 7.93986C28.0513 7.93986 28.0079 8.1045 27.9362 8.38411C27.8415 8.65072 27.6632 9.01806 27.3717 9.37847C26.7769 10.0902 25.805 10.6532 25.1206 11.0791C24.4244 11.4958 23.5775 12.0749 23.2683 12.8036C23.2262 12.8938 23.1834 12.9788 23.1452 13.0579C23.1242 13.1454 23.0979 13.2336 23.0808 13.31C23.0367 13.4694 22.9913 13.6184 22.9914 13.7457C22.9697 13.9978 22.9519 14.1539 22.9519 14.1539C22.9144 14.2382 22.617 14.2545 22.6005 14.1664Z" fill="#B4B4B4"/>
<path d="M31.1215 12.0088C31.1215 12.0088 31.1439 11.9318 31.1807 11.7998C31.2294 11.6769 31.259 11.4875 31.2793 11.2674C31.3227 11.0603 31.2852 10.8051 31.2983 10.57C31.2522 10.3318 31.2594 10.0922 31.1968 9.89315C31.1501 9.69215 31.1204 9.45715 31.0283 9.23535C30.9874 9.12379 30.9617 9.00502 30.9111 8.9C30.8604 8.79499 30.8051 8.69586 30.7557 8.60129C30.676 8.39383 30.5312 8.26356 30.4581 8.15076C30.3745 8.03929 30.3232 7.9715 30.3232 7.9715C30.2969 7.93238 30.5166 7.68182 30.5574 7.7085C30.5574 7.7085 30.6292 7.76841 30.7437 7.87067C30.8536 7.97882 31.0458 8.10312 31.1795 8.31438C31.2565 8.41607 31.3342 8.52298 31.4125 8.63512C31.4908 8.74725 31.5396 8.87905 31.6034 9.00362C31.7417 9.25143 31.8029 9.52488 31.8549 9.76766C31.9221 10.0032 31.8991 10.2873 31.913 10.5667C31.8676 10.843 31.8657 11.1244 31.773 11.3643C31.7072 11.606 31.6263 11.8125 31.5414 11.9453C31.4677 12.0819 31.4197 12.1675 31.4197 12.1675C31.3703 12.2003 31.1117 12.0578 31.1103 12.005L31.1215 12.0088Z" fill="#B4B4B4"/>
<path d="M20.8098 22.9922C20.8098 22.9922 20.9012 22.7844 21.0552 22.436C21.2322 22.1007 21.523 21.6502 21.9368 21.2001C22.7705 20.3044 24.0761 19.5454 25.0421 18.9779C26.0194 18.4142 27.2243 17.6627 27.9138 16.7692C28.002 16.6626 28.0849 16.5567 28.1678 16.4507C28.2454 16.3454 28.3007 16.2323 28.3685 16.1336C28.4928 15.9322 28.6152 15.7576 28.6737 15.5858C28.8198 15.2596 28.9079 15.0681 28.9079 15.0681C28.9586 14.9609 29.2765 15.064 29.243 15.1797C29.243 15.1797 29.168 15.3908 29.0469 15.7456C28.995 15.9272 28.8805 16.122 28.7654 16.3541C28.7048 16.4678 28.6509 16.5913 28.5752 16.7123C28.4936 16.8287 28.4127 16.9503 28.3265 17.0726C27.989 17.5768 27.4935 18.0584 26.975 18.4846C26.4499 18.901 25.8912 19.2633 25.3924 19.5491C24.3954 20.1258 23.1247 20.7796 22.3022 21.5518C21.8962 21.9373 21.5981 22.3304 21.4106 22.6246C21.2409 22.9325 21.1362 23.1208 21.1362 23.1208C21.0514 23.2111 20.7809 23.102 20.8144 22.9863L20.8098 22.9922Z" fill="#B4B4B4"/>
<path d="M19.135 19.2565C19.135 19.2565 19.1961 19.1055 19.3034 18.8532C19.4277 18.6094 19.6422 18.2747 19.9673 17.9684C20.6148 17.3349 21.6519 16.9494 22.406 16.695C23.1773 16.4492 24.1375 16.1741 24.7672 15.7392C24.9067 15.6155 25.0601 15.5166 25.162 15.3923C25.2588 15.2687 25.3634 15.1653 25.4252 15.062C25.543 14.8508 25.6127 14.7253 25.6127 14.7253C25.6522 14.6567 25.9701 14.7598 25.9438 14.848C25.9438 14.848 25.8833 15.0042 25.7767 15.2617C25.7175 15.3859 25.6168 15.5206 25.5142 15.6821C25.4056 15.839 25.2464 15.9758 25.0904 16.1388C24.4048 16.724 23.3762 17.0925 22.6214 17.3416C21.8613 17.5914 20.8972 17.8775 20.3049 18.3555C20.0029 18.5899 19.7897 18.8502 19.6542 19.0477C19.5364 19.2589 19.4614 19.385 19.4614 19.385C19.3936 19.4413 19.1139 19.344 19.135 19.2565Z" fill="#B4B4B4"/>
<path d="M32.9417 11.9807C33.0431 11.9786 33.835 12.9131 33.9544 14.495C33.9827 14.8893 33.9104 15.291 33.867 15.7103C33.8289 15.9167 33.7539 16.1278 33.6901 16.3427C33.6368 16.5563 33.4901 16.7499 33.3927 16.9532C32.894 17.7483 32.0918 18.1731 31.52 18.5583C30.935 18.9239 30.298 19.4287 29.6558 19.9342C29.0195 20.4442 28.4022 20.9784 27.8942 21.4881C27.3863 21.9979 26.9888 22.4937 26.7961 22.8734C26.7546 22.9689 26.7178 23.0584 26.6895 23.1309C26.6724 23.2074 26.6593 23.2727 26.6448 23.3276C26.6257 23.4308 26.6435 23.4869 26.6382 23.4875C26.6363 23.5992 26.3191 23.7135 26.2901 23.5262C26.2954 23.5255 26.2631 23.4394 26.2822 23.2937C26.2946 23.2232 26.3052 23.137 26.3236 23.0286C26.3545 22.9345 26.3946 22.8286 26.4328 22.7071C26.6262 22.2476 27.017 21.6996 27.5184 21.1376C28.0198 20.5757 28.6258 19.9952 29.2529 19.4545C29.88 18.9138 30.5144 18.3881 31.1481 17.9845C31.7561 17.5895 32.4675 17.2079 32.8721 16.5998C32.953 16.4357 33.08 16.2977 33.132 16.1161C33.1846 15.9396 33.2649 15.7704 33.3056 15.5848C33.3602 15.2119 33.447 14.8402 33.4364 14.502C33.4356 13.8177 33.246 13.205 33.0728 12.8077C32.8977 12.3948 32.7233 12.2417 32.7424 12.2659C32.7292 12.2463 32.7371 12.2241 32.7496 12.196C32.7562 12.1633 32.7397 12.1176 32.7351 12.0811C32.7298 12.0393 32.7357 12.0014 32.7805 11.9746C32.8305 11.947 32.895 11.9495 32.9411 11.9755L32.9417 11.9807Z" fill="#B4B4B4"/>
<path d="M33.6261 22.9558C33.6261 22.9558 33.5182 22.736 33.4464 22.3366C33.3739 21.9319 33.4482 21.3337 33.7179 20.7585C34.2606 19.5918 35.3615 18.5245 36.0109 17.6096C36.3445 17.159 36.6998 16.6261 36.8563 16.0439C37.0398 15.4637 36.9621 14.8475 36.7731 14.3249C36.5736 13.8037 36.2794 13.3792 36.0608 13.0885C35.837 12.7984 35.6876 12.6316 35.6876 12.6316C35.6112 12.5351 35.8501 12.3087 35.9409 12.3927C35.9409 12.3927 36.1107 12.5517 36.3714 12.8371C36.6275 13.1284 36.9803 13.5508 37.2463 14.1326C37.5116 14.7092 37.6572 15.4813 37.4638 16.1954C37.3033 16.916 36.9145 17.5221 36.5592 18.0126C35.8479 18.9883 34.7122 19.9911 34.1747 20.9873C33.9056 21.4829 33.8109 21.9617 33.8432 22.3024C33.8755 22.6432 33.9492 22.8461 33.9492 22.8461C33.9539 22.9675 33.6854 23.0863 33.6169 22.9676L33.6261 22.9558Z" fill="#B4B4B4"/>
<path d="M5.71822 43.8631C5.71822 43.8631 5.58454 43.3547 5.4087 42.6819C5.3073 42.3446 5.26445 41.9627 5.21634 41.5815C5.16824 41.2003 5.12013 40.8191 5.09441 40.4881C5.05415 39.83 5.06387 38.9746 5.03809 38.3041C5.02218 37.6271 5.01617 37.1132 5.01617 37.1132C5.01813 37.044 5.34982 37.0021 5.36365 37.0694C5.36365 37.0694 5.44469 37.5844 5.55142 38.2606C5.65881 38.942 5.73266 39.7815 5.77885 40.4442C5.80391 40.7699 5.82964 41.1433 5.84484 41.5181C5.86531 41.8922 5.86537 42.2742 5.92268 42.6012C6.00638 43.2644 6.05977 43.7722 6.05977 43.7722C6.03741 43.8493 5.75311 43.9276 5.71822 43.8631Z" fill="#ECECEC"/>
<path d="M6.35974 52.4244C6.35974 52.4244 6.04874 50.2566 5.94649 48.853C5.80805 47.4593 5.75107 45.2701 5.75107 45.2701C5.75238 45.1957 6.08406 45.1538 6.09856 45.2263C6.09856 45.2263 6.47866 47.3906 6.62435 48.7993C6.72199 50.2088 6.71052 52.4066 6.71052 52.4066C6.68289 52.4844 6.38542 52.5007 6.3604 52.4296L6.35974 52.4244Z" fill="#ECECEC"/>
<path d="M6.81954 57.2949C6.81954 57.2949 6.72538 57.0575 6.60687 56.7541C6.48704 56.4403 6.40536 56.0474 6.34411 55.7315C6.3197 55.411 6.30647 55.0095 6.34458 54.6757C6.38402 54.3524 6.41622 54.099 6.41622 54.099C6.4228 54.0664 6.75581 54.0774 6.76569 54.1133C6.76569 54.1133 6.80653 54.3522 6.85594 54.6589C6.89482 54.967 6.99624 55.3468 7.01801 55.6465C7.07137 55.9422 7.07341 56.3398 7.10637 56.6433C7.13472 56.9528 7.1545 57.1943 7.1545 57.1943C7.12753 57.2349 6.84389 57.3184 6.81954 57.2949Z" fill="#ECECEC"/>
<path d="M10.1553 40.4117C10.1553 40.4117 9.63147 40.4991 9.30569 40.4606C8.9786 40.4117 8.50603 40.1848 8.50603 40.1848C8.48892 40.1764 8.55467 39.8498 8.57507 39.8419C8.57507 39.8419 9.09892 39.7546 9.41417 39.7944C9.73008 39.8394 10.198 40.0721 10.198 40.0721C10.2132 40.1073 10.1751 40.3986 10.156 40.417L10.1553 40.4117Z" fill="#ECECEC"/>
<path d="M24.9387 41.342C24.9387 41.342 24.3016 41.3799 23.4579 41.4334C23.2447 41.439 23.0176 41.4624 22.7925 41.459C22.5661 41.4451 22.3299 41.4378 22.0982 41.4246C21.6296 41.3988 21.1656 41.3672 20.7602 41.3335C19.1662 41.1208 16.6745 40.788 16.6745 40.788C16.587 40.7725 16.6047 40.4467 16.6843 40.4419C16.6843 40.4419 17.3221 40.4516 18.1585 40.4681C19.0042 40.4728 20.0289 40.5822 20.8365 40.666C21.2366 40.7004 21.6927 40.7542 22.1488 40.8081C22.3772 40.8376 22.6055 40.8672 22.828 40.8921C23.0504 40.9171 23.2696 40.916 23.4743 40.9273C24.2976 40.9666 24.9169 40.9999 24.9169 40.9999C25.0064 41.031 25.0275 41.3255 24.9393 41.3472L24.9387 41.342Z" fill="#ECECEC"/>
<path d="M17.3234 51.566C17.3234 51.566 16.5145 51.5567 16.015 51.4553C15.5141 51.3434 14.773 51.0231 14.773 51.0231C14.75 51.0101 14.8158 50.6835 14.8421 50.6802C14.8421 50.6802 15.6509 50.6895 16.1505 50.7909C16.6513 50.9028 17.3924 51.2231 17.3924 51.2231C17.4135 51.2629 17.3536 51.5516 17.3234 51.566Z" fill="#ECECEC"/>
<path d="M24.7598 52.9778C24.7598 52.9778 24.436 52.955 24.0155 52.9285C23.589 52.8974 23.0533 52.8483 22.636 52.763C22.2221 52.6614 21.6929 52.4948 21.2973 52.2847C21.0933 52.1938 20.9294 52.0818 20.8129 52.0063C20.6964 51.9308 20.6266 51.8866 20.6266 51.8866C20.5911 51.8592 20.7582 51.5729 20.797 51.5839C20.797 51.5839 20.8701 51.6118 20.9932 51.6546C21.1162 51.6975 21.2801 51.767 21.4842 51.8155C21.8744 51.9413 22.3819 52.0205 22.7781 52.1085C23.1736 52.1912 23.6824 52.3233 24.097 52.4301C24.5123 52.5422 24.8243 52.6407 24.8243 52.6407C24.8618 52.6837 24.8013 52.9672 24.7552 52.9837L24.7598 52.9778Z" fill="#ECECEC"/>
<path d="M30.3597 53.3162C30.3597 53.3162 30.1755 53.3819 29.9149 53.436C29.6608 53.4999 29.316 53.5222 29.0508 53.4973C28.7835 53.4568 28.4479 53.34 28.2136 53.1786C27.9753 53.0282 27.841 52.8542 27.8371 52.8653C27.818 52.8412 28.0259 52.5815 28.0483 52.5893C28.0529 52.5834 28.2082 52.6699 28.428 52.7165C28.6393 52.78 28.9197 52.7977 29.1322 52.8292C29.3494 52.8548 29.6344 52.9091 29.8779 52.9314C30.1214 52.9537 30.311 52.9722 30.311 52.9722C30.3419 53.0055 30.3782 53.2927 30.3545 53.3169L30.3597 53.3162Z" fill="#ECECEC"/>
<path d="M51.1083 53.0269C51.1083 53.0269 50.8443 53.0124 50.4034 52.9938C49.9618 52.97 49.3471 52.9308 48.6436 52.9506C47.2411 52.9419 45.4872 53.0731 44.1137 53.1244C42.7337 53.1659 40.964 53.2142 39.5358 53.0867C38.8205 53.055 38.1985 52.9584 37.7569 52.8921C37.3153 52.8258 37.0481 52.7852 37.0481 52.7852C36.9007 52.7614 36.9612 52.4354 37.1007 52.4391C37.1007 52.4391 37.3653 52.4587 37.8082 52.493C38.2458 52.528 38.8572 52.5835 39.5621 52.5741C40.9639 52.62 42.7132 52.4947 44.0873 52.4487C45.4667 52.4019 47.2305 52.3491 48.6593 52.4393C49.3727 52.4554 49.9979 52.5357 50.4382 52.5915C50.8838 52.6467 51.1497 52.6768 51.1497 52.6768C51.2944 52.7222 51.2511 53.0142 51.1076 53.0217L51.1083 53.0269Z" fill="#ECECEC"/>
<path d="M64.2739 51.9861C64.2739 51.9861 64.0824 52.0368 63.7659 52.1139C63.446 52.2073 63.0012 52.2847 62.4878 52.3707C61.9758 52.4671 61.3993 52.5186 60.8261 52.5963C60.2496 52.6478 59.6777 52.6935 59.1723 52.7148C58.1653 52.7464 56.8787 52.7231 55.8448 52.6254C55.3268 52.59 54.876 52.5355 54.5529 52.4754C54.231 52.4259 54.0349 52.3976 54.0349 52.3976C53.9257 52.3795 53.9809 52.0542 54.0822 52.0521C54.0822 52.0521 54.2764 52.0647 54.5936 52.0777C54.9121 52.1012 55.3577 52.1139 55.8658 52.1135C56.8839 52.1282 58.1547 52.0687 59.1452 52.0338C59.6401 52.0138 60.2041 51.9904 60.774 51.9715C61.3406 51.9266 61.9172 51.9175 62.418 51.8596C62.9254 51.8115 63.3703 51.7765 63.6835 51.7158C63.9981 51.6655 64.1876 51.6415 64.1876 51.6415C64.2962 51.6544 64.3693 51.9369 64.2732 51.9809L64.2739 51.9861Z" fill="#ECECEC"/>
<path d="M40.6824 41.2757C40.6824 41.2757 40.1599 41.3735 39.4702 41.5029C39.1214 41.5788 38.7291 41.6071 38.3409 41.6242C37.9532 41.6466 37.5649 41.6638 37.2234 41.6698C35.8703 41.6283 33.8004 41.4174 33.8004 41.4174C33.7294 41.4051 33.7359 41.0754 33.8043 41.0667C33.8043 41.0667 35.9083 40.9551 37.2397 40.9939C37.5707 40.9893 37.9459 40.995 38.3263 41.0001C38.7073 41.0103 39.089 41.0258 39.4273 40.9937C40.1078 40.9609 40.6231 40.933 40.6231 40.933C40.7014 40.9603 40.7535 41.2455 40.6877 41.275L40.6824 41.2757Z" fill="#ECECEC"/>
<path d="M49.3433 41.7955C49.3433 41.7955 49.0103 41.827 48.5766 41.8658C48.1423 41.8994 47.598 41.9097 47.1722 41.8838C46.749 41.8364 46.2061 41.7723 45.7796 41.6564C45.359 41.545 45.0326 41.4589 45.0326 41.4589C44.9878 41.4433 45.0542 41.1219 45.1016 41.1159C45.1016 41.1159 46.4034 41.1745 47.2208 41.2093C47.6354 41.2312 48.1632 41.3025 48.5923 41.3545C49.0162 41.4071 49.342 41.4456 49.342 41.4456C49.3893 41.482 49.3835 41.7746 49.3433 41.7955Z" fill="#ECECEC"/>
<path d="M65.0144 41.5792C65.0144 41.5792 62.8914 41.7517 61.5238 41.7651C60.1608 41.8151 58.0331 41.7387 58.0331 41.7387C57.9574 41.7324 57.9429 41.4053 58.0107 41.3914C58.0107 41.3914 60.135 41.1446 61.5079 41.088C62.8814 41.0792 65.013 41.2293 65.013 41.2293C65.0868 41.2624 65.0809 41.5549 65.0092 41.5799L65.0144 41.5792Z" fill="#ECECEC"/>
<path d="M67.4218 41.2861C67.4218 41.2861 67.2158 41.4765 67.0243 41.4848C66.9335 41.4856 66.7979 41.4284 66.7038 41.3607C66.5965 41.2735 66.555 41.1991 66.555 41.1991C66.5537 41.1887 66.7563 40.9297 66.7655 40.9179C66.7827 40.9264 66.913 40.8144 67.0182 40.8011C67.1255 40.8035 67.3717 40.9316 67.3717 40.9316C67.3816 40.9675 67.4178 41.2547 67.4152 41.2763L67.4218 41.2861Z" fill="#ECECEC"/>
<path d="M21.6114 33.9632C21.6114 33.9632 21.5581 34.007 21.466 34.0823C21.3739 34.1576 21.2482 34.2636 21.0903 34.3685C20.7876 34.5976 20.344 34.8128 19.9722 34.9181C19.5925 35.0031 19.0778 35.0362 18.6895 34.9261C18.2999 34.8479 18.0445 34.6892 18.0406 34.7003C18.0064 34.6834 18.1169 34.3723 18.1537 34.3677C18.1524 34.3572 18.4176 34.4246 18.7533 34.414C19.0876 34.4355 19.491 34.3262 19.7983 34.2609C20.1076 34.1688 20.517 34.0641 20.8408 33.9172C21.0046 33.8593 21.1454 33.7885 21.2514 33.738C21.3527 33.6934 21.4185 33.6639 21.4185 33.6639C21.4679 33.6736 21.6325 33.9181 21.6101 33.9527L21.6114 33.9632Z" fill="#B8B8B8"/>
<path d="M25.0629 36.3075C25.0629 36.3075 25.0168 36.3664 24.9332 36.4671C24.8431 36.5581 24.7563 36.7176 24.5792 36.8407C24.2792 37.1333 23.7521 37.3642 23.2999 37.3842C22.855 37.3766 22.2936 37.1663 22.0119 36.8411C21.7025 36.5512 21.5755 36.2649 21.5663 36.2766C21.5452 36.2369 21.8156 36.0489 21.8499 36.0658C21.8591 36.054 22.0467 36.2691 22.3356 36.4395C22.6134 36.6485 23.0096 36.694 23.2952 36.711C23.5874 36.6953 23.9836 36.6135 24.287 36.432C24.4502 36.3689 24.5581 36.2492 24.6574 36.1889C24.7509 36.1241 24.8048 36.0855 24.8048 36.0855C24.8575 36.0788 25.08 36.2736 25.0642 36.318L25.0629 36.3075Z" fill="#B8B8B8"/>
<path d="M22.4716 46.9692C22.4716 46.9692 22.3301 47.0773 22.0768 47.2313C21.8241 47.3905 21.4588 47.5904 20.9909 47.7397C20.5336 47.8876 19.9334 47.9633 19.3568 47.7602C18.7737 47.5473 18.3722 47.0356 18.1819 46.5875C18.1081 46.427 18.1364 46.4818 18.1272 46.4511C18.1246 46.4302 18.1246 46.4302 18.1141 46.4316C18.1035 46.4329 18.1193 46.4309 18.093 46.4342C18.0265 46.4585 17.966 46.4874 17.8995 46.5117L17.4764 46.5916C16.9124 46.6575 16.3121 46.5635 15.8777 46.3C14.9668 45.8207 14.6955 45.0698 14.6784 45.1038C14.6245 45.0151 14.9147 44.8565 14.9759 44.9177C14.9884 44.8896 15.3208 45.532 16.1034 45.8418C16.4746 46.0284 16.9425 46.0489 17.3775 45.9781L17.6994 45.9003C17.856 45.8275 18.0133 45.7599 18.1699 45.6871C18.2811 45.6359 18.3877 45.5906 18.4989 45.5395C18.5094 45.5381 18.5285 45.5198 18.5351 45.5296L18.5509 45.57L18.5772 45.6516L18.6293 45.8095C18.6964 46.0026 18.7794 46.2786 18.8103 46.3119C18.9624 46.6693 19.2198 47.0135 19.5936 47.1786C19.9728 47.3429 20.4486 47.3413 20.8592 47.247C21.2758 47.1573 21.6364 47.0057 21.8832 46.8843C22.1359 46.7676 22.28 46.6804 22.28 46.6804C22.3794 46.6626 22.5433 46.9018 22.4722 46.9745L22.4716 46.9692Z" fill="#B8B8B8"/>
<path d="M43.3637 47.5636C43.3637 47.5636 43.3117 47.5754 43.2235 47.5972C43.1288 47.6091 43.0017 47.6623 42.8379 47.7201C42.5108 47.841 42.0864 48.0802 41.5408 48.3347C41.2723 48.4535 40.9347 48.5757 40.5945 48.5921C40.4247 48.6029 40.2549 48.6137 40.0805 48.6304C39.9022 48.6158 39.7277 48.5901 39.5487 48.5702C38.8202 48.434 38.2614 47.99 37.8112 47.7709C37.698 47.7215 37.5736 47.6682 37.4544 47.6143C37.3314 47.5715 37.1997 47.5457 37.0661 47.5042C36.8068 47.4414 36.5501 47.4419 36.2645 47.5098C35.7065 47.6227 35.107 48.0007 34.3982 47.9788C34.048 47.9593 33.7506 47.8059 33.5274 47.6483C33.3135 47.479 33.1536 47.3135 33.0384 47.1636C32.908 47.0209 32.8382 46.8918 32.7744 46.8096C32.7158 46.7268 32.6881 46.6773 32.6881 46.6773C32.6217 46.5743 32.904 46.3954 32.9783 46.4762C32.9783 46.4762 33.0106 46.5199 33.0731 46.5916C33.1357 46.6632 33.2147 46.7806 33.3417 46.8972C33.5662 47.1501 33.9532 47.462 34.4139 47.4675C34.8838 47.4612 35.4319 47.1003 36.1131 46.9029C36.448 46.8023 36.8521 46.7831 37.193 46.8568C37.3589 46.8995 37.5287 46.9312 37.6853 46.9857C37.838 47.0513 37.9795 47.113 38.1263 47.1741C38.6706 47.4608 39.1366 47.8477 39.6868 47.9692L40.1074 48.0382C40.2568 48.0352 40.4009 48.033 40.545 48.0307C40.834 48.0314 41.0867 47.957 41.3532 47.865C41.8691 47.6726 42.3489 47.4476 42.7108 47.3489C42.897 47.2988 43.0418 47.2593 43.1471 47.2461C43.2524 47.2328 43.3103 47.2255 43.3103 47.2255C43.44 47.2356 43.4664 47.5294 43.3644 47.5688L43.3637 47.5636Z" fill="#B8B8B8"/>
<path d="M25.8265 57.2359C25.8265 57.2359 25.6028 57.2005 25.2375 57.1458C24.8637 57.1081 24.3451 57.0674 23.7455 57.0635C22.5517 57.055 21.0459 57.2026 19.8468 57.1947C18.6556 57.2071 17.059 57.016 15.9203 56.4276C15.3537 56.1331 14.9192 55.7847 14.629 55.5189C14.3578 55.2348 14.1972 55.0641 14.1972 55.0641C14.1096 54.9637 14.3669 54.7562 14.4564 54.8298C14.4564 54.8298 14.6197 54.979 14.8968 55.2252C15.187 55.4485 15.6083 55.7349 16.1407 55.9701C17.2103 56.4346 18.6884 56.5345 19.8533 56.5255C21.0202 56.5321 22.5365 56.468 23.7678 56.562C24.3832 56.6064 24.9228 56.6868 25.3065 56.7604C25.687 56.8503 25.9134 56.9066 25.9134 56.9066C26.0331 56.9658 25.9562 57.2461 25.8331 57.2457L25.8265 57.2359Z" fill="#B8B8B8"/>
<path d="M33.4607 57.9277C33.4607 57.9277 33.4035 57.9403 33.3107 57.9679C33.212 57.991 33.0777 58.0291 32.9191 58.0438C32.6059 58.1046 32.1912 58.0826 31.878 58.0161C31.5667 57.9227 31.1796 57.7381 30.9453 57.4918C30.6985 57.2736 30.5787 57.0447 30.5747 57.0558C30.555 57.0265 30.8116 56.8137 30.8399 56.826C30.8498 56.8195 31.0071 56.9641 31.2513 57.0765C31.483 57.2171 31.8068 57.2823 32.0516 57.3575C32.3043 57.4105 32.6321 57.5071 32.9184 57.5293C33.0605 57.5538 33.1843 57.5594 33.2757 57.5638C33.3679 57.5734 33.4218 57.5772 33.4218 57.5772C33.458 57.6097 33.4943 57.897 33.4653 57.9218L33.4607 57.9277Z" fill="#B8B8B8"/>
<path d="M14.0997 54.9279C14.0997 54.9279 13.926 54.9923 13.6746 55.0346C13.4291 55.0815 13.1033 55.0855 12.8552 55.0266C12.6064 54.9625 12.3135 54.8031 12.1246 54.6201C11.9265 54.4488 11.8343 54.2694 11.8304 54.2805C11.8165 54.2558 12.0554 54.0293 12.083 54.0364C12.0877 54.0306 12.218 54.1308 12.4135 54.1964C12.6004 54.2789 12.8419 54.328 13.0295 54.3733C13.2171 54.4186 13.4619 54.4938 13.6745 54.5253C13.8877 54.5621 14.0562 54.5832 14.0562 54.5832C14.0819 54.6171 14.1181 54.9043 14.0997 54.9279Z" fill="#B8B8B8"/>
<path d="M27.7045 46.5582C27.7045 46.5582 27.6689 46.6157 27.6005 46.7092C27.5314 46.7975 27.4597 46.9498 27.3209 47.0787C27.0781 47.3587 26.6839 47.6684 26.2904 47.7711C25.9087 47.883 25.3591 47.8515 25.0175 47.6453C24.8319 47.5732 24.7049 47.4566 24.6154 47.383C24.5259 47.3094 24.4719 47.2632 24.4719 47.2632C24.4416 47.2352 24.6495 46.9755 24.6831 46.9872C24.6831 46.9872 24.7397 47.0119 24.8299 47.0483C24.9207 47.0898 25.0464 47.1536 25.1984 47.1715C25.488 47.2623 25.8441 47.2014 26.1073 47.1258C26.3719 47.0606 26.7141 46.8901 26.9792 46.7027C27.1188 46.6215 27.2175 46.5135 27.3004 46.45C27.3826 46.3813 27.4313 46.3433 27.4313 46.3433C27.4787 46.3373 27.7156 46.5196 27.7045 46.5582Z" fill="#B8B8B8"/>
<path d="M30.3531 49.492C30.3531 49.492 30.1781 49.5883 29.9214 49.6738C29.6661 49.7697 29.3245 49.8181 29.0501 49.805C28.7789 49.7755 28.4334 49.6653 28.1984 49.4986C27.9556 49.3542 27.8265 49.1795 27.8219 49.1854C27.8028 49.1613 28.0108 48.9016 28.0331 48.9094C28.0377 48.9035 28.1931 48.99 28.4129 49.0365C28.6242 49.1001 28.8979 49.108 29.1039 49.1297C29.3145 49.1456 29.5923 49.1848 29.8312 49.1706C30.0668 49.1727 30.2524 49.1599 30.2524 49.1599C30.2879 49.1872 30.3715 49.4684 30.3531 49.492Z" fill="#B8B8B8"/>
<path d="M29.0313 58.4708C29.0313 58.4708 29.003 58.5009 28.951 58.5552C28.8984 58.6043 28.8345 58.692 28.7299 58.7529C28.5411 58.9094 28.2133 59.025 27.9455 59.0217C27.6802 58.9968 27.3749 58.8656 27.1991 58.7021C27.0997 58.635 27.0359 58.5529 26.9865 58.5008C26.9371 58.4486 26.9115 58.4147 26.9115 58.4147C26.8983 58.3952 27.101 58.1362 27.1279 58.1381C27.1279 58.1381 27.2747 58.1991 27.4531 58.2562C27.6327 58.3237 27.842 58.3291 27.9829 58.3432C28.1217 58.3416 28.3211 58.3536 28.5015 58.299C28.591 58.2877 28.6706 58.2405 28.7272 58.2227C28.7831 58.1998 28.8246 58.1892 28.8246 58.1892C28.8641 58.2055 29.0425 58.4323 29.0412 58.4643L29.0313 58.4708Z" fill="#B8B8B8"/>
<path d="M28.5096 56.2024C28.5096 56.2024 28.2168 56.3826 28.0062 56.3243C27.8021 56.2757 27.6139 55.9706 27.6251 55.9745C27.6237 55.964 27.8264 55.705 27.8363 55.6985C27.8429 55.7082 28.0712 55.6529 28.1752 55.6716C28.2706 55.7073 28.4497 55.8545 28.4661 55.8577C28.476 55.8936 28.5122 56.1808 28.5096 56.2024Z" fill="#B8B8B8"/>
<path d="M42.8727 57.9125C42.8727 57.9125 42.67 58.0866 42.3554 58.2642C42.0461 58.4412 41.6072 58.608 41.2248 58.6297C40.8537 58.6554 40.3291 58.5253 40.0237 58.2243C39.867 58.0849 39.7828 57.9257 39.7268 57.8214C39.686 57.7098 39.661 57.6387 39.661 57.6387C39.6504 57.5976 39.9611 57.4735 39.9801 57.4976C39.9801 57.4976 40.0124 57.5413 40.0697 57.6137C40.1315 57.6801 40.2171 57.7648 40.3369 57.824C40.5679 57.9593 40.9069 57.9749 41.1885 57.9606C41.4649 57.9469 41.8486 57.8932 42.1527 57.8017C42.4574 57.7155 42.6916 57.6223 42.6916 57.6223C42.7364 57.6379 42.8904 57.8837 42.874 57.9229L42.8727 57.9125Z" fill="#B8B8B8"/>
<path d="M29.7836 45.1499C29.7836 45.1499 29.6928 45.1932 29.5599 45.2418C29.4335 45.3002 29.2394 45.2875 29.1031 45.2676C28.9787 45.2143 28.8116 45.1187 28.7332 45.0066C28.645 44.901 28.5917 44.8175 28.5917 44.8175C28.5897 44.8019 28.7924 44.5428 28.8082 44.5409C28.8082 44.5409 28.8957 44.5563 28.999 44.5698C29.1043 44.599 29.2195 44.5791 29.2939 44.6175C29.3748 44.6232 29.4604 44.7079 29.5598 44.7325C29.6559 44.7734 29.7401 44.8052 29.7401 44.8052C29.7553 44.8405 29.7915 45.1277 29.7836 45.1499Z" fill="#B8B8B8"/>
<path d="M10.7154 45.4447C10.7154 45.4447 10.4626 45.4341 10.4172 45.3709C10.3797 45.3279 10.4396 45.3363 10.4666 45.2957C10.4771 45.2519 10.4672 45.2161 10.4679 45.2213C10.4679 45.2213 10.5343 44.8999 10.5435 44.8881C10.5435 44.8881 10.6021 44.8436 10.687 44.8382C10.7936 44.8353 10.9278 44.9245 10.941 44.944C10.993 45.0171 10.9207 45.1641 10.9325 45.1733C10.9147 45.202 10.7358 45.4368 10.716 45.4499L10.7154 45.4447Z" fill="#B8B8B8"/>
<path d="M9.834 36.3407C9.834 36.3407 9.76951 36.3807 9.66751 36.4201C9.57868 36.4791 9.38057 36.4351 9.27066 36.3694C9.1785 36.2749 9.08699 36.1008 9.12252 36.0008C9.13039 35.8937 9.15868 35.8212 9.15868 35.8212C9.16263 35.81 9.49497 35.7734 9.50616 35.7773C9.50616 35.7773 9.55224 35.8033 9.6095 35.8332C9.65294 35.8808 9.70953 35.8206 9.69045 35.8389C9.70361 35.8161 9.65886 35.8854 9.71613 35.9153C9.75891 35.9576 9.79577 35.9954 9.79577 35.9954C9.80039 36.032 9.8419 36.3185 9.83927 36.3401L9.834 36.3407Z" fill="#B8B8B8"/>
<path d="M24.3225 33.0269C24.3225 33.0269 24.235 33.1387 24.0784 33.254C23.9277 33.3738 23.6803 33.4899 23.4565 33.4969C23.2321 33.4987 22.9228 33.3786 22.7924 33.1934C22.643 33.0266 22.6134 32.8765 22.6028 32.8778C22.6002 32.857 22.8766 32.6735 22.8937 32.682C22.893 32.6768 22.9885 32.7549 23.1109 32.7925C23.2248 32.8471 23.3491 32.8155 23.4465 32.8244C23.5479 32.8222 23.7091 32.8284 23.8605 32.7987C24.0079 32.7801 24.1316 32.7433 24.1316 32.7433C24.1665 32.7654 24.3304 33.0047 24.3232 33.0321L24.3225 33.0269Z" fill="#B8B8B8"/>
<path d="M26.8549 39.1903C26.8549 39.1903 26.7187 39.2977 26.514 39.4137C26.3028 39.5199 26.0125 39.6361 25.7414 39.6067C25.6137 39.6122 25.4558 39.5472 25.3143 39.4855C25.1793 39.3911 25.0444 39.2968 24.9746 39.1676C24.8903 39.0509 24.8607 38.9433 24.8396 38.861C24.8192 38.784 24.808 38.7377 24.808 38.7377C24.8047 38.7116 25.1239 38.6129 25.141 38.6214C25.1502 38.6096 25.2213 38.7492 25.3536 38.8227C25.4774 38.9132 25.634 38.9252 25.7893 38.9269C25.9315 38.9514 26.1598 38.9385 26.356 38.9243C26.5508 38.8997 26.7081 38.8746 26.7081 38.8746C26.7429 38.8967 26.8726 39.1615 26.8601 39.1896L26.8549 39.1903Z" fill="#B8B8B8"/>
<path d="M49.9563 47.4584C49.9563 47.4584 49.8707 47.5011 49.7536 47.5477C49.6318 47.6002 49.4732 47.6149 49.3482 47.5988C49.0961 47.5511 48.8381 47.2865 48.8381 47.2865C48.8315 47.2768 48.942 46.9657 48.9572 46.9585C48.9572 46.9585 49.3099 46.914 49.4679 46.9365C49.5488 46.9422 49.6535 47.0086 49.7482 47.0391C49.8391 47.0806 49.918 47.1131 49.918 47.1131C49.9332 47.1483 49.9694 47.4356 49.9615 47.4578L49.9563 47.4584Z" fill="#B8B8B8"/>
<path d="M40.362 34.5413C40.362 34.5413 40.1718 34.6873 39.8869 34.8453C39.6013 34.998 39.2156 35.1634 38.8642 35.1759C38.6964 35.2024 38.4871 35.1546 38.2956 35.1204C38.1047 35.049 37.9086 34.9782 37.7756 34.8571C37.6242 34.7595 37.5288 34.6389 37.4649 34.5567C37.4011 34.4746 37.3622 34.4212 37.3622 34.4212C37.3425 34.3918 37.5991 34.179 37.6268 34.1862C37.6268 34.1862 37.6728 34.2122 37.7433 34.2617C37.8137 34.3111 37.9131 34.3782 38.0348 34.4105C38.2678 34.5191 38.5778 34.5171 38.8266 34.4963C39.072 34.4919 39.4175 34.4323 39.6979 34.3651C39.9782 34.2979 40.1994 34.2276 40.1994 34.2276C40.2441 34.2432 40.3784 34.5021 40.3613 34.5361L40.362 34.5413Z" fill="#B8B8B8"/>
<path d="M43.8232 37.346C43.8232 37.346 43.7436 37.3932 43.6192 37.4673C43.4896 37.542 43.3119 37.6599 43.0809 37.7368C42.642 37.946 42.0201 38.0192 41.5311 38.0014C41.0526 37.9397 40.4353 37.7524 40.0568 37.4234C39.8475 37.2907 39.7086 37.1225 39.6085 37.0078C39.5085 36.8931 39.4519 36.826 39.4519 36.826C39.4203 36.7876 39.6769 36.5748 39.7164 36.591C39.7164 36.591 39.7816 36.6412 39.8875 36.718C39.9942 36.8 40.1317 36.9153 40.3285 36.9913C40.6872 37.2059 41.2039 37.2734 41.5902 37.3254C41.9877 37.3389 42.5096 37.3633 42.9281 37.2468C43.3467 37.1727 43.654 37.0225 43.656 37.0382C43.7113 37.0525 43.8554 37.3048 43.8232 37.346Z" fill="#B8B8B8"/>
<path d="M38.3954 38.031C38.3954 38.031 38.1098 38.1838 37.6926 38.2682C37.2793 38.3841 36.7357 38.3572 36.325 38.2817C35.9209 38.1735 35.4279 37.9545 35.108 37.666C34.9369 37.539 34.8125 37.4009 34.7302 37.2998C34.6427 37.1995 34.5926 37.1421 34.5926 37.1421C34.567 37.1082 34.8117 36.8864 34.8512 36.9026C34.8512 36.9026 34.9098 36.9429 35.0039 37.0107C35.0981 37.0784 35.2277 37.1734 35.3975 37.2475C35.7148 37.4303 36.1511 37.5396 36.4888 37.6297C36.8284 37.6929 37.2693 37.7964 37.6352 37.7715C37.9998 37.7785 38.2789 37.7009 38.2802 37.7113C38.3256 37.7321 38.4303 38.0107 38.3967 38.0414L38.3954 38.031Z" fill="#B8B8B8"/>
<path d="M52.7637 35.6289C52.7637 35.6289 52.4366 35.8346 52.2102 35.8632C51.9839 35.8918 51.6159 35.7737 51.6159 35.7737C51.6048 35.7698 51.5632 35.4408 51.5725 35.4291C51.5725 35.4291 51.9048 35.2227 52.1259 35.1948C52.3523 35.1662 52.7202 35.2842 52.7202 35.2842C52.7353 35.3195 52.7716 35.6067 52.7637 35.6289Z" fill="#B8B8B8"/>
<path d="M43.5277 43.564C43.5277 43.564 43.2375 43.7651 43.0098 43.7832C42.8986 43.7919 42.7439 43.7531 42.613 43.69C42.4774 43.6329 42.3773 43.5182 42.3773 43.5182C42.3642 43.4986 42.578 43.2435 42.5879 43.2369C42.5879 43.2369 42.6221 43.2114 42.6938 43.1864C42.7702 43.1556 42.8774 43.1155 42.9676 43.1094C43.1486 43.1025 43.4842 43.2193 43.4842 43.2193C43.4994 43.2545 43.5356 43.5418 43.5277 43.564Z" fill="#B8B8B8"/>
<path d="M46.7378 49.9284C46.7378 49.9284 46.6877 49.9559 46.6029 50.0038C46.518 50.0516 46.3989 50.125 46.2554 50.1749C45.9672 50.3068 45.5763 50.388 45.261 50.3906C44.9445 50.3828 44.5476 50.2897 44.2606 50.1349C43.9704 49.9964 43.7986 49.8218 43.7946 49.8329C43.7703 49.8095 43.9492 49.5323 43.9762 49.5342C43.9802 49.523 44.1684 49.616 44.4356 49.6566C44.6943 49.7141 45.0207 49.7153 45.2668 49.7161C45.5182 49.7162 45.8512 49.7273 46.1184 49.6829C46.2566 49.6761 46.3757 49.6452 46.4593 49.6293C46.5488 49.618 46.6008 49.6061 46.6008 49.6061C46.641 49.6276 46.7555 49.8996 46.7378 49.9284Z" fill="#B8B8B8"/>
<path d="M58.4211 47.568C58.4211 47.568 58.0835 47.775 57.8288 47.7913C57.7005 47.7915 57.53 47.7547 57.399 47.6917C57.2621 47.624 57.1739 47.5609 57.1739 47.5609C57.1621 47.5518 57.2778 47.2401 57.2877 47.2335C57.2877 47.2335 57.3706 47.2125 57.4694 47.1894C57.5674 47.1611 57.6957 47.1184 57.7971 47.1162C57.9998 47.1118 58.3776 47.2233 58.3776 47.2233C58.3927 47.2585 58.429 47.5458 58.4211 47.568Z" fill="#B8B8B8"/>
<path d="M50.5 56.5149C50.5 56.5149 50.4335 56.5392 50.315 56.5754C50.2018 56.6109 50.038 56.6687 49.8438 56.6985C49.4595 56.7894 48.9606 56.7781 48.5776 56.7097C48.2025 56.6191 47.7398 56.4282 47.4265 56.1918C47.2632 56.0851 47.1369 55.9737 47.046 55.8897C46.9558 55.8109 46.9012 55.7594 46.9012 55.7594C46.8709 55.7314 47.0789 55.4718 47.1177 55.4828C47.1177 55.4828 47.1802 55.512 47.2776 55.5634C47.375 55.6148 47.5126 55.6876 47.6752 55.7467C47.9931 55.8922 48.4051 55.9782 48.7243 56.0493C49.0415 56.1048 49.4594 56.1953 49.8062 56.1886C49.9793 56.2039 50.132 56.1847 50.2439 56.1811C50.3558 56.1776 50.4249 56.1742 50.4249 56.1742C50.4709 56.2002 50.5388 56.4835 50.5052 56.5142L50.5 56.5149Z" fill="#B8B8B8"/>
<path d="M58.6404 56.469C58.6404 56.469 58.5983 56.5592 58.5319 56.7109C58.4536 56.8534 58.3411 57.0639 58.1516 57.2576C57.8028 57.6729 57.1665 58.0132 56.6163 58.0614C56.076 58.1455 55.3356 57.9153 54.9498 57.4865C54.757 57.2721 54.6497 57.0575 54.5871 56.901C54.5397 56.7372 54.5114 56.64 54.5114 56.64C54.4989 56.5832 54.8194 56.495 54.8457 56.5341C54.8457 56.5341 54.8872 56.6085 54.9504 56.7278C55.0234 56.8406 55.1432 56.9846 55.2986 57.1136C55.6244 57.3643 56.1443 57.4578 56.5425 57.3916C56.9453 57.362 57.4566 57.1755 57.7955 56.894C57.9718 56.7656 58.0968 56.6119 58.185 56.5053C58.2666 56.3889 58.3166 56.3189 58.3166 56.3189C58.3725 56.2959 58.6391 56.4162 58.6299 56.4704L58.6404 56.469Z" fill="#B8B8B8"/>
<path d="M61.8601 57.145C61.8601 57.145 61.506 57.3064 60.9888 57.4035C60.4781 57.5104 59.8088 57.5047 59.2987 57.3621C58.79 57.23 58.1798 56.8455 57.8704 56.3858C57.7137 56.1616 57.6163 55.9404 57.5643 55.7825C57.5228 55.6233 57.4945 55.5261 57.4945 55.5261C57.4872 55.4686 57.8025 55.3811 57.8288 55.4202C57.8288 55.4202 57.865 55.4952 57.9348 55.6244C58.0092 55.7476 58.1152 55.9093 58.2679 56.0598C58.5746 56.3712 59.0696 56.6059 59.4895 56.712C59.9001 56.83 60.4721 56.9117 60.9406 56.895C61.4105 56.8887 61.7646 56.8122 61.7646 56.8122C61.8205 56.8317 61.9147 57.1116 61.8653 57.1443L61.8601 57.145Z" fill="#B8B8B8"/>
<path d="M67.5707 57.5968C67.5707 57.5968 67.4115 57.6912 67.1706 57.7747C66.9364 57.8679 66.6001 57.9156 66.3282 57.881C66.0597 57.83 65.7293 57.6701 65.5529 57.4589C65.3627 57.2654 65.2909 57.0781 65.281 57.0847C65.2672 57.0599 65.5304 56.8569 65.5528 56.8647C65.5574 56.8588 65.6838 56.9702 65.8654 57.0534C66.0385 57.1536 66.2663 57.1779 66.442 57.2141C66.6164 57.2398 66.8678 57.2823 67.0863 57.276C67.3009 57.2807 67.4759 57.2693 67.4759 57.2693C67.5062 57.2973 67.5951 57.5778 67.5767 57.6014L67.5707 57.5968Z" fill="#B8B8B8"/>
<path d="M70.1704 47.8519C70.1704 47.8519 69.9947 47.9006 69.7552 47.9521C69.5124 48.0199 69.2076 48.0212 68.9701 48.0034C68.7325 47.9856 68.4389 47.8635 68.2184 47.7693C67.994 47.6438 67.842 47.541 67.842 47.541C67.8183 47.5227 67.9742 47.2325 67.9952 47.2298C67.9952 47.2298 68.1585 47.2517 68.371 47.2832C68.5915 47.2925 68.8521 47.3233 69.0568 47.3346C69.4609 47.4003 70.1269 47.5073 70.1269 47.5073C70.1526 47.5412 70.1889 47.8284 70.1704 47.8519Z" fill="#B8B8B8"/>
<path d="M65.621 47.105C65.621 47.105 65.2624 47.2299 64.7629 47.2982C64.264 47.3718 63.6164 47.3686 63.1136 47.1986C62.8628 47.1189 62.5824 46.9739 62.3448 46.7439C62.098 46.5257 61.9591 46.1878 61.9287 45.9051C61.8826 45.3274 62.1017 44.9867 62.08 44.9841C62.1003 44.9338 62.4182 45.037 62.4189 45.0846C62.4189 45.0846 62.4077 45.1656 62.3933 45.3054C62.3801 45.3707 62.3854 45.4549 62.3907 45.5391C62.3861 45.6299 62.4131 45.7167 62.4355 45.8093C62.5211 46.1911 62.9325 46.4416 63.332 46.5557C63.7124 46.688 64.2751 46.7815 64.7358 46.787C65.1978 46.803 65.5512 46.7637 65.5512 46.7637C65.6025 46.789 65.6704 47.0723 65.6263 47.1044L65.621 47.105Z" fill="#B8B8B8"/>
<path d="M66.5847 48.8933C66.5847 48.8933 66.5169 48.9072 66.4129 48.9309C66.303 48.9501 66.153 48.9903 65.9707 48.9867C65.6127 49.0319 65.1526 48.9467 64.809 48.8097C64.4786 48.6498 64.0857 48.3333 63.9283 47.9765C63.8224 47.8148 63.7914 47.6543 63.7664 47.5407C63.7413 47.4271 63.7275 47.3599 63.7275 47.3599C63.7229 47.3234 64.0447 47.2456 64.0691 47.2691C64.0691 47.2691 64.0967 47.3186 64.1494 47.3969C64.1968 47.4758 64.2488 47.5912 64.3626 47.6883C64.5358 47.9158 64.8543 48.0666 65.0946 48.1901C65.348 48.2907 65.6928 48.4382 65.9969 48.4741C66.1463 48.5136 66.2852 48.512 66.3832 48.5262C66.4806 48.5351 66.5405 48.5434 66.5405 48.5434C66.5767 48.576 66.613 48.8632 66.584 48.8881L66.5847 48.8933Z" fill="#B8B8B8"/>
<path d="M62.9167 35.0851C62.9167 35.0851 62.8647 35.0969 62.7825 35.1232C62.6943 35.145 62.5758 35.1811 62.433 35.1939C62.1507 35.2454 61.7848 35.2279 61.509 35.1619C61.2359 35.0744 60.8995 34.9099 60.6915 34.7027C60.5783 34.6109 60.496 34.5099 60.4394 34.4427C60.3828 34.3756 60.3506 34.3319 60.3506 34.3319C60.3315 34.3078 60.569 34.0709 60.5914 34.0787C60.5914 34.0787 60.6315 34.1002 60.7006 34.1392C60.7697 34.1782 60.8573 34.2362 60.9744 34.2744C61.1864 34.3856 61.4766 34.4392 61.6885 34.5079C61.909 34.5597 62.1881 34.6518 62.4382 34.6839C62.5593 34.7111 62.6672 34.7187 62.7482 34.7244C62.8298 34.7353 62.8785 34.7397 62.8785 34.7397C62.9094 34.773 62.9457 35.0602 62.922 35.0844L62.9167 35.0851Z" fill="#B8B8B8"/>
<path d="M63.4714 38.2513C63.4714 38.2513 63.322 38.2966 63.1028 38.3402C62.8923 38.4092 62.6139 38.3648 62.396 38.3339C62.1946 38.2638 61.9432 38.1364 61.7852 37.9866C61.6272 37.8368 61.5219 37.7227 61.5219 37.7227C61.5088 37.7032 61.7167 37.4435 61.7384 37.4461C61.7384 37.4461 61.8779 37.4921 62.0451 37.5453C62.2136 37.6089 62.4301 37.6293 62.5762 37.6852C62.7335 37.7024 62.9251 37.8215 63.108 37.8303C63.2844 37.8717 63.422 37.9021 63.422 37.9021C63.4424 37.9366 63.4839 38.2232 63.4655 38.2467L63.4714 38.2513Z" fill="#B8B8B8"/>
<path d="M52.2718 45.8452C52.2718 45.8452 51.925 46.0216 51.7144 45.9633C51.5097 45.9096 51.2964 45.6606 51.2964 45.6606C51.2899 45.6508 51.4004 45.3398 51.4155 45.3326C51.4155 45.3326 51.734 45.2712 51.8775 45.3061C52.0164 45.3469 52.223 45.5012 52.2336 45.4999C52.2435 45.5358 52.285 45.8223 52.2771 45.8446L52.2718 45.8452Z" fill="#B8B8B8"/>
<path d="M75.9278 47.2739C75.9278 47.2739 75.8929 47.2942 75.8383 47.3276C75.7784 47.3617 75.6988 47.4089 75.5968 47.4483C75.3994 47.5369 75.1263 47.5766 74.9104 47.5614C74.6978 47.5299 74.4346 47.4358 74.2621 47.2984C74.0811 47.178 73.983 47.0365 73.9784 47.0424C73.9652 47.0229 74.1732 46.7632 74.1896 46.7664C74.1896 46.7664 74.3134 46.8145 74.4766 46.8363C74.6365 46.8745 74.8339 46.8708 74.9807 46.8894C75.1321 46.9021 75.3302 46.9461 75.496 46.9464C75.6638 46.9624 75.7948 46.9405 75.8014 46.9503C75.8317 46.9783 75.941 47.251 75.9278 47.2739Z" fill="#B8B8B8"/>
<path d="M72.0905 45.6891C72.0905 45.6891 71.8739 45.7111 71.5758 45.7222C71.2757 45.7601 70.9118 45.6734 70.6268 45.6191C70.3523 45.5211 70.0154 45.3515 69.783 45.1633C69.55 44.9699 69.392 44.82 69.392 44.82C69.3729 44.7959 69.5756 44.5369 69.6085 44.5434C69.6085 44.5434 69.7948 44.6206 70.0429 44.722C70.2851 44.8187 70.6043 44.8899 70.834 44.9723C71.0808 45.0207 71.373 45.1748 71.635 45.216C71.8949 45.284 72.0944 45.3385 72.0944 45.3385C72.1207 45.3776 72.1148 45.6701 72.0852 45.6898L72.0905 45.6891Z" fill="#B8B8B8"/>
<path d="M76.0995 35.9202C76.0995 35.9202 76.0488 35.9425 75.9725 35.9734C75.8902 35.9997 75.7804 36.0613 75.6329 36.0799C75.3532 36.1523 74.9564 36.144 74.6602 36.001C74.3739 35.8515 74.0902 35.5106 74.0414 35.209C73.9618 34.9167 73.994 34.7057 73.9835 34.7071C73.9848 34.6751 74.3171 34.6384 74.3309 34.6632C74.3415 34.6619 74.3908 34.8413 74.5139 35.0115C74.6186 35.2052 74.8246 35.3118 74.9642 35.4003C75.1175 35.4711 75.3591 35.5627 75.5907 35.5759C75.7006 35.5992 75.8105 35.58 75.881 35.587C75.956 35.5882 76.004 35.5874 76.004 35.5874C76.0343 35.6154 76.1179 35.8966 76.0949 35.9261L76.0995 35.9202Z" fill="#B8B8B8"/>
<path d="M39.3087 24.2865C39.3087 24.2865 39.2817 24.1997 39.252 24.0921C39.2165 23.9799 39.1776 23.8415 39.1743 23.7305C39.171 23.6195 39.2065 23.4771 39.2394 23.3562C39.2585 23.2955 39.2736 23.2458 39.2848 23.2073C39.2934 23.1903 39.2966 23.1739 39.3006 23.1628L39.2993 23.1524L39.3947 22.9759L39.6514 23.1027L39.652 23.1079L39.6527 23.1131C39.6435 23.1249 39.317 23.1661 39.3052 23.157C39.3052 23.157 39.2894 23.1589 39.321 23.155L39.421 23.1423L39.4421 23.1397L39.5007 23.18L39.5474 23.1264L39.6106 23.1184C39.6948 23.1078 39.6421 23.1144 39.6579 23.1124C39.6579 23.1124 39.6579 23.1124 39.6586 23.1177C39.6599 23.1281 39.6724 23.1424 39.6803 23.1627C39.6961 23.2031 39.7238 23.2527 39.7475 23.3133C39.8001 23.434 39.8462 23.5874 39.8509 23.7088C39.8502 23.8309 39.8121 23.9949 39.7588 24.1236C39.7108 24.2517 39.6476 24.3446 39.6476 24.3446C39.6108 24.3492 39.3205 24.2956 39.3021 24.2768L39.3087 24.2865Z" fill="#89594F"/>
<path d="M43.3666 24.2731C43.3666 24.2731 42.8407 24.175 42.5485 24.0209C42.2582 23.84 41.9166 23.4216 41.9166 23.4216C41.9041 23.4073 42.112 23.1476 42.133 23.1449C42.133 23.1449 42.6313 23.2784 42.8919 23.4365C43.1677 23.5873 43.5251 23.9614 43.5251 23.9614C43.5245 23.9986 43.3922 24.2646 43.3666 24.2731Z" fill="#89594F"/>
<path d="M43.4611 20.8711C43.4611 20.8711 43.4315 20.9757 43.3453 21.098C43.2598 21.2255 43.0979 21.3414 42.9584 21.3802C42.8129 21.4145 42.628 21.3901 42.4917 21.3277C42.3568 21.2758 42.2772 21.1956 42.2778 21.2009C42.266 21.1917 42.3818 20.88 42.391 20.8683C42.4028 20.8774 42.6733 20.7743 42.7898 20.7224C42.8516 20.704 42.949 20.713 43.0319 20.6919C43.1162 20.6812 43.1873 20.6511 43.1925 20.6504C43.2267 20.6673 43.463 20.8444 43.4657 20.8653L43.4611 20.8711Z" fill="#89594F"/>
<path d="M37.8808 27.1724C37.8808 27.1724 37.6833 26.879 37.6701 26.6472C37.6563 26.4102 37.907 26.0656 37.9083 26.076C37.9175 26.0643 38.2314 26.1785 38.238 26.1883C38.2393 26.1987 38.3368 26.4623 38.3526 26.6301C38.3533 26.8051 38.2336 27.1279 38.2336 27.1279C38.198 27.143 37.9085 27.1795 37.8861 27.1717L37.8808 27.1724Z" fill="#89594F"/>
<path d="M32.7829 25.8953C32.7829 25.8953 32.9803 25.5945 33.1692 25.4805C33.3587 25.3717 33.7345 25.3401 33.7345 25.3401C33.7503 25.3382 33.9353 25.6172 33.9313 25.6283C33.9313 25.6283 33.7339 25.9291 33.5451 26.0431C33.3556 26.1519 32.9798 26.1834 32.9798 26.1834C32.9502 26.1606 32.7856 25.9161 32.7829 25.8953Z" fill="#89594F"/>
<path d="M42.149 28.1033C42.149 28.1033 41.941 27.7688 41.9252 27.5162C41.9252 27.3888 41.9626 27.2197 42.0265 27.0896C42.0949 26.9536 42.1587 26.866 42.1587 26.866C42.1679 26.8542 42.4812 26.9632 42.4884 26.9782C42.4884 26.9782 42.5095 27.0604 42.5326 27.1583C42.5609 27.2556 42.6037 27.3828 42.6057 27.4833C42.6097 27.6844 42.4965 28.0595 42.4965 28.0595C42.461 28.0746 42.1714 28.1111 42.149 28.1033Z" fill="#89594F"/>
<path d="M46.5742 27.5236C46.5742 27.5236 46.4788 27.4879 46.3524 27.419C46.2168 27.3618 46.1095 27.1897 46.0509 27.0645C45.9686 26.7937 46.0962 26.4486 46.0962 26.4486C46.1002 26.4375 46.4319 26.3957 46.4437 26.4048C46.4437 26.4048 46.6432 26.7139 46.6919 26.8456C46.7314 26.9043 46.7018 27.0089 46.7439 27.0884C46.7709 27.1752 46.7914 27.2522 46.7914 27.2522C46.7743 27.2862 46.5946 27.5158 46.5742 27.5236Z" fill="#89594F"/>
<path d="M47.9991 23.7257C47.9991 23.7257 47.6523 23.9445 47.3515 23.9348C47.2061 23.9266 47.0106 23.8611 46.8796 23.7556C46.7447 23.6612 46.6821 23.5471 46.6835 23.5575C46.6762 23.5425 46.8841 23.2828 46.8947 23.2815C46.8947 23.2815 46.9769 23.2976 47.0776 23.2902C47.1685 23.2894 47.2882 23.2637 47.3797 23.268C47.5633 23.282 47.9569 23.3915 47.9569 23.3915C47.972 23.4267 48.0083 23.7139 48.0004 23.7362L47.9991 23.7257Z" fill="#89594F"/>
<path d="M43.5872 18.3512C43.5872 18.3512 43.5511 18.4459 43.4813 18.5714C43.4234 18.7061 43.2497 18.8129 43.1234 18.8713C42.8502 18.9535 42.5027 18.8276 42.5027 18.8276C42.4916 18.8237 42.45 18.4947 42.4592 18.4829C42.4592 18.4829 42.7705 18.2792 42.9041 18.2358C42.9633 18.1965 43.0686 18.2256 43.1489 18.1836C43.2364 18.1567 43.3141 18.1363 43.3141 18.1363C43.3483 18.1532 43.5793 18.3309 43.5872 18.3512Z" fill="#89594F"/>
<path d="M29.0919 27.247C29.0919 27.247 29.1156 27.1804 29.1438 27.1079C29.1827 27.034 29.1879 26.9484 29.2313 26.9111C29.257 26.8601 29.3399 26.8391 29.4018 26.7782C29.4709 26.7324 29.5248 26.6937 29.5248 26.6937C29.5354 26.6924 29.848 26.7962 29.8552 26.8112C29.8552 26.8112 29.8651 26.8895 29.8678 26.9953C29.8809 27.0997 29.8237 27.2396 29.7711 27.3311C29.6947 27.4044 29.5723 27.4941 29.467 27.5074C29.3637 27.5364 29.2841 27.5411 29.2841 27.5411C29.2597 27.5177 29.0952 27.2732 29.0873 27.2529L29.0919 27.247Z" fill="#89594F"/>
<path d="M48.1301 20.908C48.1301 20.908 47.7906 21.2267 47.4161 21.1838C47.2549 21.1776 47.0462 21.0501 46.9422 20.9465C46.8369 20.8324 46.7717 20.7399 46.7717 20.7399C46.7645 20.7249 46.9724 20.4652 46.9882 20.4632C46.9882 20.4632 47.081 20.478 47.1909 20.5013C47.2468 20.5208 47.3034 20.503 47.3521 20.5075C47.3995 20.5015 47.4397 20.5229 47.4864 20.5117C47.5667 20.5122 47.6746 20.5623 47.7918 20.5581C47.9056 20.5702 48.0037 20.5844 48.0037 20.5844C48.0287 20.6131 48.1327 20.8864 48.1301 20.908Z" fill="#89594F"/>
<path d="M48.35 26.5091C48.35 26.5091 48.3244 26.4327 48.2974 26.346C48.2756 26.2585 48.2519 26.1554 48.2644 26.0849C48.2835 25.9817 48.3539 25.8614 48.4118 25.7692C48.4697 25.677 48.5269 25.622 48.5269 25.622C48.5368 25.6155 48.8501 25.7245 48.8567 25.7343C48.8567 25.7343 48.8823 25.8106 48.9093 25.8974C48.9311 25.9848 48.9548 26.0879 48.9423 26.1585C48.9232 26.2617 48.8528 26.382 48.7949 26.4742C48.737 26.5664 48.6798 26.6213 48.6798 26.6213C48.6423 26.6208 48.3678 26.5228 48.35 26.5091Z" fill="#89594F"/>
<path d="M52.8149 25.9032C52.8149 25.9032 52.3279 25.9859 52.0383 25.9375C51.7481 25.884 51.3236 25.6564 51.3236 25.6564C51.3117 25.6473 51.3722 25.3213 51.3926 25.3134C51.3926 25.3134 51.8796 25.2307 52.1685 25.2739C52.4588 25.3274 52.8839 25.5603 52.8839 25.5603C52.8886 25.5968 52.834 25.8849 52.8149 25.9032Z" fill="#89594F"/>
<path d="M51.5381 22.3984C51.5381 22.3984 51.2479 22.5995 51.009 22.6137C50.8964 22.612 50.7306 22.5693 50.6207 22.5036C50.5048 22.4333 50.4331 22.3734 50.4331 22.3734C50.4212 22.3643 50.537 22.0526 50.5469 22.046C50.5581 22.0499 50.8299 21.9572 50.9878 21.9373C51.1589 21.9369 51.4893 22.0544 51.4893 22.0544C51.5045 22.0896 51.5407 22.3768 51.5328 22.3991L51.5381 22.3984Z" fill="#89594F"/>
<path d="M50.7194 28.8787C50.7194 28.8787 50.6318 28.4812 50.7771 28.1923C50.8745 28.0739 51.0193 27.9071 51.1759 27.8767C51.3246 27.8261 51.4293 27.8076 51.4293 27.8076C51.4451 27.8056 51.5847 28.1063 51.5814 28.1226C51.5814 28.1226 51.5373 28.1972 51.484 28.2835C51.4129 28.3561 51.4281 28.4762 51.3695 28.5207C51.2998 28.6463 51.0649 28.9465 51.0649 28.9465C51.028 28.9511 50.7378 28.8976 50.7194 28.8787Z" fill="#89594F"/>
<path d="M55.9475 26.2294C55.9475 26.2294 55.6172 26.2817 55.4335 26.2253C55.2538 26.1577 55.03 25.9101 55.03 25.9101C55.0235 25.9003 55.134 25.5893 55.1491 25.5821C55.1491 25.5821 55.4795 25.5298 55.6631 25.5862C55.8428 25.6537 56.0666 25.9013 56.0666 25.9013C56.0659 25.9385 55.9666 26.211 55.9475 26.2294Z" fill="#89594F"/>
<path d="M55.4023 23.7729C55.4023 23.7729 55.3931 24.0393 55.2161 24.12C55.145 24.1502 55.041 24.1315 54.9785 24.1022C54.916 24.073 54.8739 24.0359 54.8739 24.0359C54.8679 24.0313 54.8317 23.7016 54.8304 23.6912C54.8304 23.6912 54.9416 23.5127 54.9455 23.5016C54.9468 23.512 55.1193 23.5646 55.1291 23.558C55.1581 23.5756 55.3944 23.7527 55.4075 23.7722L55.4023 23.7729Z" fill="#89594F"/>
<path d="M23.8004 27.1084C23.8004 27.1084 23.7615 26.8003 23.8312 26.6323C23.8898 26.5029 24.1425 26.3437 24.1425 26.3437C24.153 26.3424 24.4656 26.4462 24.4729 26.4612C24.4729 26.4612 24.5118 26.7693 24.442 26.9372C24.3835 27.0666 24.1314 27.2311 24.1314 27.2311C24.0933 27.2253 23.8195 27.1325 23.801 27.1136L23.8004 27.1084Z" fill="#89594F"/>
<path d="M18.4089 26.5155C18.4089 26.5155 18.9294 26.2323 19.2618 26.1532C19.6 26.0363 20.2002 26.003 20.2002 26.003C20.2213 26.0003 20.3411 26.3141 20.3266 26.3266C20.3266 26.3266 19.8245 26.6711 19.4606 26.7966C19.0704 26.883 18.4517 26.8549 18.4517 26.8549C18.4267 26.8263 18.3898 26.5338 18.4082 26.5103L18.4089 26.5155Z" fill="#89594F"/>
<path d="M45.9799 20.4844C45.9799 20.4844 46.0042 20.5927 45.9911 20.7429C45.9885 20.8918 45.9221 21.0859 45.8155 21.216C45.7029 21.3416 45.5022 21.4465 45.3324 21.4574C45.1692 21.478 45.0527 21.4449 45.0534 21.4501C45.0369 21.4469 45.0007 21.1172 45.0099 21.1055C45.0099 21.1055 45.0843 21.059 45.1448 20.9876C45.2119 20.9261 45.2481 20.8314 45.3007 20.7823C45.4027 20.7004 45.6363 20.4322 45.635 20.4218C45.6719 20.4171 45.9621 20.4707 45.9805 20.4896L45.9799 20.4844Z" fill="#89594F"/>
<path d="M60.54 26.8488C60.54 26.8488 60.4545 26.7217 60.357 26.543C60.2484 26.3604 60.1766 26.1307 60.1259 25.9408C60.062 25.5616 60.1534 24.9718 60.1481 24.9724C60.1508 24.9509 60.4825 24.909 60.4956 24.9286C60.4956 24.9286 60.73 25.472 60.7952 25.8192C60.838 25.9889 60.8302 26.2233 60.8473 26.4015C60.8592 26.5804 60.8671 26.7279 60.8671 26.7279C60.8388 26.758 60.5637 26.867 60.5407 26.854L60.54 26.8488Z" fill="#89594F"/>
<path d="M63.764 25.6939C63.764 25.6939 63.2316 25.7134 62.9045 25.622C62.5938 25.4914 62.1923 25.1495 62.1923 25.1495C62.1798 25.1352 62.3298 24.8404 62.3509 24.8377C62.3509 24.8377 62.8636 24.8738 63.1341 24.9829C63.4125 25.0698 63.8331 25.351 63.8331 25.351C63.8377 25.3875 63.7831 25.6756 63.764 25.6939Z" fill="#89594F"/>
<path d="M57.158 21.9598C57.158 21.9598 57.3713 22.336 57.3904 22.6148C57.3918 22.7526 57.3563 22.9374 57.2997 23.0825C57.2286 23.24 57.1661 23.3381 57.1661 23.3381C57.1569 23.3499 56.8437 23.2409 56.8311 23.2265C56.8311 23.2265 56.8094 23.1391 56.7844 23.0255C56.7541 22.9126 56.7087 22.7645 56.7047 22.6483C56.6961 22.4106 56.8046 21.999 56.8046 21.999C56.8395 21.9787 57.1291 21.9422 57.1521 21.9552L57.158 21.9598Z" fill="#89594F"/>
<path d="M64.7545 29.6009C64.7545 29.6009 64.6736 29.5528 64.5755 29.4962C64.482 29.4337 64.357 29.3752 64.2945 29.3035C64.1648 29.1661 64.0252 28.9078 64.0134 28.8987C64.0121 28.8882 64.1166 28.5726 64.1324 28.5706C64.1324 28.5706 64.2351 28.5789 64.3891 28.6125C64.5385 28.652 64.6721 28.736 64.7788 28.818C64.8604 28.9138 64.942 29.0521 64.9848 29.1793C65.0276 29.3065 65.0447 29.3998 65.0447 29.3998C65.0217 29.4293 64.7802 29.5924 64.7539 29.5957L64.7545 29.6009Z" fill="#89594F"/>
</svg>
