<svg width="358" height="183" viewBox="0 0 358 183" fill="none" xmlns="http://www.w3.org/2000/svg">
<path fill-rule="evenodd" clip-rule="evenodd" d="M358 0H0V6H12.3154L16.1133 10.0107C16.6436 10.5596 17.4932 10.5596 18.0127 10.0107L21.8115 6H30.3086L34.1064 10.0107C34.6367 10.5596 35.4863 10.5596 36.0059 10.0107L39.8047 6H48.3008L52.0996 10.0107C52.6299 10.5596 53.4795 10.5596 53.999 10.0107L57.7979 6H66.2939L70.0928 10.0107C70.6221 10.5596 71.4717 10.5596 71.9922 10.0107L75.79 6H84.2871L88.0859 10.0107C88.6152 10.5596 89.4648 10.5596 89.9844 10.0107L93.7832 6H102.28L106.078 10.0107C106.213 10.1499 106.368 10.2539 106.533 10.3228C107.019 10.5244 107.59 10.4204 107.978 10.0107L111.776 6H120.273L124.071 10.0107C124.602 10.5596 125.451 10.5596 125.971 10.0107L129.77 6H138.266L142.064 10.0107C142.343 10.2998 142.711 10.4365 143.072 10.4209C143.397 10.4072 143.718 10.2705 143.964 10.0107L147.763 6H156.259L160.058 10.0107C160.191 10.1499 160.346 10.2539 160.511 10.3223C160.996 10.5244 161.568 10.4204 161.957 10.0107L165.755 6H174.252L178.051 10.0107C178.58 10.5596 179.43 10.5596 179.949 10.0107L183.748 6H192.245L196.043 10.0107C196.573 10.5596 197.423 10.5596 197.942 10.0107L201.741 6H210.237L214.036 10.0107C214.566 10.5596 215.416 10.5596 215.936 10.0107L219.734 6H228.23L232.029 10.0107C232.559 10.5596 233.409 10.5596 233.929 10.0107L237.727 6H246.224L250.022 10.0107C250.552 10.5596 251.401 10.5596 251.922 10.0107L255.72 6H264.217L268.016 10.0107C268.545 10.5596 269.395 10.5596 269.914 10.0107L273.713 6H282.21L286.008 10.0107C286.538 10.5596 287.388 10.5596 287.907 10.0107L291.706 6H300.202L304.001 10.0107C304.531 10.5596 305.381 10.5596 305.9 10.0107L309.699 6H318.195L321.994 10.0107C322.523 10.5596 323.374 10.5596 323.894 10.0107L327.691 6H336.188L339.987 10.0107C340.517 10.5596 341.366 10.5596 341.887 10.0107L345.685 6H358V0ZM358 177H345.685L341.887 172.989C341.356 172.44 340.507 172.44 339.987 172.989L336.188 177H327.691L323.894 172.989C323.363 172.44 322.514 172.44 321.994 172.989L318.195 177H309.699L305.9 172.989C305.37 172.44 304.521 172.44 304.001 172.989L300.202 177H291.706L287.907 172.989C287.378 172.44 286.528 172.44 286.008 172.989L282.21 177H273.713L269.914 172.989C269.385 172.44 268.535 172.44 268.016 172.989L264.217 177H255.72L251.922 172.989C251.564 172.62 251.062 172.499 250.613 172.627C250.396 172.689 250.191 172.81 250.022 172.989L246.224 177H237.727L233.929 172.989C233.61 172.66 233.178 172.528 232.771 172.594C232.498 172.638 232.237 172.77 232.029 172.989L228.23 177H219.734L215.936 172.989C215.405 172.44 214.556 172.44 214.036 172.989L210.237 177H201.741L197.942 172.989C197.413 172.44 196.563 172.44 196.043 172.989L192.245 177H183.748L179.949 172.989C179.754 172.787 179.515 172.659 179.265 172.606C178.838 172.515 178.379 172.643 178.051 172.989L174.252 177H165.755L161.957 172.989C161.63 172.651 161.181 172.521 160.764 172.6C160.504 172.649 160.257 172.779 160.058 172.989L156.259 177H147.763L143.964 172.989C143.434 172.44 142.584 172.44 142.064 172.989L138.266 177H129.77L125.971 172.989C125.585 172.589 125.029 172.481 124.555 172.664C124.378 172.732 124.212 172.84 124.071 172.989L120.273 177H111.776L107.978 172.989C107.448 172.44 106.599 172.44 106.078 172.989L102.28 177H93.7832L89.9844 172.989C89.4551 172.44 88.6055 172.44 88.0859 172.989L84.2871 177H75.79L71.9922 172.989C71.4619 172.44 70.6123 172.44 70.0928 172.989L66.2939 177H57.7979L53.999 172.989C53.4688 172.44 52.6191 172.44 52.0996 172.989L48.3008 177H39.8047L36.0059 172.989C35.4766 172.44 34.626 172.44 34.1064 172.989L30.3086 177H21.8115L18.0127 172.989C17.4834 172.44 16.6338 172.44 16.1133 172.989L12.3154 177H0V183H358V177Z" fill="#E66C6C"/>
</svg>
