<svg width="334" height="181" viewBox="0 0 334 181" fill="none" xmlns="http://www.w3.org/2000/svg">
<g clip-path="url(#clip0_2603_4416)">
<path fill-rule="evenodd" clip-rule="evenodd" d="M348 0H0V6L3.96522 9.96395C4.51826 10.5064 5.40522 10.5064 5.94782 9.96395L9.91304 6H18.7826L22.7478 9.96395C23.3009 10.5064 24.1878 10.5064 24.7304 9.96395L28.6957 6H37.5652L41.5304 9.96395C42.0835 10.5064 42.9704 10.5064 43.513 9.96395L47.4783 6H56.3478L60.313 9.96395C60.8661 10.5064 61.753 10.5064 62.2956 9.96395L66.2609 6H75.1304L79.0956 9.96395C79.6487 10.5064 80.5356 10.5064 81.0782 9.96395L85.0435 6H93.913L97.8783 9.96395C98.4313 10.5064 99.3183 10.5064 99.8609 9.96395L103.826 6H112.696L116.661 9.96395C117.214 10.5064 118.101 10.5064 118.643 9.96395L122.609 6H131.478L135.443 9.96395C135.997 10.5064 136.883 10.5064 137.426 9.96395L141.391 6H150.261L154.226 9.96395C154.779 10.5064 155.666 10.5064 156.209 9.96395L160.174 6H169.043L173.009 9.96395C173.562 10.5064 174.449 10.5064 174.991 9.96395L178.957 6H187.826L191.791 9.96395C192.344 10.5064 193.231 10.5064 193.774 9.96395L197.739 6H206.609L210.574 9.96395C211.127 10.5064 212.014 10.5064 212.556 9.96395L216.522 6H225.391L229.357 9.96395C229.91 10.5064 230.797 10.5064 231.339 9.96395L235.304 6H244.174L248.139 9.96395C248.692 10.5064 249.579 10.5064 250.122 9.96395L254.087 6H262.957L266.922 9.96395C267.475 10.5064 268.362 10.5064 268.904 9.96395L272.87 6H281.739L285.704 9.96395C286.257 10.5064 287.144 10.5064 287.687 9.96395L291.652 6H300.522L304.487 9.96395C305.04 10.5064 305.927 10.5064 306.47 9.96395L310.435 6H319.304L323.27 9.96395C323.823 10.5064 324.71 10.5064 325.252 9.96395L329.217 6H338.087L342.052 9.96395C342.605 10.5064 343.492 10.5064 344.035 9.96395L348 6V0ZM348 175L344.035 171.036C343.482 170.494 342.595 170.494 342.052 171.036L338.087 175H329.217L325.252 171.036C324.699 170.494 323.812 170.494 323.27 171.036L319.304 175H310.435L306.47 171.036C305.917 170.494 305.03 170.494 304.487 171.036L300.522 175H291.652L287.687 171.036C287.134 170.494 286.247 170.494 285.704 171.036L281.739 175H272.87L268.904 171.036C268.351 170.494 267.464 170.494 266.922 171.036L262.957 175H254.087L250.122 171.036C249.569 170.494 248.682 170.494 248.139 171.036L244.174 175H235.304L231.339 171.036C230.786 170.494 229.899 170.494 229.357 171.036L225.391 175H216.522L212.556 171.036C212.003 170.494 211.117 170.494 210.574 171.036L206.609 175H197.739L193.774 171.036C193.221 170.494 192.334 170.494 191.791 171.036L187.826 175H178.957L174.991 171.036C174.438 170.494 173.551 170.494 173.009 171.036L169.043 175H160.174L156.209 171.036C155.656 170.494 154.769 170.494 154.226 171.036L150.261 175H141.391L137.426 171.036C136.873 170.494 135.986 170.494 135.443 171.036L131.478 175H122.609L118.643 171.036C118.09 170.494 117.203 170.494 116.661 171.036L112.696 175H103.826L99.8609 171.036C99.3078 170.494 98.4209 170.494 97.8783 171.036L93.913 175H85.0435L81.0782 171.036C80.5252 170.494 79.6383 170.494 79.0956 171.036L75.1304 175H66.2609L62.2956 171.036C61.7426 170.494 60.8557 170.494 60.313 171.036L56.3478 175H47.4783L43.513 171.036C42.96 170.494 42.073 170.494 41.5304 171.036L37.5652 175H28.6957L24.7304 171.036C24.1774 170.494 23.2904 170.494 22.7478 171.036L18.7826 175H9.91304L5.94782 171.036C5.39478 170.494 4.50782 170.494 3.96522 171.036L0 175V181H348V175Z" fill="#FE6F67"/>
</g>
<defs>
<clipPath id="clip0_2603_4416">
<rect width="334" height="181" fill="white"/>
</clipPath>
</defs>
</svg>
