<svg width="334" height="181" viewBox="0 0 334 181" fill="none" xmlns="http://www.w3.org/2000/svg">
<g clip-path="url(#clip0_2603_4416)">
<path fill-rule="evenodd" clip-rule="evenodd" d="M348 0H0V3L3.96522 7.10469C4.51826 7.66638 5.40522 7.66638 5.94782 7.10469L9.91304 3H18.7826L22.7478 7.10469C23.3009 7.66638 24.1878 7.66638 24.7304 7.10469L28.6957 3H37.5652L41.5304 7.10469C42.0835 7.66638 42.9704 7.66638 43.513 7.10469L47.4783 3H56.3478L60.313 7.10469C60.8661 7.66638 61.753 7.66638 62.2956 7.10469L66.2609 3H75.1304L79.0956 7.10469C79.6487 7.66638 80.5356 7.66638 81.0782 7.10469L85.0435 3H93.913L97.8783 7.10469C98.4313 7.66638 99.3183 7.66638 99.8609 7.10469L103.826 3H112.696L116.661 7.10469C117.214 7.66638 118.101 7.66638 118.643 7.10469L122.609 3H131.478L135.443 7.10469C135.997 7.66638 136.883 7.66638 137.426 7.10469L141.391 3H150.261L154.226 7.10469C154.779 7.66638 155.666 7.66638 156.209 7.10469L160.174 3H169.043L173.009 7.10469C173.562 7.66638 174.449 7.66638 174.991 7.10469L178.957 3H187.826L191.791 7.10469C192.344 7.66638 193.231 7.66638 193.774 7.10469L197.739 3H206.609L210.574 7.10469C211.127 7.66638 212.014 7.66638 212.556 7.10469L216.522 3H225.391L229.357 7.10469C229.91 7.66638 230.797 7.66638 231.339 7.10469L235.304 3H244.174L248.139 7.10469C248.692 7.66638 249.579 7.66638 250.122 7.10469L254.087 3H262.957L266.922 7.10469C267.475 7.66638 268.362 7.66638 268.904 7.10469L272.87 3H281.739L285.704 7.10469C286.257 7.66638 287.144 7.66638 287.687 7.10469L291.652 3H300.522L304.487 7.10469C305.04 7.66638 305.927 7.66638 306.47 7.10469L310.435 3H319.304L323.27 7.10469C323.823 7.66638 324.71 7.66638 325.252 7.10469L329.217 3H338.087L342.052 7.10469C342.605 7.66638 343.492 7.66638 344.035 7.10469L348 3V0ZM348 178L344.035 173.895C343.482 173.334 342.595 173.334 342.052 173.895L338.087 178H329.217L325.252 173.895C324.699 173.334 323.812 173.334 323.27 173.895L319.304 178H310.435L306.47 173.895C305.917 173.334 305.03 173.334 304.487 173.895L300.522 178H291.652L287.687 173.895C287.134 173.334 286.247 173.334 285.704 173.895L281.739 178H272.87L268.904 173.895C268.351 173.334 267.464 173.334 266.922 173.895L262.957 178H254.087L250.122 173.895C249.569 173.334 248.682 173.334 248.139 173.895L244.174 178H235.304L231.339 173.895C230.786 173.334 229.899 173.334 229.357 173.895L225.391 178H216.522L212.556 173.895C212.003 173.334 211.117 173.334 210.574 173.895L206.609 178H197.739L193.774 173.895C193.221 173.334 192.334 173.334 191.791 173.895L187.826 178H178.957L174.991 173.895C174.438 173.334 173.551 173.334 173.009 173.895L169.043 178H160.174L156.209 173.895C155.656 173.334 154.769 173.334 154.226 173.895L150.261 178H141.391L137.426 173.895C136.873 173.334 135.986 173.334 135.443 173.895L131.478 178H122.609L118.643 173.895C118.09 173.334 117.203 173.334 116.661 173.895L112.696 178H103.826L99.8609 173.895C99.3078 173.334 98.4209 173.334 97.8783 173.895L93.913 178H85.0435L81.0782 173.895C80.5252 173.334 79.6383 173.334 79.0956 173.895L75.1304 178H66.2609L62.2956 173.895C61.7426 173.334 60.8557 173.334 60.313 173.895L56.3478 178H47.4783L43.513 173.895C42.96 173.334 42.073 173.334 41.5304 173.895L37.5652 178H28.6957L24.7304 173.895C24.1774 173.334 23.2904 173.334 22.7478 173.895L18.7826 178H9.91304L5.94782 173.895C5.39478 173.334 4.50782 173.334 3.96522 173.895L0 178V181H348V178Z" fill="#FE6F67"/>
</g>
<defs>
<clipPath id="clip0_2603_4416">
<rect width="334" height="181" fill="white"/>
</clipPath>
</defs>
</svg>
