<svg width="350" height="119" viewBox="0 0 350 119" fill="none" xmlns="http://www.w3.org/2000/svg">
<path d="M19 0H227L246 16.66V102.34L227 119H19L0 102.34V16.66L19 0Z" fill="#8C8C8C"/>
<path d="M12.6798 20.5642L12.5 20.7141V20.9482V98.0518V98.2859L12.6798 98.4358L25.812 109.384L25.9511 109.5H26.1322H219.868H220.049L220.188 109.384L233.32 98.4358L233.5 98.2859V98.0518V20.9482V20.7141L233.32 20.5642L220.188 9.61596L220.049 9.5H219.868H26.1322H25.9511L25.812 9.61596L12.6798 20.5642Z" stroke="#747474"/>
<path d="M265 0H331L350 16.66V102.34L331 119H265L246 102.34V16.66L265 0Z" fill="#8C8C8C"/>
<line x1="246" y1="16" x2="246" y2="103" stroke="white" stroke-width="2" stroke-dasharray="4 4"/>
</svg>
