<svg width="359" height="182" viewBox="0 0 359 182" fill="none" xmlns="http://www.w3.org/2000/svg">
<path d="M357.08 175.202V6.50535H358.15V0H0V7.03252H3.33V174.938H0V181.464H358.15V175.202H357.08Z" fill="#E66C6C"/>
<path d="M345.9 5.32422L342.1 9.33075C341.58 9.87902 340.73 9.87902 340.2 9.33075L336.4 5.32422H327.9L324.1 9.33075C323.58 9.87902 322.73 9.87902 322.2 9.33075L318.4 5.32422H309.9L306.1 9.33075C305.58 9.87902 304.73 9.87902 304.2 9.33075L300.4 5.32422H291.9L288.1 9.33075C287.58 9.87902 286.73 9.87902 286.2 9.33075L282.4 5.32422H273.9L270.1 9.33075C269.58 9.87902 268.73 9.87902 268.2 9.33075L264.4 5.32422H255.9L252.1 9.33075C251.58 9.87902 250.73 9.87902 250.2 9.33075L246.4 5.32422H237.9L234.1 9.33075C233.58 9.87902 232.73 9.87902 232.2 9.33075L228.4 5.32422H219.9L216.1 9.33075C215.58 9.87902 214.73 9.87902 214.2 9.33075L210.4 5.32422H201.9L198.1 9.33075C197.58 9.87902 196.73 9.87902 196.2 9.33075L192.4 5.32422H183.9L180.1 9.33075C179.58 9.87902 178.73 9.87902 178.2 9.33075L174.4 5.32422H165.9L162.1 9.33075C161.58 9.87902 160.73 9.87902 160.2 9.33075L156.4 5.32422H147.9L144.1 9.33075C143.58 9.87902 142.73 9.87902 142.2 9.33075L138.4 5.32422H129.9L126.1 9.33075C125.58 9.87902 124.73 9.87902 124.2 9.33075L120.4 5.32422H111.9L108.1 9.33075C107.58 9.87902 106.73 9.87902 106.2 9.33075L102.4 5.32422H93.9001L90.1001 9.33075C89.5801 9.87902 88.7301 9.87902 88.2001 9.33075L84.4001 5.32422H75.9001L72.1001 9.33075C71.5801 9.87902 70.7301 9.87902 70.2001 9.33075L66.4001 5.32422H57.9001L54.1001 9.33075C53.5801 9.87902 52.7301 9.87902 52.2001 9.33075L48.4001 5.32422H39.9001L36.1001 9.33075C35.5801 9.87902 34.7301 9.87902 34.2001 9.33075L30.4001 5.32422H21.9001L18.1001 9.33075C17.5801 9.87902 16.7301 9.87902 16.2001 9.33075L12.4001 5.32422H0.0800781V176.14H12.4001L16.2001 172.133C16.7201 171.585 17.5701 171.585 18.1001 172.133L21.9001 176.14H30.4001L34.2001 172.133C34.7201 171.585 35.5701 171.585 36.1001 172.133L39.9001 176.14H48.4001L52.2001 172.133C52.7201 171.585 53.5701 171.585 54.1001 172.133L57.9001 176.14H66.4001L70.2001 172.133C70.7201 171.585 71.5701 171.585 72.1001 172.133L75.9001 176.14H84.4001L88.2001 172.133C88.7201 171.585 89.5701 171.585 90.1001 172.133L93.9001 176.14H102.4L106.2 172.133C106.72 171.585 107.57 171.585 108.1 172.133L111.9 176.14H120.4L124.2 172.133C124.72 171.585 125.57 171.585 126.1 172.133L129.9 176.14H138.4L142.2 172.133C142.72 171.585 143.57 171.585 144.1 172.133L147.9 176.14H156.4L160.2 172.133C160.72 171.585 161.57 171.585 162.1 172.133L165.9 176.14H174.4L178.2 172.133C178.72 171.585 179.57 171.585 180.1 172.133L183.9 176.14H192.4L196.2 172.133C196.72 171.585 197.57 171.585 198.1 172.133L201.9 176.14H210.4L214.2 172.133C214.72 171.585 215.57 171.585 216.1 172.133L219.9 176.14H228.4L232.2 172.133C232.72 171.585 233.57 171.585 234.1 172.133L237.9 176.14H246.4L250.2 172.133C250.72 171.585 251.57 171.585 252.1 172.133L255.9 176.14H264.4L268.2 172.133C268.72 171.585 269.57 171.585 270.1 172.133L273.9 176.14H282.4L286.2 172.133C286.72 171.585 287.57 171.585 288.1 172.133L291.9 176.14H300.4L304.2 172.133C304.72 171.585 305.57 171.585 306.1 172.133L309.9 176.14H318.4L322.2 172.133C322.72 171.585 323.57 171.585 324.1 172.133L327.9 176.14H336.4L340.2 172.133C340.72 171.585 341.57 171.585 342.1 172.133L345.9 176.14H358.22V5.32422H345.9Z" fill="white"/>
</svg>
