<svg width="84" height="68" viewBox="0 0 84 68" fill="none" xmlns="http://www.w3.org/2000/svg">
<path d="M77.9281 29.2211C79.454 39.1934 79.7055 47.5864 80.7049 57.6251L80.7879 58.2831C76.8077 58.7854 73.0242 58.727 69.0057 58.9689C49.3595 59.3049 28.9213 61.8841 9.37585 58.7377L6.58186 30.1979L77.9281 29.2211Z" fill="#FDDEA9"/>
<path d="M32.5627 43.5246C38.4029 43.8593 44.027 42.4811 50.0535 43.1901C55.8116 43.933 60.7034 44.2547 66.5804 43.7783C69.2503 43.574 80.1343 43.2721 79.7857 40.5096C79.5115 38.3372 66.9617 41.4595 60.9846 41.1421C50.8126 40.6857 40.1424 40.5627 29.8067 40.928C24.6904 41.0325 13.0183 38.9032 8.59978 39.6624C8.42491 36.878 8.25333 34.1622 8.09106 31.9438C8.22711 30.9027 7.22902 28.6732 5.13957 29.1968C4.60782 29.2639 4.17162 30.0882 3.97231 30.628C3.97231 30.628 4.84501 34.7037 5.12114 36.8917C5.77949 42.1086 5.88435 47.2203 6.34787 52.292C6.59327 55.6776 6.30685 58.7483 9.37633 58.7429C10.1838 58.7418 9.68688 54.38 9.42519 51.9248C12.5349 52.6624 14.4389 52.7458 16.9537 53.3886C22.2301 54.5955 27.5214 54.8615 32.9338 54.9849C43.4895 55.2603 54.6525 55.0505 65.3383 54.2378C70.0201 53.9123 74.6965 52.5263 79.3073 52.7403C80.9592 52.8183 81.028 50.6504 79.8532 50.666C75.4043 50.7181 69.6827 51.281 64.5724 51.3901C53.9853 51.925 43.5344 52.4375 32.8807 52.4451C24.8556 52.4286 17.2525 49.9078 9.24577 49.5707C9.09141 47.415 8.92446 44.8206 8.75487 42.1629C13.8589 43.9963 29.4754 43.3466 32.5627 43.5246Z" fill="#FF9798"/>
<path d="M77.6011 27.0978C78.4408 27.112 78.9573 27.4041 79.1504 27.9739C79.6363 28.9842 79.684 30.7608 78.7088 31.5948C77.756 32.6063 76.2514 32.0853 75.0142 32.2414C71.6275 32.4884 72.5804 35.7582 73.0474 38.0177C73.2247 39.4224 73.0934 41.2216 71.5423 41.7728C70.1702 42.3014 68.9959 41.5583 68.6449 40.1754C68.1338 37.5661 69.5752 34.705 66.8082 32.7411C64.4426 31.0767 60.8552 31.174 58.999 33.5463C56.9863 36.1187 57.5198 38.9056 57.6954 41.7376C58.0093 45.6239 54.1757 45.2111 54.6226 41.5896C54.798 40.1403 54.8222 38.8905 54.8457 37.6355C54.8474 36.2082 55.3756 34.7144 55.0417 33.5098C54.4199 30.0232 50.4196 32.4856 50.1758 34.8348C49.9562 35.9342 50.5521 37.8166 49.3814 38.5002C48.0317 39.2063 46.881 37.2082 46.3958 36.2031C45.6868 34.8655 45.3811 33.4186 43.9384 32.4123C42.8003 31.6168 41.0852 31.1648 39.6472 31.1712C36.4178 31.2233 34.1153 32.941 33.6295 36.212C33.4099 37.3114 33.8051 43.3254 30.8637 41.3782C29.6894 40.6351 30.0215 38.9857 29.8891 37.9361C29.6894 36.3538 28.8066 35.038 27.9186 33.723C25.795 31.1368 23.0532 30.7719 19.8845 31.3468C16.9 31.8985 15.9679 34.5149 15.9697 37.3689C16.1246 38.5961 16.5032 40.1558 16.1264 41.4501C15.7277 42.5721 14.5788 43.428 13.5612 42.4847C12.745 41.6965 12.7862 36.3436 12.8097 35.0886C12.6324 33.6838 12.4334 32.1067 11.063 31.208C10.0895 30.6147 8.67328 30.7934 8.09564 31.9379C7.47912 32.732 8.09918 33.3646 8.00848 34.087C7.78886 35.1863 7.2408 36.1415 6.28191 36.0874C3.38483 35.9331 3.50114 31.0058 4.08 29.3199C7.15651 20.3849 25.8783 13.9956 30.6588 13.3923L30.418 13.603C44.2037 17.3914 57.8275 21.3806 71.6131 25.169C73.8456 25.7785 76.0833 26.3874 78.142 27.0189L77.6103 27.086L77.6011 27.0978Z" fill="#FEFBEA"/>
<path d="M20.2669 23.1019C18.9172 20.1634 18.9198 15.6483 22.4221 14.5378C22.0039 9.10496 28.4425 9.89993 30.2688 6.1892C32.0466 7.43441 33.3375 9.14425 33.8551 11.0843C37.8368 11.6535 42.6167 15.3263 40.6267 19.8588C38.8498 23.9612 33.5922 24.8953 29.8251 24.9674C27.6704 24.9741 21.2163 25.1573 20.2715 23.096L20.2669 23.1019Z" fill="#FFDCDF"/>
<path d="M14.6778 40.5241C14.6778 40.5241 14.6738 40.2806 14.6711 39.8777C14.6572 39.471 14.6387 38.9004 14.6208 38.2501C14.5798 36.9502 14.5762 35.3113 14.8096 34.0245C14.9266 33.3837 15.1016 32.6507 15.4588 31.9637C15.7943 31.2741 16.3661 30.6343 17.0367 30.3534C17.7001 30.0574 18.3437 30.0717 18.7616 30.1198C18.9781 30.1402 19.1427 30.1725 19.2585 30.2003C19.3743 30.2281 19.4349 30.2417 19.4349 30.2417C19.5731 30.2773 19.4902 30.5955 19.3606 30.5853C19.3606 30.5853 19.3007 30.577 19.1921 30.5641C19.0828 30.5461 18.9249 30.5236 18.7321 30.5214C18.3444 30.5013 17.7877 30.5398 17.2606 30.8132C16.7321 31.0762 16.2972 31.6138 16.0229 32.2373C15.7373 32.857 15.5887 33.5442 15.4776 34.1471C15.256 35.3581 15.1747 36.96 15.1348 38.2542C15.1099 38.9046 15.0909 39.4746 15.0732 39.8854C15.0502 40.2968 15.0279 40.5436 15.0279 40.5436C14.9858 40.6763 14.6942 40.6547 14.6778 40.5241Z" fill="#E8E3E6"/>
<path d="M32.9825 35.1105C32.9825 35.1105 33.0048 34.609 33.1422 33.9604C33.2737 33.3071 33.5684 32.506 33.9468 31.9436C34.3086 31.3781 34.9864 30.7726 35.6432 30.5094C35.9682 30.3728 36.265 30.3088 36.4796 30.2712C36.6954 30.2439 36.8225 30.2332 36.8225 30.2332C36.8962 30.2239 36.9272 30.5542 36.866 30.5779C36.866 30.5779 36.7521 30.6081 36.5659 30.6582C36.3809 30.7186 36.1309 30.8139 35.8663 30.964C35.3366 31.2589 34.824 31.817 34.5122 32.3126C34.1832 32.7998 33.8371 33.4907 33.6345 34.0892C33.426 34.6832 33.3254 35.1575 33.3254 35.1575C33.2793 35.2163 32.9911 35.1784 32.9766 35.106L32.9825 35.1105Z" fill="#E8E3E6"/>
<path d="M32.1421 39.5987C32.1421 39.5987 32.098 39.3337 32.0341 38.997C31.9847 38.6477 31.9905 38.2279 32.0076 37.8968C32.0805 37.2457 32.31 36.2671 32.31 36.2671C32.3219 36.2337 32.6549 36.2448 32.6595 36.2813C32.6595 36.2813 32.7525 37.3147 32.6835 37.9548C32.6644 38.2702 32.5763 38.6739 32.5468 38.9906C32.5119 39.308 32.4896 39.5549 32.4896 39.5549C32.4567 39.5909 32.1619 39.6281 32.1421 39.5987Z" fill="#E8E3E6"/>
<path d="M49.2405 33.6106C49.2405 33.6106 49.278 33.5263 49.3405 33.3858C49.403 33.2452 49.4905 33.0485 49.6188 32.836C49.8412 32.3942 50.2393 31.9036 50.5972 31.5613C50.9802 31.2477 51.5244 30.8979 52.0213 30.7662C52.2556 30.673 52.476 30.6398 52.6274 30.6101C52.7787 30.5804 52.8728 30.5632 52.8728 30.5632C52.9255 30.5566 52.9979 30.8764 52.9585 30.9026C52.9585 30.9026 52.8775 30.9393 52.7452 30.9932C52.6136 31.0522 52.4182 31.114 52.2254 31.2391C51.8108 31.4294 51.387 31.8012 51.0521 32.0716C50.7369 32.3713 50.3197 32.7529 50.0453 33.1217C49.8907 33.2951 49.7782 33.4632 49.6867 33.5861C49.5999 33.7032 49.5453 33.779 49.5453 33.779C49.4893 33.802 49.2313 33.6648 49.2353 33.6113L49.2405 33.6106Z" fill="#E8E3E6"/>
<path d="M48.7994 36.7698C48.7994 36.7698 48.7158 36.6584 48.6243 36.4842C48.538 36.3094 48.4597 36.07 48.4708 35.8617C48.4669 35.6606 48.5826 35.3913 48.732 35.2186C48.8123 35.1342 48.884 35.0668 48.9551 35.0366C49.0156 35.0077 49.0558 34.9867 49.0558 34.9867C49.0814 34.9782 49.2611 35.2579 49.2579 35.2742C49.2579 35.2742 49.1993 35.3612 49.1769 35.4808C49.1552 35.6055 49.1526 35.7544 49.1586 35.8863C49.1481 36.0149 49.133 36.1919 49.1317 36.3512C49.1357 36.5099 49.1357 36.6372 49.1357 36.6372C49.1074 36.6673 48.8317 36.7711 48.8093 36.7633L48.7994 36.7698Z" fill="#E8E3E6"/>
<path d="M57.3598 33.7796C57.3598 33.7796 57.39 33.6803 57.4446 33.5196C57.4986 33.3536 57.5716 33.1269 57.7071 32.887C57.9321 32.3811 58.3723 31.8428 58.7467 31.4613C59.1454 31.1033 59.7048 30.7037 60.2115 30.4806C60.4524 30.3548 60.682 30.2674 60.8472 30.22C61.0111 30.1622 61.1091 30.1339 61.1091 30.1339C61.1657 30.1162 61.2796 30.4254 61.2355 30.4575C61.2355 30.4575 61.1506 30.5054 61.0111 30.5866C60.871 30.6627 60.6762 30.7722 60.4709 30.9254C60.0405 31.2025 59.5806 31.6266 59.2206 31.9532C58.8791 32.2987 58.4251 32.7274 58.152 33.1491C57.9954 33.3493 57.8915 33.5428 57.8178 33.6794C57.7388 33.8167 57.6908 33.9023 57.6908 33.9023C57.6362 33.9357 57.3571 33.8436 57.3604 33.7849L57.3598 33.7796Z" fill="#E8E3E6"/>
<path d="M56.3318 41.6126C56.3318 41.6126 56.1413 39.8488 56.1201 38.7055C56.1627 37.5595 56.3782 35.7922 56.3782 35.7922C56.3868 35.7328 56.7218 35.7595 56.729 35.8169C56.729 35.8169 56.834 37.5809 56.7993 38.7047C56.8139 39.8382 56.6833 41.6001 56.6833 41.6001C56.6484 41.6629 56.3549 41.6681 56.3312 41.6074L56.3318 41.6126Z" fill="#E8E3E6"/>
<path d="M70.704 34.6634C70.704 34.6634 70.7231 34.5602 70.7494 34.3871C70.781 34.2133 70.8145 33.9704 70.9092 33.7038C71.0486 33.1557 71.4191 32.5306 71.7763 32.0983C72.1698 31.6985 72.7482 31.2382 73.3043 31.0672C73.5616 30.9445 73.8137 30.9074 73.9848 30.8646C74.1566 30.827 74.2605 30.8033 74.2605 30.8033C74.3184 30.796 74.3909 31.1158 74.3409 31.1433C74.3409 31.1433 74.2494 31.1814 74.0967 31.2431C73.95 31.3093 73.7341 31.379 73.5222 31.5225C73.0583 31.7455 72.6234 32.1983 72.2871 32.5431C71.9812 32.916 71.589 33.4111 71.387 33.8875C71.2607 34.1157 71.1916 34.3313 71.1357 34.4816C71.0805 34.6371 71.0436 34.7266 71.0436 34.7266C70.9956 34.7698 70.7054 34.7163 70.6981 34.6588L70.704 34.6634Z" fill="#E8E3E6"/>
<path d="M71.3313 39.7197C71.3313 39.7197 71.2588 38.8906 71.2692 38.38C71.2954 37.8674 71.3802 37.0556 71.3802 37.0556C71.3874 37.0282 71.7139 36.987 71.7277 37.0118C71.7277 37.0118 71.972 37.8457 71.951 38.4001C71.9353 38.9538 71.6794 39.766 71.6794 39.766C71.64 39.7922 71.3464 39.7549 71.332 39.7249L71.3313 39.7197Z" fill="#E8E3E6"/>
<path d="M6.17711 32.8432C6.17711 32.8432 6.17643 32.7531 6.17312 32.5997C6.18033 32.4449 6.14673 32.221 6.22303 31.978C6.28151 31.4666 6.63285 30.9023 6.98291 30.5398C7.35799 30.206 7.93313 29.8894 8.43856 29.8256C8.68205 29.763 8.90187 29.7671 9.05784 29.774C9.21316 29.7756 9.30398 29.7747 9.30398 29.7747C9.35795 29.7785 9.34616 30.109 9.30535 30.1247C9.30535 30.1247 9.22178 30.1406 9.08687 30.1735C8.9513 30.2012 8.76242 30.2304 8.57092 30.3235C8.1583 30.4445 7.74572 30.7778 7.45158 31.0324C7.33249 31.1907 7.13507 31.3217 7.03244 31.5257C6.96994 31.6237 6.90085 31.712 6.84361 31.8094C6.79821 31.916 6.75743 32.0166 6.72125 32.1114C6.61664 32.2997 6.61404 32.491 6.57721 32.6229C6.55156 32.7588 6.52986 32.8411 6.52986 32.8411C6.49235 32.883 6.19423 32.8941 6.17711 32.8432Z" fill="#E8E3E6"/>
<path d="M78.4632 27.6999C78.4632 27.6999 78.6166 28.0253 78.566 28.4721C78.5365 28.9161 78.3069 29.4279 78.0266 29.7497C77.7588 30.0859 77.2665 30.3815 76.8348 30.4784C76.6229 30.537 76.4308 30.54 76.2978 30.5462C76.1636 30.5419 76.0826 30.5362 76.0826 30.5362C76.0392 30.5311 76.0404 30.202 76.076 30.1869C76.076 30.1869 76.355 30.1517 76.6676 30.0008C76.9808 29.8552 77.3039 29.5757 77.5066 29.3167C77.7217 29.072 77.9652 28.7124 78.0573 28.3824C78.1711 28.055 78.1236 27.8064 78.1236 27.8064C78.1506 27.7658 78.4263 27.6621 78.4586 27.7057L78.4632 27.6999Z" fill="#E8E3E6"/>
<path d="M33.5425 11.8718C33.5425 11.8718 33.4208 12.0516 33.2182 12.3531C33.1688 12.4283 33.1096 12.51 33.051 12.597C32.9813 12.6801 32.901 12.7645 32.8221 12.8593C32.6582 13.0444 32.4878 13.2623 32.2483 13.441C31.8245 13.8553 31.2073 14.1772 30.5715 14.3954C29.9227 14.594 29.2593 14.6352 28.6933 14.643C27.5574 14.6272 26.1812 14.403 25.0808 14.4569C24.5313 14.4679 24.0542 14.5441 23.7146 14.6081C23.377 14.6879 23.1743 14.7347 23.1743 14.7347C23.0598 14.7597 22.9558 14.4439 23.0683 14.4032C23.0683 14.4032 23.2789 14.3342 23.6231 14.2218C23.9745 14.1244 24.4727 14.0032 25.0544 13.951C26.214 13.8152 27.6441 13.9584 28.7096 13.9672C29.2388 13.9641 29.8403 13.9412 30.4109 13.8002C30.5563 13.766 30.6879 13.7069 30.8268 13.6629C30.9663 13.624 31.1032 13.5643 31.2275 13.4903C31.3526 13.4214 31.4783 13.3578 31.604 13.2942C31.7165 13.211 31.829 13.1279 31.9369 13.0506C32.1646 12.9051 32.3331 12.7141 32.5002 12.5551C32.5811 12.4759 32.6627 12.4019 32.7338 12.3293C32.7989 12.2521 32.8588 12.1756 32.9147 12.1102C33.1325 11.844 33.2668 11.6785 33.2668 11.6785C33.3648 11.6077 33.6096 11.7678 33.559 11.875L33.5425 11.8718Z" fill="#F299A3"/>
<path d="M27.3887 14.1392C27.3887 14.1392 27.5184 14.0645 27.7329 13.9419C27.9402 13.8043 28.2133 13.5948 28.4883 13.316C29.0318 12.7487 29.5062 11.8878 29.7575 11.1664C30.0259 10.4534 30.2403 9.48206 30.2737 8.68735C30.2874 8.28772 30.2703 7.93974 30.2492 7.68775C30.2175 7.43709 30.1991 7.29088 30.1991 7.29088C30.1885 7.20732 30.5156 7.12891 30.5419 7.21047C30.5419 7.21047 30.5828 7.36447 30.648 7.62681C30.702 7.88526 30.7593 8.2547 30.7864 8.68101C30.8405 9.53364 30.6919 10.6028 30.3959 11.3935C30.1163 12.1875 29.5064 13.1186 28.8398 13.6855C28.5009 13.967 28.1726 14.1623 27.9317 14.2882C27.6777 14.3945 27.531 14.4608 27.531 14.4608C27.4362 14.4727 27.3262 14.1948 27.3887 14.1392Z" fill="#F299A3"/>
<path d="M23.4094 14.6042C23.4094 14.6042 23.4041 14.4351 23.3955 14.155C23.3777 14.014 23.4099 13.8455 23.4395 13.6561C23.454 13.5588 23.4737 13.4608 23.4868 13.353C23.5224 13.2531 23.5625 13.1472 23.602 13.0361C23.7493 12.5931 24.0691 12.1601 24.4303 11.8015C24.7968 11.4423 25.2114 11.1671 25.5681 10.9418C26.2932 10.5001 27.2297 10.0371 27.8002 9.47169C28.0746 9.18772 28.2621 8.89349 28.3733 8.67255C28.4614 8.43861 28.5186 8.29876 28.5186 8.29876C28.5515 8.22033 28.8753 8.28557 28.8602 8.37767C28.8602 8.37767 28.8168 8.5423 28.7451 8.82192C28.6504 9.08852 28.4721 9.45587 28.1806 9.81627C27.5858 10.528 26.6139 11.091 25.9295 11.5169C25.2333 11.9337 24.3864 12.5127 24.0772 13.2414C24.0351 13.3316 23.9923 13.4166 23.9541 13.4957C23.9331 13.5832 23.9068 13.6714 23.8897 13.7478C23.8456 13.9073 23.8002 14.0562 23.8003 14.1835C23.7786 14.4356 23.7608 14.5917 23.7608 14.5917C23.7233 14.676 23.4259 14.6923 23.4094 14.6042Z" fill="#F299A3"/>
<path d="M31.9304 12.4466C31.9304 12.4466 31.9528 12.3695 31.9896 12.2376C32.0383 12.1147 32.0679 11.9253 32.0882 11.7052C32.1316 11.4981 32.0941 11.2429 32.1072 11.0078C32.0611 10.7696 32.0683 10.53 32.0057 10.3309C31.959 10.1299 31.9293 9.89494 31.8372 9.67314C31.7963 9.56158 31.7706 9.44281 31.72 9.33779C31.6693 9.23278 31.614 9.13365 31.5646 9.03908C31.4849 8.83162 31.3401 8.70135 31.267 8.58855C31.1834 8.47708 31.1321 8.40929 31.1321 8.40929C31.1058 8.37017 31.3255 8.11961 31.3663 8.14629C31.3663 8.14629 31.4381 8.2062 31.5526 8.30846C31.6625 8.41661 31.8547 8.54091 31.9884 8.75217C32.0654 8.85386 32.1431 8.96077 32.2214 9.07291C32.2997 9.18504 32.3485 9.31684 32.4123 9.44141C32.5506 9.68922 32.6118 9.96267 32.6638 10.2055C32.731 10.441 32.708 10.7251 32.7219 11.0045C32.6765 11.2808 32.6746 11.5622 32.5819 11.8021C32.5161 12.0438 32.4352 12.2503 32.3503 12.383C32.2766 12.5197 32.2286 12.6053 32.2286 12.6053C32.1792 12.6381 31.9206 12.4956 31.9192 12.4427L31.9304 12.4466Z" fill="#F299A3"/>
<path d="M21.6187 23.43C21.6187 23.43 21.7101 23.2222 21.8641 22.8738C22.0411 22.5385 22.3319 22.088 22.7457 21.6379C23.5794 20.7422 24.885 19.9832 25.851 19.4157C26.8283 18.852 28.0332 18.1005 28.7227 17.207C28.8109 17.1004 28.8938 16.9945 28.9767 16.8885C29.0543 16.7832 29.1096 16.6701 29.1774 16.5714C29.3017 16.37 29.4241 16.1954 29.4826 16.0236C29.6287 15.6974 29.7168 15.5059 29.7168 15.5059C29.7675 15.3987 30.0854 15.5019 30.0519 15.6175C30.0519 15.6175 29.9769 15.8286 29.8558 16.1834C29.8039 16.365 29.6894 16.5598 29.5743 16.7919C29.5137 16.9056 29.4598 17.0292 29.3841 17.1501C29.3025 17.2665 29.2216 17.3881 29.1354 17.5104C28.7979 18.0146 28.3024 18.4962 27.7839 18.9224C27.2588 19.3388 26.7001 19.7011 26.2013 19.9869C25.2043 20.5636 23.9336 21.2174 23.1111 21.9897C22.7051 22.3751 22.407 22.7682 22.2195 23.0624C22.0498 23.3703 21.9451 23.5586 21.9451 23.5586C21.8603 23.6489 21.5898 23.5398 21.6233 23.4241L21.6187 23.43Z" fill="#F299A3"/>
<path d="M19.9438 19.6943C19.9438 19.6943 20.005 19.5433 20.1122 19.2911C20.2366 19.0472 20.451 18.7125 20.7761 18.4062C21.4236 17.7727 22.4607 17.3872 23.2149 17.1329C23.9862 16.887 24.9463 16.612 25.5761 16.177C25.7156 16.0533 25.8689 15.9544 25.9709 15.8301C26.0676 15.7065 26.1722 15.6031 26.2341 15.4998C26.3518 15.2886 26.4216 15.1631 26.4216 15.1631C26.4611 15.0945 26.7789 15.1976 26.7526 15.2858C26.7526 15.2858 26.6921 15.442 26.5855 15.6995C26.5263 15.8237 26.4257 15.9584 26.323 16.1199C26.2145 16.2768 26.0552 16.4137 25.8993 16.5766C25.2136 17.1618 24.185 17.5303 23.4302 17.7794C22.6701 18.0292 21.706 18.3153 21.1138 18.7933C20.8117 19.0277 20.5986 19.288 20.463 19.4855C20.3453 19.6967 20.2702 19.8229 20.2702 19.8229C20.2025 19.8792 19.9228 19.7818 19.9438 19.6943Z" fill="#F299A3"/>
<path d="M33.7506 12.4185C33.8519 12.4164 34.6438 13.3509 34.7632 14.9328C34.7916 15.3271 34.7192 15.7288 34.6759 16.1481C34.6377 16.3545 34.5627 16.5655 34.4989 16.7805C34.4457 16.9941 34.2989 17.1877 34.2016 17.391C33.7029 18.1861 32.9007 18.6109 32.3288 18.9961C31.7438 19.3617 31.1069 19.8665 30.4646 20.372C29.8283 20.882 29.2111 21.4162 28.7031 21.9259C28.1951 22.4357 27.7977 22.9315 27.6049 23.3112C27.5635 23.4066 27.5266 23.4962 27.4983 23.5687C27.4812 23.6451 27.4681 23.7105 27.4536 23.7653C27.4346 23.8686 27.4523 23.9247 27.4471 23.9253C27.4451 24.037 27.1279 24.1513 27.0989 23.964C27.1042 23.9633 27.0719 23.8772 27.091 23.7315C27.1035 23.661 27.114 23.5748 27.1324 23.4663C27.1633 23.3723 27.2035 23.2664 27.2416 23.1449C27.435 22.6854 27.8258 22.1374 28.3272 21.5754C28.8286 21.0135 29.4347 20.433 30.0618 19.8923C30.6889 19.3516 31.3232 18.8259 31.9569 18.4223C32.5649 18.0273 33.2763 17.6457 33.6809 17.0376C33.7619 16.8735 33.8889 16.7355 33.9408 16.5538C33.9934 16.3774 34.0737 16.2082 34.1145 16.0226C34.169 15.6497 34.2558 15.278 34.2453 14.9398C34.2445 14.2555 34.0548 13.6428 33.8817 13.2455C33.7066 12.8326 33.5321 12.6795 33.5512 12.7037C33.538 12.6841 33.5459 12.6619 33.5584 12.6338C33.565 12.6011 33.5486 12.5554 33.5439 12.5189C33.5387 12.4771 33.5446 12.4392 33.5893 12.4124C33.6393 12.3848 33.7038 12.3873 33.7499 12.4133L33.7506 12.4185Z" fill="#F299A3"/>
<path d="M34.435 23.3936C34.435 23.3936 34.327 23.1738 34.2552 22.7744C34.1827 22.3697 34.257 21.7715 34.5267 21.1963C35.0695 20.0296 36.1703 18.9622 36.8197 18.0474C37.1533 17.5968 37.5086 17.0638 37.6652 16.4817C37.8487 15.9015 37.7709 15.2853 37.582 14.7627C37.3825 14.2415 37.0882 13.817 36.8697 13.5263C36.6458 13.2362 36.4964 13.0694 36.4964 13.0694C36.4201 12.9729 36.6589 12.7465 36.7498 12.8305C36.7498 12.8305 36.9196 12.9895 37.1802 13.2749C37.4363 13.5662 37.7891 13.9885 38.0551 14.5704C38.3204 15.147 38.466 15.9191 38.2726 16.6332C38.1122 17.3537 37.7233 17.9599 37.368 18.4503C36.6568 19.4261 35.521 20.4289 34.9835 21.4251C34.7144 21.9206 34.6197 22.3994 34.652 22.7402C34.6843 23.081 34.7581 23.2839 34.7581 23.2839C34.7627 23.4053 34.4942 23.5241 34.4258 23.4054L34.435 23.3936Z" fill="#F299A3"/>
<path d="M6.52706 44.3009C6.52706 44.3009 6.39338 43.7925 6.21754 43.1197C6.11613 42.7824 6.07329 42.4005 6.02518 42.0193C5.97707 41.638 5.92897 41.2568 5.90324 40.9259C5.86299 40.2678 5.87271 39.4124 5.84693 38.7419C5.83102 38.0648 5.82501 37.551 5.82501 37.551C5.82697 37.4818 6.15866 37.4399 6.17249 37.5071C6.17249 37.5071 6.25353 38.0221 6.36026 38.6983C6.46765 39.3798 6.5415 40.2193 6.58768 40.8819C6.61275 41.2077 6.63848 41.5811 6.65368 41.9559C6.67414 42.33 6.67421 42.7119 6.73152 43.0389C6.81522 43.7021 6.86861 44.21 6.86861 44.21C6.84625 44.2871 6.56195 44.3654 6.52706 44.3009Z" fill="#FFCCD5"/>
<path d="M7.16852 52.8622C7.16852 52.8622 6.85751 50.6944 6.75527 49.2908C6.61682 47.8971 6.55985 45.7079 6.55985 45.7079C6.56115 45.6335 6.89284 45.5916 6.90733 45.6641C6.90733 45.6641 7.28744 47.8284 7.43312 49.2371C7.53076 50.6466 7.51929 52.8444 7.51929 52.8444C7.49167 52.9222 7.1942 52.9385 7.16918 52.8674L7.16852 52.8622Z" fill="#FFCCD5"/>
<path d="M7.62837 57.7327C7.62837 57.7327 7.53422 57.4953 7.41571 57.1919C7.29588 56.8781 7.2142 56.4852 7.15294 56.1693C7.12854 55.8488 7.11531 55.4472 7.15342 55.1135C7.19285 54.7902 7.22506 54.5368 7.22506 54.5368C7.23163 54.5042 7.56465 54.5152 7.57452 54.5511C7.57452 54.5511 7.61537 54.79 7.66478 55.0967C7.70366 55.4048 7.80508 55.7846 7.82685 56.0843C7.8802 56.3799 7.88225 56.7776 7.9152 57.0811C7.94356 57.3906 7.96334 57.6321 7.96334 57.6321C7.93636 57.6726 7.65273 57.7562 7.62837 57.7327Z" fill="#FFCCD5"/>
<path d="M10.9642 40.8495C10.9642 40.8495 10.4404 40.9369 10.1146 40.8984C9.7875 40.8495 9.31493 40.6226 9.31493 40.6226C9.29782 40.6142 9.36357 40.2876 9.38397 40.2797C9.38397 40.2797 9.90782 40.1924 10.2231 40.2322C10.539 40.2772 11.0069 40.5099 11.0069 40.5099C11.0221 40.5451 10.984 40.8364 10.9649 40.8548L10.9642 40.8495Z" fill="#FFCCD5"/>
<path d="M25.7475 41.7798C25.7475 41.7798 25.1105 41.8177 24.2668 41.8712C24.0536 41.8769 23.8265 41.9002 23.6014 41.8968C23.375 41.8829 23.1388 41.8756 22.9071 41.8624C22.4385 41.8366 21.9745 41.805 21.5691 41.7713C19.9751 41.5586 17.4834 41.2258 17.4834 41.2258C17.3959 41.2103 17.4136 40.8845 17.4932 40.8797C17.4932 40.8797 18.131 40.8895 18.9674 40.9059C19.8131 40.9106 20.8378 41.02 21.6454 41.1038C22.0455 41.1382 22.5016 41.192 22.9577 41.2459C23.1861 41.2754 23.4144 41.305 23.6369 41.3299C23.8593 41.3549 24.0785 41.3538 24.2832 41.3651C25.1065 41.4044 25.7258 41.4377 25.7258 41.4377C25.8153 41.4688 25.8364 41.7633 25.7482 41.785L25.7475 41.7798Z" fill="#FFCCD5"/>
<path d="M18.1322 52.0038C18.1322 52.0038 17.3234 51.9945 16.8238 51.893C16.323 51.7812 15.5819 51.4609 15.5819 51.4609C15.5588 51.4479 15.6246 51.1213 15.6509 51.1179C15.6509 51.1179 16.4598 51.1273 16.9593 51.2287C17.4601 51.3406 18.2012 51.6609 18.2012 51.6609C18.2223 51.7006 18.1625 51.9894 18.1322 52.0038Z" fill="#FFCCD5"/>
<path d="M25.5687 53.4156C25.5687 53.4156 25.2449 53.3928 24.8243 53.3663C24.3979 53.3352 23.8621 53.2861 23.4449 53.2008C23.0309 53.0992 22.5017 52.9326 22.1062 52.7225C21.9021 52.6316 21.7382 52.5196 21.6217 52.4441C21.5052 52.3686 21.4355 52.3244 21.4355 52.3244C21.3999 52.297 21.567 52.0107 21.6059 52.0217C21.6059 52.0217 21.6789 52.0496 21.802 52.0924C21.9251 52.1353 22.089 52.2048 22.293 52.2533C22.6833 52.3791 23.1907 52.4583 23.5869 52.5463C23.9825 52.629 24.4912 52.7611 24.9058 52.8679C25.3211 52.98 25.6331 53.0785 25.6331 53.0785C25.6706 53.1215 25.6101 53.405 25.5641 53.4215L25.5687 53.4156Z" fill="#FFCCD5"/>
<path d="M31.1686 53.754C31.1686 53.754 30.9843 53.8197 30.7237 53.8738C30.4697 53.9377 30.1248 53.96 29.8596 53.9351C29.5924 53.8946 29.2567 53.7778 29.0224 53.6163C28.7841 53.466 28.6499 53.292 28.6459 53.3031C28.6268 53.279 28.8347 53.0193 28.8571 53.0271C28.8617 53.0212 29.0171 53.1077 29.2369 53.1543C29.4481 53.2178 29.7285 53.2355 29.9411 53.267C30.1583 53.2926 30.4432 53.3469 30.6868 53.3692C30.9303 53.3915 31.1198 53.41 31.1198 53.41C31.1507 53.4433 31.187 53.7305 31.1633 53.7547L31.1686 53.754Z" fill="#FFCCD5"/>
<path d="M51.917 53.4646C51.917 53.4646 51.6531 53.4502 51.2122 53.4316C50.7706 53.4077 50.1559 53.3686 49.4524 53.3884C48.0499 53.3797 46.296 53.5108 44.9225 53.5622C43.5424 53.6037 41.7728 53.6519 40.3446 53.5245C39.6292 53.4927 39.0073 53.3961 38.5657 53.3298C38.1241 53.2635 37.8569 53.223 37.8569 53.223C37.7094 53.1992 37.7699 52.8732 37.9095 52.8768C37.9095 52.8768 38.174 52.8965 38.617 52.9308C39.0546 52.9657 39.666 53.0212 40.3709 53.0118C41.7727 53.0578 43.5219 52.9325 44.8961 52.8864C46.2755 52.8397 48.0393 52.7868 49.4681 52.8771C50.1815 52.8932 50.8067 52.9734 51.247 53.0293C51.6925 53.0845 51.9584 53.1146 51.9584 53.1146C52.1032 53.16 52.0598 53.4519 51.9164 53.4594L51.917 53.4646Z" fill="#FFCCD5"/>
<path d="M65.0827 52.4239C65.0827 52.4239 64.8912 52.4746 64.5747 52.5517C64.2549 52.6451 63.81 52.7224 63.2967 52.8084C62.7847 52.9049 62.2082 52.9564 61.6349 53.0341C61.0584 53.0856 60.4865 53.1312 59.9811 53.1526C58.9742 53.1842 57.6876 53.1608 56.6536 53.0632C56.1357 53.0278 55.6849 52.9732 55.3617 52.9132C55.0399 52.8636 54.8438 52.8353 54.8438 52.8353C54.7345 52.8173 54.7897 52.492 54.8911 52.4898C54.8911 52.4898 55.0852 52.5025 55.4024 52.5155C55.721 52.539 56.1665 52.5517 56.6746 52.5512C57.6927 52.566 58.9635 52.5064 59.954 52.4716C60.4489 52.4516 61.0129 52.4282 61.5828 52.4093C62.1495 52.3643 62.726 52.3552 63.2268 52.2973C63.7342 52.2492 64.1791 52.2143 64.4924 52.1536C64.8069 52.1032 64.9965 52.0793 64.9965 52.0793C65.1051 52.0921 65.1782 52.3747 65.0821 52.4187L65.0827 52.4239Z" fill="#FFCCD5"/>
<path d="M41.4913 41.7135C41.4913 41.7135 40.9688 41.8113 40.2791 41.9407C39.9303 42.0166 39.538 42.0449 39.1498 42.062C38.7621 42.0844 38.3738 42.1016 38.0323 42.1076C36.6792 42.0661 34.6093 41.8552 34.6093 41.8552C34.5383 41.8429 34.5448 41.5132 34.6132 41.5045C34.6132 41.5045 36.7172 41.3929 38.0486 41.4317C38.3796 41.4271 38.7548 41.4328 39.1352 41.4379C39.5162 41.4481 39.8979 41.4636 40.2362 41.4315C40.9167 41.3987 41.432 41.3708 41.432 41.3708C41.5103 41.3981 41.5624 41.6833 41.4966 41.7128L41.4913 41.7135Z" fill="#FFCCD5"/>
<path d="M50.1522 42.2333C50.1522 42.2333 49.8192 42.2647 49.3855 42.3035C48.9511 42.3371 48.4069 42.3475 47.981 42.3216C47.5579 42.2742 47.0149 42.2101 46.5884 42.0942C46.1679 41.9828 45.8414 41.8966 45.8414 41.8966C45.7967 41.8811 45.8631 41.5597 45.9105 41.5537C45.9105 41.5537 47.2122 41.6122 48.0296 41.647C48.4443 41.669 48.9721 41.7403 49.4012 41.7922C49.825 41.8449 50.1508 41.8833 50.1508 41.8833C50.1982 41.9198 50.1923 42.2123 50.1522 42.2333Z" fill="#FFCCD5"/>
<path d="M65.8232 42.017C65.8232 42.017 63.7001 42.1894 62.3326 42.2029C60.9696 42.2528 58.8419 42.1765 58.8419 42.1765C58.7662 42.1702 58.7517 41.8431 58.8194 41.8292C58.8194 41.8292 60.9438 41.5823 62.3166 41.5258C63.6901 41.5169 65.8218 41.667 65.8218 41.667C65.8955 41.7002 65.8897 41.9927 65.8179 42.0177L65.8232 42.017Z" fill="#FFCCD5"/>
<path d="M68.2306 41.7238C68.2306 41.7238 68.0246 41.9143 67.8331 41.9225C67.7423 41.9234 67.6067 41.8662 67.5126 41.7985C67.4053 41.7112 67.3638 41.6369 67.3638 41.6369C67.3625 41.6265 67.5652 41.3674 67.5744 41.3557C67.5915 41.3641 67.7218 41.2522 67.8271 41.2389C67.9344 41.2413 68.1805 41.3694 68.1805 41.3694C68.1904 41.4053 68.2266 41.6925 68.224 41.714L68.2306 41.7238Z" fill="#FFCCD5"/>
<path d="M22.4202 34.401C22.4202 34.401 22.3669 34.4448 22.2748 34.5201C22.1827 34.5954 22.057 34.7015 21.899 34.8063C21.5963 35.0355 21.1528 35.2506 20.781 35.3559C20.4013 35.4409 19.8866 35.474 19.4983 35.3639C19.1087 35.2857 18.8533 35.127 18.8494 35.1381C18.8151 35.1212 18.9256 34.8101 18.9625 34.8055C18.9612 34.795 19.2264 34.8624 19.5621 34.8518C19.8964 34.8733 20.2998 34.764 20.6071 34.6987C20.9164 34.6066 21.3258 34.5019 21.6495 34.355C21.8134 34.2972 21.9542 34.2263 22.0602 34.1758C22.1615 34.1312 22.2273 34.1017 22.2273 34.1017C22.2767 34.1114 22.4413 34.3559 22.4189 34.3905L22.4202 34.401Z" fill="#F3C070"/>
<path d="M25.8718 36.7453C25.8718 36.7453 25.8257 36.8042 25.7421 36.9049C25.652 36.9959 25.5652 37.1554 25.3881 37.2785C25.0881 37.571 24.561 37.802 24.1088 37.822C23.6639 37.8144 23.1025 37.6041 22.8208 37.2789C22.5114 36.989 22.3844 36.7027 22.3752 36.7144C22.3541 36.6746 22.6245 36.4867 22.6588 36.5036C22.668 36.4918 22.8556 36.7069 23.1445 36.8773C23.4223 37.0863 23.8185 37.1318 24.1041 37.1488C24.3963 37.1331 24.7925 37.0513 25.0959 36.8698C25.2591 36.8067 25.367 36.687 25.4663 36.6267C25.5598 36.5619 25.6137 36.5232 25.6137 36.5232C25.6664 36.5166 25.8889 36.7113 25.8731 36.7558L25.8718 36.7453Z" fill="#F3C070"/>
<path d="M23.2804 47.407C23.2804 47.407 23.1389 47.515 22.8855 47.669C22.6328 47.8282 22.2676 48.0282 21.7997 48.1774C21.3423 48.3253 20.7422 48.4011 20.1656 48.198C19.5825 47.9851 19.1809 47.4734 18.9907 47.0252C18.9169 46.8648 18.9452 46.9195 18.936 46.8889C18.9334 46.868 18.9334 46.868 18.9228 46.8693C18.9123 46.8707 18.9281 46.8687 18.9018 46.872C18.8353 46.8963 18.7748 46.9251 18.7083 46.9494L18.2851 47.0294C17.7211 47.0952 17.1209 47.0012 16.6865 46.7377C15.7756 46.2585 15.5043 45.5075 15.4872 45.5415C15.4332 45.4529 15.7234 45.2942 15.7847 45.3555C15.7972 45.3274 16.1296 45.9698 16.9122 46.2795C17.2834 46.4661 17.7513 46.4866 18.1863 46.4158L18.5081 46.3381C18.6648 46.2653 18.822 46.1977 18.9787 46.1248C19.0899 46.0737 19.1965 46.0284 19.3077 45.9772C19.3182 45.9759 19.3373 45.9576 19.3439 45.9673L19.3597 46.0078L19.386 46.0894L19.438 46.2473C19.5052 46.4404 19.5882 46.7164 19.6191 46.7496C19.7712 47.1071 20.0286 47.4513 20.4024 47.6163C20.7815 47.7807 21.2574 47.779 21.668 47.6847C22.0846 47.595 22.4452 47.4434 22.692 47.3221C22.9447 47.2053 23.0888 47.1182 23.0888 47.1182C23.1882 47.1003 23.3521 47.3396 23.281 47.4122L23.2804 47.407Z" fill="#F3C070"/>
<path d="M44.1725 48.0014C44.1725 48.0014 44.1205 48.0132 44.0323 48.035C43.9375 48.0469 43.8105 48.1001 43.6467 48.1579C43.3196 48.2788 42.8951 48.518 42.3496 48.7726C42.0811 48.8913 41.7435 49.0135 41.4033 49.0299C41.2335 49.0407 41.0637 49.0516 40.8893 49.0683C40.7109 49.0536 40.5365 49.0279 40.3575 49.008C39.6289 48.8719 39.0701 48.4278 38.6199 48.2087C38.5067 48.1593 38.3823 48.1061 38.2632 48.0521C38.1401 48.0093 38.0085 47.9835 37.8749 47.942C37.6156 47.8792 37.3589 47.8798 37.0733 47.9476C36.5152 48.0605 35.9157 48.4386 35.2069 48.4166C34.8568 48.3971 34.5593 48.2437 34.3362 48.0861C34.1223 47.9168 33.9623 47.7513 33.8471 47.6014C33.7168 47.4587 33.647 47.3296 33.5832 47.2474C33.5246 47.1647 33.4969 47.1151 33.4969 47.1151C33.4304 47.0121 33.7127 46.8332 33.7871 46.914C33.7871 46.914 33.8194 46.9577 33.8819 47.0294C33.9444 47.1011 34.0234 47.2184 34.1505 47.335C34.3749 47.5879 34.762 47.8998 35.2227 47.9053C35.6926 47.8991 36.2407 47.5381 36.9218 47.3407C37.2568 47.2401 37.6609 47.2209 38.0018 47.2946C38.1677 47.3374 38.3375 47.369 38.4941 47.4235C38.6468 47.4891 38.7883 47.5508 38.9351 47.6119C39.4794 47.8986 39.9454 48.2855 40.4956 48.407L40.9162 48.476C41.0656 48.473 41.2097 48.4708 41.3538 48.4685C41.6427 48.4692 41.8954 48.3948 42.162 48.3028C42.6779 48.1104 43.1576 47.8854 43.5196 47.7867C43.7058 47.7367 43.8506 47.6972 43.9559 47.6839C44.0612 47.6706 44.1191 47.6633 44.1191 47.6633C44.2488 47.6734 44.2751 47.9672 44.1731 48.0066L44.1725 48.0014Z" fill="#F3C070"/>
<path d="M26.6354 57.6737C26.6354 57.6737 26.4117 57.6383 26.0464 57.5836C25.6726 57.5459 25.154 57.5052 24.5544 57.5013C23.3606 57.4928 21.8548 57.6404 20.6557 57.6325C19.4645 57.6449 17.8679 57.4538 16.7292 56.8654C16.1626 56.5708 15.7281 56.2225 15.4379 55.9567C15.1667 55.6726 15.0061 55.5019 15.0061 55.5019C14.9185 55.4015 15.1758 55.194 15.2653 55.2676C15.2653 55.2676 15.4286 55.4167 15.7057 55.6629C15.9959 55.8863 16.4172 56.1726 16.9496 56.4078C18.0192 56.8724 19.4973 56.9723 20.6622 56.9633C21.8291 56.9699 23.3454 56.9058 24.5767 56.9998C25.1921 57.0441 25.7317 57.1246 26.1154 57.1982C26.4958 57.2881 26.7223 57.3444 26.7223 57.3444C26.842 57.4036 26.7651 57.6839 26.642 57.6835L26.6354 57.6737Z" fill="#F3C070"/>
<path d="M34.2696 58.3655C34.2696 58.3655 34.2123 58.3781 34.1195 58.4057C34.0208 58.4288 33.8866 58.4669 33.728 58.4816C33.4147 58.5424 33.0001 58.5204 32.6868 58.4539C32.3755 58.3605 31.9885 58.1759 31.7541 57.9296C31.5073 57.7114 31.3875 57.4825 31.3836 57.4936C31.3638 57.4643 31.6204 57.2515 31.6487 57.2638C31.6586 57.2573 31.8159 57.4019 32.0601 57.5143C32.2918 57.6549 32.6156 57.7201 32.8604 57.7953C33.1132 57.8483 33.4409 57.9449 33.7272 57.9671C33.8694 57.9916 33.9931 57.9972 34.0846 58.0016C34.1767 58.0112 34.2307 58.015 34.2307 58.015C34.2669 58.0475 34.3031 58.3348 34.2742 58.3596L34.2696 58.3655Z" fill="#F3C070"/>
<path d="M14.9086 55.3656C14.9086 55.3656 14.7349 55.43 14.4835 55.4724C14.238 55.5192 13.9122 55.5232 13.6641 55.4643C13.4153 55.4002 13.1224 55.2409 12.9335 55.0578C12.7354 54.8866 12.6432 54.7072 12.6393 54.7183C12.6254 54.6935 12.8643 54.4671 12.8919 54.4742C12.8966 54.4683 13.0269 54.5686 13.2224 54.6341C13.4093 54.7166 13.6508 54.7657 13.8384 54.811C14.026 54.8563 14.2708 54.9315 14.4834 54.9631C14.6966 54.9998 14.8651 55.021 14.8651 55.021C14.8908 55.0549 14.927 55.3421 14.9086 55.3656Z" fill="#F3C070"/>
<path d="M28.5133 46.996C28.5133 46.996 28.4778 47.0535 28.4093 47.147C28.3403 47.2353 28.2686 47.3876 28.1297 47.5166C27.8869 47.7965 27.4927 48.1062 27.0992 48.209C26.7175 48.3208 26.168 48.2893 25.8264 48.0831C25.6408 48.011 25.5137 47.8944 25.4242 47.8208C25.3347 47.7472 25.2807 47.701 25.2807 47.701C25.2505 47.673 25.4584 47.4133 25.4919 47.425C25.4919 47.425 25.5485 47.4497 25.6387 47.4861C25.7295 47.5277 25.8553 47.5914 26.0073 47.6093C26.2969 47.7001 26.6529 47.6392 26.9161 47.5636C27.1807 47.4984 27.5229 47.3279 27.7881 47.1405C27.9276 47.0593 28.0263 46.9513 28.1092 46.8878C28.1915 46.8191 28.2401 46.7811 28.2401 46.7811C28.2875 46.7751 28.5245 46.9574 28.5133 46.996Z" fill="#F3C070"/>
<path d="M31.162 49.9298C31.162 49.9298 30.9869 50.0261 30.7303 50.1116C30.4749 50.2075 30.1334 50.2559 29.8589 50.2428C29.5878 50.2133 29.2422 50.1031 29.0073 49.9364C28.7644 49.792 28.6354 49.6173 28.6308 49.6232C28.6117 49.5991 28.8196 49.3394 28.842 49.3472C28.8466 49.3413 29.0019 49.4278 29.2217 49.4743C29.433 49.5379 29.7068 49.5457 29.9128 49.5675C30.1234 49.5834 30.4011 49.6226 30.64 49.6084C30.8756 49.6105 31.0612 49.5976 31.0612 49.5976C31.0968 49.625 31.1804 49.9062 31.162 49.9298Z" fill="#F3C070"/>
<path d="M29.8401 58.9086C29.8401 58.9086 29.8118 58.9387 29.7598 58.993C29.7072 59.0421 29.6434 59.1297 29.5387 59.1907C29.3499 59.3471 29.0222 59.4628 28.7543 59.4594C28.4891 59.4346 28.1837 59.3033 28.0079 59.1398C27.9086 59.0728 27.8447 58.9907 27.7953 58.9385C27.746 58.8864 27.7203 58.8525 27.7203 58.8525C27.7071 58.8329 27.9098 58.5739 27.9368 58.5758C27.9368 58.5758 28.0835 58.6369 28.2619 58.694C28.4416 58.7615 28.6509 58.7669 28.7917 58.781C28.9306 58.7794 29.13 58.7913 29.3103 58.7367C29.3998 58.7254 29.4794 58.6783 29.536 58.6605C29.592 58.6375 29.6334 58.627 29.6334 58.627C29.6729 58.6432 29.8513 58.8701 29.85 58.9021L29.8401 58.9086Z" fill="#F3C070"/>
<path d="M29.3185 56.6401C29.3185 56.6401 29.0256 56.8203 28.815 56.762C28.611 56.7135 28.4227 56.4083 28.4339 56.4122C28.4326 56.4018 28.6352 56.1428 28.6451 56.1362C28.6517 56.146 28.88 56.0907 28.984 56.1094C29.0795 56.1451 29.2585 56.2923 29.275 56.2955C29.2848 56.3314 29.3211 56.6186 29.3185 56.6401Z" fill="#F3C070"/>
<path d="M43.6814 58.3502C43.6814 58.3502 43.4788 58.5244 43.1642 58.702C42.8549 58.879 42.416 59.0458 42.0336 59.0675C41.6624 59.0931 41.1379 58.963 40.8325 58.662C40.6758 58.5226 40.5916 58.3635 40.5356 58.2592C40.4948 58.1476 40.4698 58.0765 40.4698 58.0765C40.4592 58.0354 40.7698 57.9113 40.7889 57.9354C40.7889 57.9354 40.8212 57.9791 40.8784 58.0514C40.9403 58.1179 41.0259 58.2026 41.1457 58.2617C41.3767 58.3971 41.7156 58.4126 41.9973 58.3983C42.2737 58.3847 42.6574 58.3309 42.9614 58.2395C43.2661 58.1533 43.5004 58.0601 43.5004 58.0601C43.5452 58.0757 43.6992 58.3215 43.6828 58.3607L43.6814 58.3502Z" fill="#F3C070"/>
<path d="M30.5924 45.5877C30.5924 45.5877 30.5016 45.6309 30.3687 45.6796C30.2423 45.7379 30.0482 45.7253 29.9119 45.7054C29.7875 45.6521 29.6203 45.5565 29.542 45.4443C29.4538 45.3388 29.4005 45.2553 29.4005 45.2553C29.3985 45.2396 29.6012 44.9806 29.617 44.9786C29.617 44.9786 29.7045 44.9941 29.8078 45.0076C29.9131 45.0368 30.0283 45.0169 30.1027 45.0553C30.1836 45.061 30.2692 45.1457 30.3686 45.1703C30.4647 45.2112 30.5489 45.243 30.5489 45.243C30.564 45.2782 30.6003 45.5654 30.5924 45.5877Z" fill="#F3C070"/>
<path d="M11.5242 45.8825C11.5242 45.8825 11.2715 45.872 11.2261 45.8087C11.1885 45.7657 11.2484 45.7741 11.2754 45.7335C11.2859 45.6898 11.2761 45.6539 11.2767 45.6591C11.2767 45.6591 11.3431 45.3377 11.3523 45.3259C11.3523 45.3259 11.4109 45.2814 11.4958 45.276C11.6024 45.2731 11.7367 45.3623 11.7499 45.3819C11.8019 45.4549 11.7295 45.602 11.7413 45.6111C11.7236 45.6398 11.5446 45.8746 11.5249 45.8877L11.5242 45.8825Z" fill="#F3C070"/>
<path d="M10.6429 36.7785C10.6429 36.7785 10.5784 36.8185 10.4764 36.8579C10.3876 36.9168 10.1895 36.8729 10.0796 36.8071C9.9874 36.7127 9.89589 36.5385 9.93141 36.4386C9.93929 36.3315 9.96758 36.2589 9.96758 36.2589C9.97153 36.2478 10.3039 36.2112 10.3151 36.2151C10.3151 36.2151 10.3611 36.2411 10.4184 36.271C10.4618 36.3186 10.5184 36.2584 10.4993 36.2767C10.5125 36.2538 10.4678 36.3231 10.525 36.353C10.5678 36.3954 10.6047 36.4332 10.6047 36.4332C10.6093 36.4697 10.6508 36.7563 10.6482 36.7778L10.6429 36.7785Z" fill="#F3C070"/>
<path d="M25.1314 33.4646C25.1314 33.4646 25.0439 33.5765 24.8873 33.6917C24.7366 33.8116 24.4891 33.9277 24.2654 33.9347C24.041 33.9365 23.7316 33.8164 23.6013 33.6312C23.4519 33.4644 23.4222 33.3143 23.4117 33.3156C23.409 33.2947 23.6854 33.1113 23.7025 33.1197C23.7019 33.1145 23.7973 33.1926 23.9197 33.2303C24.0336 33.2849 24.158 33.2532 24.2554 33.2622C24.3567 33.26 24.518 33.2662 24.6693 33.2365C24.8168 33.2179 24.9405 33.181 24.9405 33.181C24.9754 33.2031 25.1393 33.4424 25.132 33.4699L25.1314 33.4646Z" fill="#F3C070"/>
<path d="M27.6636 39.6281C27.6636 39.6281 27.5274 39.7355 27.3228 39.8515C27.1115 39.9577 26.8213 40.0739 26.5502 40.0445C26.4225 40.05 26.2645 39.985 26.123 39.9233C25.9881 39.8289 25.8532 39.7345 25.7834 39.6054C25.6991 39.4887 25.6695 39.381 25.6484 39.2988C25.628 39.2218 25.6168 39.1755 25.6168 39.1755C25.6135 39.1494 25.9327 39.0507 25.9498 39.0592C25.959 39.0474 26.0301 39.187 26.1624 39.2605C26.2861 39.351 26.4428 39.363 26.5981 39.3646C26.7403 39.3891 26.9686 39.3762 27.1647 39.3621C27.3595 39.3375 27.5168 39.3124 27.5168 39.3124C27.5517 39.3345 27.6814 39.5993 27.6689 39.6274L27.6636 39.6281Z" fill="#F3C070"/>
<path d="M50.7651 47.8962C50.7651 47.8962 50.6796 47.9389 50.5624 47.9855C50.4407 48.038 50.2821 48.0527 50.157 48.0366C49.905 47.9889 49.6469 47.7243 49.6469 47.7243C49.6403 47.7146 49.7509 47.4035 49.766 47.3963C49.766 47.3963 50.1187 47.3518 50.2767 47.3743C50.3576 47.38 50.4623 47.4464 50.5571 47.4769C50.6479 47.5184 50.7269 47.5509 50.7269 47.5509C50.742 47.5861 50.7783 47.8734 50.7704 47.8956L50.7651 47.8962Z" fill="#F3C070"/>
<path d="M41.1707 34.9791C41.1707 34.9791 40.9806 35.1251 40.6956 35.2831C40.41 35.4358 40.0244 35.6012 39.673 35.6138C39.5052 35.6402 39.2959 35.5924 39.1043 35.5582C38.9135 35.4868 38.7173 35.416 38.5844 35.2949C38.433 35.1973 38.3375 35.0767 38.2737 34.9945C38.2098 34.9124 38.171 34.859 38.171 34.859C38.1513 34.8296 38.4079 34.6169 38.4355 34.624C38.4355 34.624 38.4816 34.65 38.552 34.6995C38.6225 34.7489 38.7218 34.816 38.8436 34.8484C39.0766 34.9569 39.3866 34.9549 39.6353 34.9341C39.8808 34.9297 40.2263 34.8702 40.5067 34.8029C40.787 34.7357 41.0081 34.6654 41.0081 34.6654C41.0529 34.681 41.1872 34.9399 41.1701 34.9739L41.1707 34.9791Z" fill="#F3C070"/>
<path d="M44.6321 37.7838C44.6321 37.7838 44.5525 37.831 44.4281 37.905C44.2985 37.9798 44.1208 38.0977 43.8898 38.1746C43.4509 38.3838 42.829 38.457 42.34 38.4391C41.8615 38.3775 41.2442 38.1901 40.8657 37.8612C40.6564 37.7285 40.5175 37.5603 40.4174 37.4456C40.3174 37.3309 40.2608 37.2638 40.2608 37.2638C40.2292 37.2253 40.4858 37.0126 40.5253 37.0288C40.5253 37.0288 40.5905 37.0789 40.6964 37.1558C40.8031 37.2378 40.9406 37.3531 41.1374 37.429C41.4961 37.6437 42.0128 37.7112 42.3991 37.7632C42.7966 37.7767 43.3185 37.801 43.737 37.6846C44.1556 37.6105 44.4629 37.4603 44.4649 37.476C44.5202 37.4902 44.6643 37.7426 44.6321 37.7838Z" fill="#F3C070"/>
<path d="M39.2043 38.4688C39.2043 38.4688 38.9187 38.6216 38.5014 38.706C38.0881 38.8219 37.5445 38.795 37.1338 38.7195C36.7297 38.6113 36.2368 38.3923 35.9169 38.1038C35.7457 37.9768 35.6213 37.8387 35.539 37.7376C35.4515 37.6373 35.4015 37.5799 35.4015 37.5799C35.3758 37.546 35.6206 37.3242 35.6601 37.3404C35.6601 37.3404 35.7186 37.3807 35.8128 37.4484C35.9069 37.5161 36.0366 37.6112 36.2064 37.6853C36.5236 37.8681 36.96 37.9774 37.2976 38.0675C37.6372 38.1307 38.0782 38.2342 38.4441 38.2093C38.8087 38.2163 39.0877 38.1387 39.089 38.1491C39.1344 38.1699 39.2391 38.4485 39.2056 38.4792L39.2043 38.4688Z" fill="#F3C070"/>
<path d="M53.5726 36.0667C53.5726 36.0667 53.2455 36.2724 53.0191 36.301C52.7928 36.3296 52.4248 36.2115 52.4248 36.2115C52.4137 36.2076 52.3721 35.8786 52.3814 35.8669C52.3814 35.8669 52.7137 35.6605 52.9348 35.6326C53.1612 35.604 53.5291 35.722 53.5291 35.722C53.5442 35.7572 53.5805 36.0445 53.5726 36.0667Z" fill="#F3C070"/>
<path d="M44.3366 44.0017C44.3366 44.0017 44.0464 44.2028 43.8187 44.2209C43.7075 44.2297 43.5528 44.1908 43.4219 44.1278C43.2863 44.0706 43.1862 43.9559 43.1862 43.9559C43.1731 43.9364 43.3869 43.6813 43.3968 43.6747C43.3968 43.6747 43.431 43.6492 43.5027 43.6242C43.5791 43.5933 43.6863 43.5533 43.7765 43.5472C43.9575 43.5403 44.2931 43.6571 44.2931 43.6571C44.3083 43.6923 44.3445 43.9795 44.3366 44.0017Z" fill="#F3C070"/>
<path d="M47.5466 50.3661C47.5466 50.3661 47.4966 50.3937 47.4117 50.4415C47.3268 50.4894 47.2077 50.5628 47.0642 50.6127C46.776 50.7446 46.3851 50.8257 46.0698 50.8284C45.7533 50.8206 45.3564 50.7274 45.0695 50.5726C44.7792 50.4342 44.6074 50.2596 44.6035 50.2707C44.5791 50.2472 44.7581 49.97 44.785 49.9719C44.789 49.9608 44.9772 50.0538 45.2444 50.0943C45.5031 50.1519 45.8295 50.1531 46.0757 50.1539C46.3271 50.154 46.6601 50.165 46.9273 50.1207C47.0655 50.1138 47.1846 50.0829 47.2682 50.067C47.3577 50.0558 47.4097 50.0439 47.4097 50.0439C47.4498 50.0653 47.5644 50.3374 47.5466 50.3661Z" fill="#F3C070"/>
<path d="M59.23 48.0058C59.23 48.0058 58.8924 48.2128 58.6377 48.2291C58.5094 48.2293 58.3389 48.1925 58.2079 48.1294C58.071 48.0618 57.9828 47.9987 57.9828 47.9987C57.971 47.9896 58.0867 47.6779 58.0966 47.6713C58.0966 47.6713 58.1795 47.6502 58.2783 47.6272C58.3763 47.5989 58.5046 47.5562 58.606 47.554C58.8087 47.5496 59.1865 47.6611 59.1865 47.6611C59.2016 47.6963 59.2379 47.9835 59.23 48.0058Z" fill="#F3C070"/>
<path d="M51.3087 56.9527C51.3087 56.9527 51.2423 56.977 51.1238 57.0131C51.0106 57.0487 50.8468 57.1065 50.6526 57.1363C50.2683 57.2272 49.7694 57.2159 49.3864 57.1475C49.0112 57.0569 48.5486 56.866 48.2352 56.6296C48.072 56.5229 47.9456 56.4115 47.8548 56.3275C47.7646 56.2487 47.71 56.1972 47.71 56.1972C47.6797 56.1692 47.8876 55.9095 47.9265 55.9206C47.9265 55.9206 47.989 55.9498 48.0864 56.0012C48.1838 56.0525 48.3214 56.1254 48.4839 56.1844C48.8018 56.33 49.2138 56.416 49.533 56.4871C49.8503 56.5425 50.2682 56.633 50.615 56.6264C50.7881 56.6417 50.9408 56.6224 51.0527 56.6189C51.1645 56.6154 51.2336 56.612 51.2336 56.612C51.2797 56.638 51.3476 56.9212 51.314 56.952L51.3087 56.9527Z" fill="#F3C070"/>
<path d="M59.4492 56.9068C59.4492 56.9068 59.4071 56.997 59.3406 57.1487C59.2624 57.2912 59.1498 57.5017 58.9603 57.6954C58.6116 58.1107 57.9753 58.451 57.4251 58.4992C56.8848 58.5833 56.1444 58.3531 55.7586 57.9243C55.5658 57.7099 55.4584 57.4954 55.3959 57.3388C55.3485 57.175 55.3202 57.0778 55.3202 57.0778C55.3077 57.021 55.6281 56.9328 55.6545 56.9719C55.6545 56.9719 55.696 57.0463 55.7592 57.1656C55.8322 57.2784 55.952 57.4225 56.1074 57.5514C56.4332 57.8021 56.9531 57.8956 57.3513 57.8295C57.754 57.7998 58.2654 57.6133 58.6042 57.3318C58.7806 57.2034 58.9056 57.0497 58.9938 56.9431C59.0754 56.8267 59.1254 56.7567 59.1254 56.7567C59.1813 56.7337 59.4479 56.854 59.4387 56.9082L59.4492 56.9068Z" fill="#F3C070"/>
<path d="M62.669 57.5828C62.669 57.5828 62.3149 57.7442 61.7977 57.8413C61.287 57.9482 60.6177 57.9425 60.1076 57.7999C59.5989 57.6678 58.9887 57.2833 58.6793 56.8236C58.5226 56.5994 58.4252 56.3782 58.3732 56.2203C58.3317 56.0611 58.3034 55.9639 58.3034 55.9639C58.2961 55.9064 58.6114 55.8189 58.6377 55.858C58.6377 55.858 58.6739 55.933 58.7437 56.0622C58.8181 56.1854 58.9241 56.3471 59.0768 56.4976C59.3835 56.809 59.8785 57.0437 60.2984 57.1498C60.709 57.2678 61.281 57.3495 61.7495 57.3328C62.2194 57.3265 62.5735 57.25 62.5735 57.25C62.6294 57.2695 62.7236 57.5494 62.6742 57.5821L62.669 57.5828Z" fill="#F3C070"/>
<path d="M68.3796 58.0346C68.3796 58.0346 68.2204 58.129 67.9795 58.2124C67.7453 58.3056 67.409 58.3534 67.1371 58.3187C66.8686 58.2677 66.5382 58.1078 66.3618 57.8966C66.1716 57.7031 66.0998 57.5159 66.0899 57.5225C66.0761 57.4977 66.3393 57.2947 66.3617 57.3025C66.3663 57.2966 66.4927 57.408 66.6743 57.4911C66.8474 57.5913 67.0752 57.6156 67.2509 57.6518C67.4253 57.6776 67.6767 57.7201 67.8952 57.7138C68.1097 57.7185 68.2848 57.707 68.2848 57.707C68.3151 57.735 68.404 58.0156 68.3856 58.0392L68.3796 58.0346Z" fill="#F3C070"/>
<path d="M70.9793 48.2897C70.9793 48.2897 70.8036 48.3384 70.564 48.3898C70.3212 48.4576 70.0165 48.4589 69.7789 48.4412C69.5413 48.4234 69.2478 48.3013 69.0273 48.2071C68.8028 48.0816 68.6508 47.9787 68.6508 47.9787C68.6271 47.9605 68.783 47.6703 68.8041 47.6676C68.8041 47.6676 68.9673 47.6894 69.1799 47.721C69.4004 47.7303 69.661 47.7611 69.8656 47.7724C70.2697 47.8381 70.9358 47.945 70.9358 47.945C70.9615 47.9789 70.9977 48.2661 70.9793 48.2897Z" fill="#F3C070"/>
<path d="M66.4298 47.5428C66.4298 47.5428 66.0712 47.6677 65.5717 47.736C65.0728 47.8096 64.4253 47.8064 63.9224 47.6364C63.6717 47.5567 63.3913 47.4117 63.1537 47.1817C62.9068 46.9635 62.7679 46.6256 62.7376 46.3429C62.6914 45.7652 62.9105 45.4245 62.8888 45.422C62.9092 45.3716 63.2271 45.4748 63.2277 45.5224C63.2277 45.5224 63.2166 45.6034 63.2021 45.7432C63.189 45.8085 63.1942 45.8927 63.1995 45.9769C63.1949 46.0677 63.2219 46.1545 63.2443 46.2471C63.3299 46.6289 63.7413 46.8794 64.1408 46.9935C64.5212 47.1258 65.0839 47.2193 65.5446 47.2248C66.0066 47.2408 66.36 47.2015 66.36 47.2015C66.4114 47.2268 66.4792 47.5101 66.4351 47.5422L66.4298 47.5428Z" fill="#F3C070"/>
<path d="M67.3935 49.3311C67.3935 49.3311 67.3257 49.345 67.2218 49.3687C67.1118 49.3879 66.9618 49.428 66.7795 49.4245C66.4215 49.4697 65.9614 49.3845 65.6179 49.2475C65.2875 49.0876 64.8945 48.7711 64.7372 48.4143C64.6312 48.2526 64.6002 48.092 64.5752 47.9785C64.5502 47.8649 64.5363 47.7977 64.5363 47.7977C64.5317 47.7611 64.8535 47.6834 64.8779 47.7068C64.8779 47.7068 64.9055 47.7564 64.9582 47.8346C65.0056 47.9135 65.0576 48.029 65.1715 48.126C65.3446 48.3535 65.6632 48.5043 65.9034 48.6279C66.1568 48.7285 66.5017 48.876 66.8057 48.9119C66.9551 48.9514 67.094 48.9498 67.1921 48.9639C67.2895 48.9729 67.3494 48.9812 67.3494 48.9812C67.3856 49.0138 67.4218 49.301 67.3929 49.3259L67.3935 49.3311Z" fill="#F3C070"/>
<path d="M63.7255 35.5228C63.7255 35.5228 63.6735 35.5347 63.5913 35.561C63.5031 35.5827 63.3846 35.6189 63.2418 35.6316C62.9595 35.6832 62.5936 35.6657 62.3178 35.5997C62.0447 35.5121 61.7084 35.3477 61.5004 35.1405C61.3871 35.0487 61.3049 34.9476 61.2483 34.8805C61.1916 34.8134 61.1594 34.7697 61.1594 34.7697C61.1403 34.7456 61.3778 34.5087 61.4002 34.5165C61.4002 34.5165 61.4404 34.538 61.5095 34.577C61.5786 34.616 61.6661 34.6739 61.7833 34.7122C61.9952 34.8234 62.2855 34.877 62.4974 34.9457C62.7179 34.9975 62.9969 35.0896 63.247 35.1217C63.3681 35.1488 63.476 35.1564 63.557 35.1621C63.6386 35.1731 63.6873 35.1775 63.6873 35.1775C63.7182 35.2107 63.7545 35.498 63.7308 35.5222L63.7255 35.5228Z" fill="#F3C070"/>
<path d="M64.2802 38.6891C64.2802 38.6891 64.1308 38.7344 63.9117 38.778C63.7011 38.847 63.4227 38.8026 63.2049 38.7717C63.0035 38.7016 62.752 38.5742 62.5941 38.4244C62.4361 38.2745 62.3308 38.1605 62.3308 38.1605C62.3176 38.1409 62.5255 37.8813 62.5472 37.8838C62.5472 37.8838 62.6868 37.9299 62.8539 37.9831C63.0224 38.0467 63.239 38.0671 63.3851 38.1229C63.5424 38.1402 63.7339 38.2593 63.9169 38.268C64.0932 38.3094 64.2308 38.3398 64.2308 38.3398C64.2512 38.3744 64.2927 38.661 64.2743 38.6845L64.2802 38.6891Z" fill="#F3C070"/>
<path d="M53.0807 46.283C53.0807 46.283 52.7339 46.4594 52.5233 46.4011C52.3186 46.3474 52.1053 46.0984 52.1053 46.0984C52.0988 46.0886 52.2093 45.7776 52.2244 45.7704C52.2244 45.7704 52.5429 45.709 52.6864 45.7439C52.8253 45.7847 53.0319 45.939 53.0425 45.9377C53.0524 45.9736 53.0939 46.2601 53.086 46.2824L53.0807 46.283Z" fill="#F3C070"/>
<path d="M76.7366 47.7117C76.7366 47.7117 76.7017 47.732 76.6471 47.7654C76.5872 47.7995 76.5076 47.8467 76.4056 47.8861C76.2082 47.9747 75.935 48.0144 75.7192 47.9992C75.5066 47.9677 75.2433 47.8736 75.0709 47.7362C74.8899 47.6158 74.7918 47.4743 74.7872 47.4802C74.774 47.4607 74.9819 47.201 74.9984 47.2042C74.9984 47.2042 75.1221 47.2523 75.2853 47.2741C75.4453 47.3123 75.6427 47.3086 75.7895 47.3272C75.9408 47.3399 76.139 47.3839 76.3048 47.3842C76.4726 47.4001 76.6036 47.3783 76.6102 47.3881C76.6404 47.4161 76.7497 47.6888 76.7366 47.7117Z" fill="#F3C070"/>
<path d="M72.8993 46.1269C72.8993 46.1269 72.6828 46.1489 72.3847 46.16C72.0846 46.1979 71.7206 46.1112 71.4356 46.0569C71.1612 45.9589 70.8242 45.7893 70.5918 45.6011C70.3588 45.4076 70.2009 45.2578 70.2009 45.2578C70.1818 45.2337 70.3844 44.9747 70.4173 44.9812C70.4173 44.9812 70.6036 45.0584 70.8517 45.1598C71.0939 45.2565 71.4131 45.3276 71.6428 45.4101C71.8896 45.4585 72.1819 45.6126 72.4438 45.6538C72.7038 45.7218 72.9032 45.7762 72.9032 45.7762C72.9295 45.8154 72.9237 46.1079 72.894 46.1275L72.8993 46.1269Z" fill="#F3C070"/>
<path d="M76.9083 36.358C76.9083 36.358 76.8576 36.3803 76.7813 36.4112C76.699 36.4375 76.5891 36.4991 76.4417 36.5177C76.162 36.5901 75.7652 36.5818 75.469 36.4388C75.1827 36.2893 74.899 35.9484 74.8502 35.6468C74.7705 35.3545 74.8028 35.1435 74.7922 35.1449C74.7935 35.1129 75.1259 35.0762 75.1397 35.101C75.1502 35.0997 75.1996 35.2791 75.3227 35.4493C75.4274 35.643 75.6334 35.7496 75.7729 35.8381C75.9263 35.9089 76.1678 36.0005 76.3995 36.0137C76.5094 36.037 76.6193 36.0178 76.6897 36.0248C76.7648 36.026 76.8128 36.0252 76.8128 36.0252C76.8431 36.0532 76.9267 36.3344 76.9037 36.3639L76.9083 36.358Z" fill="#F3C070"/>
<path d="M40.1176 24.7243C40.1176 24.7243 40.0906 24.6376 40.0609 24.5299C40.0254 24.4177 39.9865 24.2793 39.9832 24.1683C39.9799 24.0573 40.0154 23.9149 40.0483 23.794C40.0674 23.7333 40.0825 23.6836 40.0937 23.6451C40.1023 23.6281 40.1055 23.6118 40.1095 23.6006L40.1082 23.5902L40.2036 23.4137L40.4603 23.5405L40.4609 23.5457L40.4616 23.5509C40.4524 23.5627 40.1259 23.6039 40.1141 23.5948C40.1141 23.5948 40.0983 23.5968 40.1299 23.5928L40.2299 23.5801L40.251 23.5775L40.3096 23.6178L40.3563 23.5642L40.4195 23.5562C40.5037 23.5456 40.451 23.5522 40.4668 23.5502C40.4668 23.5502 40.4668 23.5502 40.4675 23.5555C40.4688 23.5659 40.4813 23.5803 40.4892 23.6005C40.505 23.6409 40.5327 23.6905 40.5564 23.7512C40.609 23.8718 40.6551 24.0252 40.6598 24.1466C40.6591 24.2687 40.621 24.4327 40.5677 24.5614C40.5197 24.6895 40.4565 24.7824 40.4565 24.7824C40.4197 24.787 40.1294 24.7335 40.111 24.7146L40.1176 24.7243Z" fill="#89594F"/>
<path d="M44.1754 24.7109C44.1754 24.7109 43.6495 24.6128 43.3573 24.4587C43.067 24.2778 42.7254 23.8594 42.7254 23.8594C42.7129 23.8451 42.9208 23.5854 42.9419 23.5827C42.9419 23.5827 43.4401 23.7162 43.7007 23.8743C43.9765 24.0251 44.3339 24.3991 44.3339 24.3991C44.3333 24.4364 44.2011 24.7024 44.1754 24.7109Z" fill="#89594F"/>
<path d="M44.2699 21.3089C44.2699 21.3089 44.2403 21.4135 44.1541 21.5358C44.0686 21.6633 43.9067 21.7792 43.7672 21.818C43.6218 21.8523 43.4368 21.8279 43.3006 21.7655C43.1657 21.7135 43.086 21.6334 43.0867 21.6386C43.0748 21.6295 43.1906 21.3178 43.1998 21.306C43.2117 21.3152 43.4821 21.2121 43.5986 21.1602C43.6605 21.1418 43.7579 21.1507 43.8408 21.1297C43.925 21.119 43.9961 21.0888 44.0014 21.0882C44.0356 21.1051 44.2719 21.2822 44.2745 21.303L44.2699 21.3089Z" fill="#89594F"/>
<path d="M38.6897 27.6102C38.6897 27.6102 38.4922 27.3168 38.479 27.085C38.4652 26.848 38.7159 26.5034 38.7172 26.5138C38.7264 26.5021 39.0403 26.6163 39.0469 26.6261C39.0482 26.6365 39.1457 26.9001 39.1615 27.0679C39.1622 27.2429 39.0425 27.5657 39.0425 27.5657C39.0069 27.5808 38.7174 27.6173 38.695 27.6095L38.6897 27.6102Z" fill="#89594F"/>
<path d="M33.5918 26.333C33.5918 26.333 33.7892 26.0323 33.978 25.9182C34.1676 25.8094 34.5433 25.7779 34.5433 25.7779C34.5591 25.7759 34.7441 26.055 34.7402 26.0661C34.7402 26.0661 34.5428 26.3669 34.3539 26.4809C34.1644 26.5897 33.7886 26.6212 33.7886 26.6212C33.759 26.5984 33.5944 26.3539 33.5918 26.333Z" fill="#89594F"/>
<path d="M42.9579 28.5411C42.9579 28.5411 42.7498 28.2066 42.734 27.954C42.734 27.8267 42.7715 27.6575 42.8353 27.5274C42.9037 27.3914 42.9675 27.3038 42.9675 27.3038C42.9767 27.292 43.29 27.401 43.2973 27.416C43.2973 27.416 43.3183 27.4983 43.3414 27.5961C43.3697 27.6934 43.4125 27.8206 43.4145 27.9212C43.4185 28.1223 43.3054 28.4973 43.3054 28.4973C43.2698 28.5124 42.9803 28.5489 42.9579 28.5411Z" fill="#89594F"/>
<path d="M47.383 27.9615C47.383 27.9615 47.2876 27.9258 47.1612 27.8568C47.0256 27.7997 46.9183 27.6275 46.8597 27.5023C46.7774 27.2315 46.905 26.8865 46.905 26.8865C46.909 26.8753 47.2407 26.8335 47.2525 26.8426C47.2525 26.8426 47.452 27.1517 47.5007 27.2834C47.5402 27.3421 47.5106 27.4467 47.5527 27.5262C47.5797 27.613 47.6001 27.69 47.6001 27.69C47.583 27.724 47.4034 27.9536 47.383 27.9615Z" fill="#89594F"/>
<path d="M48.8079 24.1635C48.8079 24.1635 48.4611 24.3823 48.1603 24.3725C48.0149 24.3643 47.8194 24.2988 47.6884 24.1933C47.5535 24.0989 47.4909 23.9848 47.4922 23.9953C47.485 23.9803 47.6929 23.7206 47.7035 23.7193C47.7035 23.7193 47.7857 23.7354 47.8864 23.728C47.9772 23.7272 48.097 23.7014 48.1885 23.7058C48.3721 23.7198 48.7657 23.8293 48.7657 23.8293C48.7808 23.8645 48.8171 24.1517 48.8092 24.1739L48.8079 24.1635Z" fill="#89594F"/>
<path d="M44.3961 18.7889C44.3961 18.7889 44.36 18.8837 44.2902 19.0092C44.2323 19.1438 44.0586 19.2506 43.9323 19.309C43.6591 19.3912 43.3116 19.2653 43.3116 19.2653C43.3004 19.2614 43.2589 18.9324 43.2681 18.9207C43.2681 18.9207 43.5794 18.7169 43.713 18.6735C43.7722 18.6342 43.8775 18.6634 43.9578 18.6214C44.0453 18.5945 44.123 18.5741 44.123 18.5741C44.1572 18.591 44.3882 18.7687 44.3961 18.7889Z" fill="#89594F"/>
<path d="M29.9007 27.6848C29.9007 27.6848 29.9244 27.6182 29.9527 27.5456C29.9915 27.4718 29.9967 27.3862 30.0402 27.3489C30.0658 27.2979 30.1488 27.2768 30.2106 27.216C30.2797 27.1701 30.3337 27.1315 30.3337 27.1315C30.3442 27.1302 30.6568 27.2339 30.6641 27.2489C30.6641 27.2489 30.6739 27.3273 30.6766 27.433C30.6898 27.5375 30.6325 27.6773 30.5799 27.7689C30.5036 27.8422 30.3812 27.9319 30.2759 27.9452C30.1726 27.9741 30.0929 27.9789 30.0929 27.9789C30.0686 27.9554 29.904 27.7109 29.8961 27.6907L29.9007 27.6848Z" fill="#89594F"/>
<path d="M48.9389 21.3458C48.9389 21.3458 48.5994 21.6645 48.2249 21.6215C48.0636 21.6154 47.855 21.4878 47.751 21.3842C47.6457 21.2702 47.5805 21.1776 47.5805 21.1776C47.5733 21.1626 47.7812 20.903 47.797 20.901C47.797 20.901 47.8898 20.9158 47.9997 20.9391C48.0556 20.9585 48.1122 20.9408 48.1609 20.9452C48.2083 20.9393 48.2485 20.9607 48.2952 20.9495C48.3755 20.95 48.4834 21 48.6006 20.9959C48.7144 21.008 48.8125 21.0222 48.8125 21.0222C48.8375 21.0508 48.9415 21.3242 48.9389 21.3458Z" fill="#89594F"/>
<path d="M49.1589 26.9469C49.1589 26.9469 49.1332 26.8705 49.1062 26.7838C49.0845 26.6963 49.0608 26.5932 49.0732 26.5226C49.0923 26.4194 49.1627 26.2992 49.2206 26.207C49.2785 26.1148 49.3358 26.0598 49.3358 26.0598C49.3456 26.0532 49.6589 26.1623 49.6655 26.172C49.6655 26.172 49.6912 26.2484 49.7182 26.3352C49.7399 26.4226 49.7636 26.5257 49.7511 26.5963C49.7321 26.6995 49.6617 26.8198 49.6038 26.912C49.5459 27.0041 49.4886 27.0591 49.4886 27.0591C49.4511 27.0585 49.1766 26.9606 49.1589 26.9469Z" fill="#89594F"/>
<path d="M53.6238 26.341C53.6238 26.341 53.1368 26.4237 52.8472 26.3753C52.557 26.3218 52.1325 26.0941 52.1325 26.0941C52.1206 26.085 52.1811 25.7591 52.2015 25.7512C52.2015 25.7512 52.6885 25.6685 52.9774 25.7116C53.2677 25.7652 53.6928 25.998 53.6928 25.998C53.6975 26.0346 53.6429 26.3227 53.6238 26.341Z" fill="#89594F"/>
<path d="M52.3469 22.8362C52.3469 22.8362 52.0567 23.0373 51.8178 23.0515C51.7053 23.0498 51.5394 23.007 51.4295 22.9413C51.3137 22.8711 51.2419 22.8112 51.2419 22.8112C51.2301 22.802 51.3458 22.4903 51.3557 22.4838C51.3669 22.4877 51.6387 22.395 51.7966 22.3751C51.9677 22.3747 52.2981 22.4922 52.2981 22.4922C52.3133 22.5274 52.3495 22.8146 52.3416 22.8368L52.3469 22.8362Z" fill="#89594F"/>
<path d="M51.5281 29.3164C51.5281 29.3164 51.4405 28.919 51.5859 28.6301C51.6833 28.5117 51.8281 28.3449 51.9847 28.3145C52.1334 28.2639 52.2381 28.2454 52.2381 28.2454C52.2539 28.2434 52.3934 28.5441 52.3901 28.5604C52.3901 28.5604 52.3461 28.6349 52.2928 28.7212C52.2217 28.7939 52.2369 28.914 52.1783 28.9585C52.1086 29.084 51.8737 29.3842 51.8737 29.3842C51.8368 29.3889 51.5466 29.3353 51.5281 29.3164Z" fill="#89594F"/>
<path d="M56.7564 26.6672C56.7564 26.6672 56.426 26.7195 56.2424 26.6631C56.0627 26.5955 55.8389 26.3479 55.8389 26.3479C55.8323 26.3381 55.9428 26.0271 55.9579 26.0199C55.9579 26.0199 56.2883 25.9676 56.4719 26.024C56.6516 26.0915 56.8754 26.3391 56.8754 26.3391C56.8748 26.3763 56.7754 26.6488 56.7564 26.6672Z" fill="#89594F"/>
<path d="M56.2111 24.2107C56.2111 24.2107 56.202 24.4771 56.0249 24.5578C55.9539 24.588 55.8499 24.5693 55.7873 24.54C55.7248 24.5108 55.6827 24.4737 55.6827 24.4737C55.6768 24.4691 55.6405 24.1394 55.6392 24.129C55.6392 24.129 55.7504 23.9505 55.7543 23.9394C55.7557 23.9498 55.9281 24.0024 55.938 23.9958C55.9669 24.0134 56.2032 24.1905 56.2164 24.21L56.2111 24.2107Z" fill="#89594F"/>
<path d="M24.6092 27.5462C24.6092 27.5462 24.5703 27.2381 24.64 27.0701C24.6986 26.9407 24.9512 26.7815 24.9512 26.7815C24.9618 26.7802 25.2744 26.884 25.2816 26.899C25.2816 26.899 25.3205 27.2071 25.2508 27.375C25.1922 27.5044 24.9402 27.6689 24.9402 27.6689C24.902 27.6631 24.6282 27.5703 24.6098 27.5514L24.6092 27.5462Z" fill="#89594F"/>
<path d="M19.2177 26.9533C19.2177 26.9533 19.7382 26.6701 20.0705 26.591C20.4088 26.4741 21.009 26.4408 21.009 26.4408C21.0301 26.4381 21.1499 26.7519 21.1354 26.7644C21.1354 26.7644 20.6333 27.1089 20.2694 27.2344C19.8791 27.3208 19.2605 27.2928 19.2605 27.2928C19.2355 27.2641 19.1986 26.9717 19.217 26.9481L19.2177 26.9533Z" fill="#89594F"/>
<path d="M46.7887 20.9221C46.7887 20.9221 46.8131 21.0305 46.7999 21.1807C46.7973 21.3295 46.7309 21.5236 46.6243 21.6538C46.5118 21.7794 46.3111 21.8843 46.1413 21.8951C45.9781 21.9157 45.8616 21.8827 45.8622 21.8879C45.8458 21.8847 45.8095 21.555 45.8187 21.5432C45.8187 21.5432 45.8931 21.4967 45.9536 21.4254C46.0208 21.3639 46.0569 21.2691 46.1096 21.22C46.2116 21.1382 46.4452 20.87 46.4438 20.8595C46.4807 20.8549 46.7709 20.9085 46.7894 20.9273L46.7887 20.9221Z" fill="#89594F"/>
<path d="M61.3489 27.2866C61.3489 27.2866 61.2633 27.1595 61.1659 26.9808C61.0572 26.7982 60.9855 26.5685 60.9348 26.3786C60.8709 25.9994 60.9622 25.4096 60.957 25.4102C60.9596 25.3887 61.2913 25.3468 61.3045 25.3664C61.3045 25.3664 61.5388 25.9098 61.6041 26.257C61.6469 26.4267 61.639 26.6611 61.6561 26.8393C61.668 27.0182 61.6759 27.1657 61.6759 27.1657C61.6476 27.1958 61.3726 27.3048 61.3495 27.2918L61.3489 27.2866Z" fill="#89594F"/>
<path d="M64.5728 26.1317C64.5728 26.1317 64.0404 26.1511 63.7133 26.0598C63.4027 25.9292 63.0012 25.5873 63.0012 25.5873C62.9887 25.573 63.1386 25.2782 63.1597 25.2755C63.1597 25.2755 63.6724 25.3116 63.9429 25.4207C64.2213 25.5076 64.6419 25.7888 64.6419 25.7888C64.6465 25.8253 64.5919 26.1134 64.5728 26.1317Z" fill="#89594F"/>
<path d="M57.9669 22.3975C57.9669 22.3975 58.1801 22.7738 58.1993 23.0526C58.2006 23.1903 58.1651 23.3752 58.1085 23.5203C58.0375 23.6778 57.975 23.7759 57.975 23.7759C57.9658 23.7876 57.6525 23.6786 57.64 23.6643C57.64 23.6643 57.6182 23.5768 57.5932 23.4633C57.5629 23.3504 57.5175 23.2023 57.5135 23.086C57.5049 22.8484 57.6134 22.4368 57.6134 22.4368C57.6483 22.4165 57.9379 22.3799 57.9609 22.393L57.9669 22.3975Z" fill="#89594F"/>
<path d="M65.5634 30.0387C65.5634 30.0387 65.4824 29.9905 65.3843 29.934C65.2909 29.8715 65.1658 29.813 65.1033 29.7413C64.9736 29.6038 64.8341 29.3456 64.8222 29.3364C64.8209 29.326 64.9255 29.0104 64.9413 29.0084C64.9413 29.0084 65.0439 29.0167 65.1979 29.0503C65.3473 29.0898 65.481 29.1737 65.5876 29.2558C65.6692 29.3516 65.7508 29.4898 65.7936 29.617C65.8364 29.7443 65.8536 29.8376 65.8536 29.8376C65.8305 29.867 65.589 30.0302 65.5627 30.0335L65.5634 30.0387Z" fill="#89594F"/>
</svg>
