<svg width="253" height="242" viewBox="0 0 253 242" fill="none" xmlns="http://www.w3.org/2000/svg">
<path d="M174.834 191.619C177.583 189.185 180.848 187.421 184.346 186.305C215.94 176.23 239.647 154.789 246.177 126.133C257.466 76.5927 213.143 24.2473 147.179 9.21618C81.2146 -5.8149 18.589 22.1604 7.30033 71.7007C-3.98832 121.241 40.3348 173.586 106.299 188.618C107.85 188.971 109.4 189.301 110.948 189.607C125.609 192.509 135.871 206.552 128.962 219.804C124.857 227.676 120.933 234.002 119.292 236.082C118.398 236.798 118.13 237.061 118.623 236.787C118.757 236.713 118.984 236.472 119.292 236.082C120.494 235.119 122.83 233.336 125.968 230.94C137.088 222.451 158.283 206.27 174.834 191.619Z" fill="white" fill-opacity="0.85"/>
<path d="M119.292 236.082C120.933 234.002 124.857 227.676 128.962 219.804C135.871 206.552 125.609 192.509 110.948 189.607C109.4 189.301 107.85 188.971 106.299 188.618C40.3348 173.586 -3.98832 121.241 7.30033 71.7007C18.589 22.1604 81.2146 -5.8149 147.179 9.21618C213.143 24.2473 257.466 76.5927 246.177 126.133C239.647 154.789 215.94 176.23 184.346 186.305C180.848 187.421 177.583 189.185 174.834 191.619C158.283 206.27 137.088 222.451 125.968 230.94C122.83 233.336 120.494 235.119 119.292 236.082ZM119.292 236.082C118.398 236.798 118.13 237.061 118.623 236.787C118.757 236.713 118.984 236.472 119.292 236.082Z" stroke="#FF6363" stroke-width="10"/>
</svg>
