<svg width="272" height="179" viewBox="0 0 272 179" fill="none" xmlns="http://www.w3.org/2000/svg">
<circle cx="96.3667" cy="52.9609" r="38" transform="rotate(16.5672 96.3667 52.9609)" fill="#FFD54A"/>
<rect x="59.9443" y="42.125" width="76" height="109" transform="rotate(16.5672 59.9443 42.125)" fill="#FFD54A"/>
<ellipse cx="88.7659" cy="38.179" rx="8.5" ry="9" transform="rotate(16.5672 88.7659 38.179)" fill="black"/>
<rect x="45.1172" y="91.9648" width="203" height="91" rx="39.5" transform="rotate(16.5672 45.1172 91.9648)" fill="#FFD54A"/>
<path d="M64.3413 38.2159C70.6406 40.0898 74.2154 46.7586 72.3256 53.1108C70.4359 59.4631 63.7973 63.0935 57.498 61.2195C51.1986 59.3455 36.8889 49.4833 38.7786 43.131C40.6683 36.7787 58.0419 36.3419 64.3413 38.2159Z" fill="#FF9A35"/>
<path d="M157.683 184.523C133.245 189.345 110.141 176.563 106.078 155.973C102.015 135.383 118.532 114.783 142.97 109.961C167.408 105.139 227.188 99.9327 233.292 130.871C239.397 161.809 182.121 179.701 157.683 184.523Z" fill="#FFE942"/>
</svg>
