<svg width="323" height="291" viewBox="0 0 323 291" fill="none" xmlns="http://www.w3.org/2000/svg">
<path d="M69.154 280.069C57.6503 292.315 43.9194 278.955 53.9389 257.432C68.8155 265.767 77.5138 269.361 94.0175 274.502C88.0799 294.17 71.0094 295.284 69.154 280.069Z" fill="#9E5343"/>
<path d="M231.936 276.358C243.44 288.604 257.171 275.244 247.151 253.721C232.275 262.056 223.577 265.65 207.073 270.791C213.01 290.459 230.081 291.573 231.936 276.358Z" fill="#9E5343"/>
<path d="M277.582 212.919C297.876 201.641 303.548 204.346 311.723 211.806C318.402 230.361 291.312 232.216 292.054 214.403C295.394 193.622 306.112 192.684 321 192.879" stroke="#FFE5E7" stroke-width="2.22659" stroke-linecap="round"/>
<path d="M241.214 62.9762C250.492 -2.70819 235.647 -19.7785 189.631 28.093L241.214 62.9762Z" fill="#FFE5E7"/>
<path d="M230.725 48.5491C235.114 16.3202 231.515 9.17785 205.298 32.1628L230.725 48.5491Z" fill="white"/>
<path d="M49.7272 61.4919C40.4493 -4.19256 54.9224 -20.1497 100.938 27.7218L49.7272 61.4919Z" fill="#FFE5E7"/>
<path d="M62.4432 48.2767C58.0544 16.0477 61.6533 8.90539 87.8702 31.8904L62.4432 48.2767Z" fill="white"/>
<path d="M286.475 190.263C273.135 252.607 223.859 280.811 150.282 280.811C76.704 280.811 7.08943 257.432 0.358001 174.677C-5.95083 97.1172 72.2508 18.4443 145.829 18.4443C219.406 18.4443 304.659 105.281 286.475 190.263Z" fill="#FFE5E7"/>
<ellipse cx="99.8254" cy="97.1174" rx="13.7306" ry="14.1017" fill="#382313"/>
<circle cx="104.649" cy="96.3751" r="5.19538" fill="white"/>
<ellipse cx="182.209" cy="97.1174" rx="13.7306" ry="14.1017" fill="#382313"/>
<circle cx="187.034" cy="96.3751" r="5.19538" fill="white"/>
<ellipse cx="143.986" cy="129.774" rx="36.3676" ry="28.2035" fill="#FA988F"/>
<ellipse cx="136.193" cy="130.516" rx="3.33988" ry="5.19538" fill="#603C14"/>
<ellipse cx="151.408" cy="130.516" rx="3.71098" ry="5.19538" fill="#603C14"/>
</svg>
