<svg width="521" height="46" viewBox="0 0 521 46" fill="none" xmlns="http://www.w3.org/2000/svg">
<g filter="url(#filter0_i_1484_4636)">
<path d="M84.4809 21.0303C84.4809 19.2985 84.7777 17.641 85.3715 16.0576C85.9776 14.4619 86.8249 13.0394 87.9135 11.79C89.0144 10.5407 90.3132 9.55729 91.81 8.83984C93.3191 8.11003 94.9766 7.74512 96.7826 7.74512C98.5886 7.74512 100.246 8.11003 101.755 8.83984C103.264 9.56966 104.569 10.5654 105.67 11.8271C106.784 13.0765 107.643 14.499 108.249 16.0947C108.868 17.6904 109.177 19.3542 109.177 21.0859C109.177 22.8177 108.868 24.4753 108.249 26.0586C107.643 27.6296 106.784 29.0335 105.67 30.2705C104.557 31.5075 103.246 32.4847 101.737 33.2021C100.228 33.9196 98.5762 34.2783 96.7826 34.2783C94.9519 34.2783 93.282 33.9258 91.7729 33.2207C90.2761 32.5033 88.9835 31.526 87.8949 30.2891C86.8064 29.0521 85.9652 27.6419 85.3715 26.0586C84.7777 24.4629 84.4809 22.7868 84.4809 21.0303ZM96.9496 29.8066C98.5329 29.8066 99.8689 29.3737 100.957 28.5078C102.058 27.6419 102.893 26.5348 103.462 25.1865C104.044 23.8382 104.334 22.4528 104.334 21.0303C104.334 19.5706 104.038 18.1667 103.444 16.8184C102.85 15.4701 101.99 14.363 100.865 13.4971C99.7514 12.6188 98.3969 12.1797 96.8012 12.1797C95.2426 12.1797 93.8943 12.6126 92.7563 13.4785C91.6306 14.3444 90.7647 15.4515 90.1586 16.7998C89.5525 18.1357 89.2494 19.5273 89.2494 20.9746C89.2494 22.4342 89.5587 23.8444 90.1772 25.2051C90.808 26.5534 91.6986 27.6605 92.849 28.5264C93.9994 29.3799 95.3663 29.8066 96.9496 29.8066ZM137.907 34C137.474 34 137.221 33.7773 137.146 33.332C137.109 33.0846 137.072 32.8372 137.035 32.5898C137.01 32.3301 136.986 32.0765 136.961 31.8291C136.961 31.792 136.949 31.7301 136.924 31.6436C136.899 31.5446 136.856 31.4951 136.794 31.4951C136.744 31.4951 136.689 31.526 136.627 31.5879C136.577 31.6374 136.54 31.6807 136.516 31.7178C135.699 32.6579 134.703 33.332 133.528 33.7402C132.366 34.1484 131.172 34.3525 129.947 34.3525C128.945 34.3525 127.974 34.1794 127.034 33.833C126.106 33.4743 125.34 32.93 124.733 32.2002C124.14 31.4704 123.843 30.5426 123.843 29.417C123.843 27.9821 123.849 26.5472 123.861 25.1123C123.886 23.665 123.898 22.2301 123.898 20.8076V17.9316C123.898 17.4245 124.152 17.1709 124.659 17.1709H127.517C128.024 17.1709 128.277 17.4245 128.277 17.9316V20.8447C128.277 22.0075 128.271 23.1764 128.259 24.3516C128.246 25.5267 128.246 26.7018 128.259 27.877C128.284 28.8542 128.599 29.5469 129.205 29.9551C129.824 30.3509 130.578 30.5488 131.469 30.5488C132.582 30.5488 133.528 30.252 134.308 29.6582C135.087 29.0645 135.681 28.3037 136.089 27.376C136.509 26.4359 136.72 25.4587 136.72 24.4443V17.9316C136.72 17.4245 136.973 17.1709 137.48 17.1709H140.319C140.827 17.1709 141.08 17.4245 141.08 17.9316C141.08 18.4635 141.074 18.9954 141.062 19.5273C141.062 20.0592 141.062 20.5911 141.062 21.123C141.062 22.4837 141.068 23.8506 141.08 25.2236C141.105 26.5967 141.123 27.9635 141.136 29.3242C141.148 29.9674 141.16 30.6169 141.173 31.2725C141.198 31.9157 141.21 32.5651 141.21 33.2207C141.21 33.7402 140.956 34 140.449 34H137.907ZM159.438 17.1709C159.908 17.1709 160.162 17.3997 160.199 17.8574L160.384 19.9727C160.384 19.985 160.397 20.0778 160.421 20.251C160.446 20.4118 160.49 20.4922 160.551 20.4922C160.613 20.4922 160.675 20.4242 160.737 20.2881C160.811 20.152 160.854 20.0716 160.867 20.0469C161.374 19.0944 161.992 18.346 162.722 17.8018C163.452 17.2575 164.374 16.9854 165.487 16.9854C165.747 16.9854 166.074 17.0101 166.47 17.0596C166.879 17.0967 167.083 17.3008 167.083 17.6719C167.083 17.8574 167.046 18.1481 166.971 18.5439C166.897 18.9398 166.81 19.3418 166.712 19.75C166.625 20.1458 166.557 20.4489 166.507 20.6592C166.458 20.8695 166.378 21.0365 166.266 21.1602C166.167 21.2715 165.994 21.3271 165.747 21.3271C165.623 21.3271 165.499 21.321 165.376 21.3086C165.264 21.2839 165.141 21.2715 165.005 21.2715C164.027 21.2715 163.205 21.5807 162.537 22.1992C161.869 22.8053 161.368 23.5537 161.034 24.4443C160.7 25.335 160.533 26.2132 160.533 27.0791V33.2393C160.533 33.7464 160.279 34 159.772 34H156.896C156.389 34 156.135 33.7402 156.135 33.2207C156.135 31.3034 156.142 29.3923 156.154 27.4873C156.179 25.57 156.191 23.6589 156.191 21.7539V17.9316C156.191 17.4245 156.445 17.1709 156.952 17.1709H159.438ZM200.459 8.76562C200.459 8.24609 200.712 7.98633 201.22 7.98633H216.954C217.461 7.98633 217.715 8.24609 217.715 8.76562C217.715 9.24805 217.715 9.74284 217.715 10.25C217.727 10.7448 217.715 11.2334 217.678 11.7158C217.64 12.2106 217.387 12.458 216.917 12.458H211.536C211.388 12.458 211.313 12.5322 211.313 12.6807C211.313 13.9919 211.307 15.3031 211.295 16.6143C211.295 17.9131 211.295 19.2181 211.295 20.5293C211.295 22.6445 211.301 24.766 211.313 26.8936C211.326 29.0088 211.332 31.124 211.332 33.2393C211.332 33.7464 211.078 34 210.571 34H207.361C206.854 34 206.6 33.7464 206.6 33.2393C206.6 31.0622 206.607 28.8851 206.619 26.708C206.644 24.5309 206.656 22.36 206.656 20.1953L206.638 12.6807C206.638 12.5322 206.557 12.458 206.396 12.458H201.257C200.787 12.458 200.533 12.2106 200.496 11.7158C200.459 11.2334 200.44 10.7448 200.44 10.25C200.453 9.74284 200.459 9.24805 200.459 8.76562ZM231.323 25.6689C231.323 23.9495 231.688 22.4157 232.417 21.0674C233.16 19.7191 234.192 18.6553 235.516 17.876C236.84 17.0843 238.367 16.6885 240.099 16.6885C241.806 16.6885 243.297 17.0781 244.571 17.8574C245.845 18.6243 246.834 19.6758 247.539 21.0117C248.257 22.3477 248.616 23.8506 248.616 25.5205C248.616 27.2399 248.263 28.7676 247.558 30.1035C246.853 31.4271 245.857 32.4661 244.571 33.2207C243.297 33.9753 241.781 34.3525 240.025 34.3525C238.281 34.3525 236.753 33.9938 235.442 33.2764C234.143 32.5465 233.129 31.5322 232.399 30.2334C231.681 28.9346 231.323 27.4131 231.323 25.6689ZM240.006 20.4365C239.066 20.4365 238.281 20.6901 237.65 21.1973C237.019 21.6921 236.543 22.3291 236.221 23.1084C235.899 23.8877 235.739 24.7041 235.739 25.5576C235.739 26.3617 235.906 27.1348 236.24 27.877C236.586 28.6191 237.075 29.2253 237.705 29.6953C238.336 30.1654 239.085 30.4004 239.951 30.4004C240.891 30.4004 241.67 30.1654 242.288 29.6953C242.919 29.2129 243.389 28.5944 243.699 27.8398C244.02 27.0853 244.181 26.2812 244.181 25.4277C244.181 24.599 244.02 23.8073 243.699 23.0527C243.389 22.2858 242.926 21.6611 242.307 21.1787C241.689 20.6839 240.922 20.4365 240.006 20.4365ZM272.763 34.3525C271.823 34.3525 270.92 34.2041 270.054 33.9072C269.2 33.6104 268.409 33.1527 267.679 32.5342C267.642 32.5094 267.598 32.4785 267.549 32.4414C267.512 32.3919 267.462 32.3672 267.4 32.3672C267.339 32.3672 267.301 32.4167 267.289 32.5156C267.277 32.6022 267.271 32.6641 267.271 32.7012C267.246 33.5052 267.233 34.3154 267.233 35.1318C267.233 35.9606 267.221 36.777 267.196 37.5811C267.196 37.8779 267.196 38.181 267.196 38.4902C267.209 38.8118 267.202 39.1211 267.178 39.418C267.153 39.6654 267.085 39.8509 266.974 39.9746C266.875 40.0983 266.689 40.1602 266.417 40.1602H263.43C262.935 40.1602 262.688 39.9004 262.688 39.3809C262.688 38.4284 262.706 37.4697 262.743 36.5049C262.793 35.54 262.83 34.5876 262.854 33.6475C262.904 31.6312 262.941 29.6211 262.966 27.6172C262.991 25.6009 263.003 23.5846 263.003 21.5684C263.003 20.9622 262.997 20.3561 262.984 19.75C262.984 19.1439 262.984 18.5378 262.984 17.9316C262.984 17.4245 263.238 17.1709 263.745 17.1709H266.139C266.522 17.1709 266.757 17.3255 266.844 17.6348C266.943 17.944 266.998 18.2533 267.011 18.5625C267.023 18.8594 267.097 19.0078 267.233 19.0078C267.283 19.0078 267.351 18.9769 267.438 18.915C268.34 18.2223 269.281 17.6842 270.258 17.3008C271.235 16.9173 272.299 16.7256 273.449 16.7256C275.193 16.7256 276.659 17.1338 277.847 17.9502C279.034 18.7666 279.931 19.8551 280.537 21.2158C281.143 22.5765 281.446 24.0671 281.446 25.6875C281.446 27.4564 281.088 28.9902 280.37 30.2891C279.665 31.5879 278.663 32.5898 277.364 33.2949C276.065 34 274.532 34.3525 272.763 34.3525ZM271.891 30.5488C272.831 30.5488 273.684 30.3324 274.451 29.8994C275.23 29.4665 275.849 28.8789 276.307 28.1367C276.777 27.3822 277.012 26.5348 277.012 25.5947C277.012 24.1227 276.535 22.9167 275.583 21.9766C274.631 21.0241 273.418 20.5479 271.946 20.5479C270.895 20.5479 269.961 20.8138 269.145 21.3457C268.328 21.8776 267.734 22.6383 267.363 23.6279C267.363 24.2464 267.357 24.8649 267.345 25.4834C267.345 26.1019 267.345 26.7204 267.345 27.3389C267.345 27.4007 267.382 27.5306 267.456 27.7285C267.543 27.9264 267.598 28.0563 267.623 28.1182C268.019 28.9222 268.613 29.5283 269.404 29.9365C270.196 30.3447 271.025 30.5488 271.891 30.5488ZM317.179 8.76562C317.179 8.24609 317.432 7.98633 317.94 7.98633H326.271C327.644 7.98633 328.992 8.13477 330.316 8.43164C331.652 8.72852 332.864 9.21094 333.952 9.87891C335.041 10.5345 335.907 11.4128 336.55 12.5137C337.193 13.6022 337.515 14.9443 337.515 16.54C337.515 16.9854 337.478 17.443 337.404 17.9131C337.329 18.3708 337.224 18.8161 337.088 19.249C336.618 20.7334 335.851 21.9271 334.787 22.8301C333.724 23.7207 332.493 24.3639 331.095 24.7598C329.71 25.1556 328.299 25.3535 326.864 25.3535H322.17C322.022 25.3535 321.947 25.4277 321.947 25.5762L321.892 33.2578C321.892 33.7526 321.638 34 321.131 34H317.921C317.414 34 317.16 33.7402 317.16 33.2207C317.16 32.5527 317.173 31.8848 317.197 31.2168C317.222 30.5365 317.241 29.8623 317.253 29.1943C317.29 26.374 317.309 23.5413 317.309 20.6963C317.309 18.0368 317.29 15.3835 317.253 12.7363C317.241 12.0807 317.222 11.4189 317.197 10.751C317.185 10.083 317.179 9.42122 317.179 8.76562ZM321.966 20.8633H326.92C327.638 20.8633 328.374 20.7705 329.128 20.585C329.895 20.387 330.594 20.0778 331.225 19.6572C331.856 19.2243 332.313 18.6553 332.598 17.9502C332.672 17.7646 332.74 17.5544 332.802 17.3193C332.864 17.0843 332.895 16.8678 332.895 16.6699C332.895 16.4967 332.864 16.2926 332.802 16.0576C332.74 15.8102 332.678 15.5999 332.616 15.4268C332.332 14.7217 331.887 14.1527 331.28 13.7197C330.687 13.2868 330.019 12.9714 329.277 12.7734C328.547 12.5632 327.829 12.458 327.124 12.458H321.929C321.941 13.8558 321.947 15.2598 321.947 16.6699C321.96 18.0677 321.966 19.4655 321.966 20.8633ZM351.661 10.8438C351.661 10.1634 351.915 9.58203 352.422 9.09961C352.929 8.60482 353.523 8.35742 354.203 8.35742C354.896 8.35742 355.502 8.611 356.021 9.11816C356.553 9.61296 356.819 10.2129 356.819 10.918C356.819 11.5983 356.566 12.1921 356.058 12.6992C355.564 13.194 354.97 13.4414 354.277 13.4414C353.572 13.4414 352.96 13.1878 352.44 12.6807C351.921 12.1611 351.661 11.5488 351.661 10.8438ZM351.939 22.0322V17.9316C351.939 17.4245 352.193 17.1709 352.7 17.1709H355.557C356.065 17.1709 356.318 17.4245 356.318 17.9316C356.318 20.4798 356.324 23.0342 356.337 25.5947C356.349 28.1429 356.355 30.6911 356.355 33.2393C356.355 33.7464 356.102 34 355.595 34H352.663C352.156 34 351.902 33.7464 351.902 33.2393C351.902 31.3714 351.908 29.5036 351.921 27.6357C351.933 25.7679 351.939 23.9001 351.939 22.0322ZM382.488 29.7324C382.661 29.7324 382.791 29.7881 382.877 29.8994C382.976 30.0107 383.057 30.1344 383.119 30.2705C383.168 30.3695 383.267 30.6107 383.415 30.9941C383.564 31.3776 383.7 31.7549 383.824 32.126C383.96 32.4971 384.028 32.7197 384.028 32.7939C384.028 33.0661 383.811 33.3011 383.378 33.499C382.958 33.6969 382.451 33.8577 381.857 33.9814C381.263 34.1051 380.7 34.1917 380.168 34.2412C379.636 34.3031 379.259 34.334 379.037 34.334C376.427 34.334 374.392 33.5609 372.932 32.0146C371.472 30.4684 370.743 28.4089 370.743 25.8359C370.743 24.1165 371.077 22.5703 371.745 21.1973C372.425 19.8242 373.402 18.7357 374.676 17.9316C375.95 17.1276 377.478 16.7256 379.259 16.7256C379.952 16.7256 380.7 16.806 381.504 16.9668C382.308 17.1152 383.013 17.3564 383.62 17.6904C383.743 17.7523 383.842 17.8265 383.916 17.9131C384.003 17.9873 384.046 18.0986 384.046 18.2471C384.046 18.3708 384.015 18.4945 383.954 18.6182L383.1 20.7705C382.964 21.1169 382.747 21.29 382.451 21.29C382.327 21.29 382.191 21.2591 382.042 21.1973C381.634 21.0612 381.226 20.9499 380.818 20.8633C380.41 20.7643 379.989 20.7148 379.556 20.7148C378.059 20.7148 376.946 21.1849 376.216 22.125C375.499 23.0651 375.14 24.234 375.14 25.6318C375.14 26.9801 375.48 28.1182 376.161 29.0459C376.853 29.9613 377.923 30.4189 379.371 30.4189C379.841 30.4189 380.292 30.3633 380.725 30.252C381.158 30.1406 381.591 30.0046 382.024 29.8438C382.098 29.819 382.172 29.7943 382.246 29.7695C382.321 29.7448 382.401 29.7324 382.488 29.7324ZM398.953 34C398.446 34 398.192 33.7402 398.192 33.2207C398.192 32.5404 398.199 31.8662 398.211 31.1982C398.236 30.5179 398.254 29.8376 398.267 29.1572C398.291 27.7347 398.31 26.3122 398.322 24.8896C398.335 23.4671 398.341 22.0446 398.341 20.6221C398.341 19.1995 398.335 17.777 398.322 16.3545C398.31 14.932 398.291 13.5094 398.267 12.0869C398.254 11.4066 398.236 10.7324 398.211 10.0645C398.199 9.38411 398.192 8.70378 398.192 8.02344C398.192 7.50391 398.446 7.24414 398.953 7.24414H401.866C402.361 7.24414 402.615 7.49772 402.627 8.00488C402.664 8.72233 402.676 9.44596 402.664 10.1758C402.664 10.8932 402.664 11.6107 402.664 12.3281C402.676 13.8372 402.683 15.3525 402.683 16.874C402.695 18.3831 402.701 19.8923 402.701 21.4014V24.2959C402.701 24.4443 402.757 24.5186 402.868 24.5186C402.918 24.5186 402.955 24.5124 402.979 24.5C404.216 24.1536 405.41 23.7207 406.561 23.2012C407.723 22.6693 408.744 21.9704 409.622 21.1045C410.5 20.2386 411.125 19.1439 411.496 17.8203C411.558 17.61 411.645 17.4492 411.756 17.3379C411.867 17.2142 412.04 17.1523 412.275 17.1523H415.615C415.826 17.1523 416.005 17.1956 416.153 17.2822C416.302 17.3688 416.376 17.5296 416.376 17.7646C416.376 17.8141 416.364 17.9007 416.339 18.0244C415.931 19.6943 415.207 21.0921 414.168 22.2178C413.141 23.3434 411.929 24.3577 410.531 25.2607C410.445 25.3226 410.401 25.3844 410.401 25.4463C410.401 25.4834 410.568 25.7308 410.902 26.1885C411.249 26.6462 411.675 27.209 412.183 27.877C412.69 28.5449 413.209 29.2253 413.741 29.918C414.273 30.6107 414.743 31.223 415.151 31.7549C415.56 32.2744 415.819 32.6146 415.931 32.7754C416.005 32.8743 416.079 32.9919 416.153 33.1279C416.24 33.2516 416.283 33.3815 416.283 33.5176C416.283 33.7526 416.16 33.8949 415.912 33.9443C415.677 33.9814 415.479 34 415.318 34H412.127C411.917 34 411.725 33.9072 411.552 33.7217C411.317 33.4743 411.088 33.2145 410.865 32.9424C410.643 32.6579 410.42 32.3796 410.197 32.1074C409.554 31.3405 408.911 30.5674 408.268 29.7881C407.637 28.9964 406.993 28.2233 406.338 27.4688C406.301 27.4069 406.245 27.376 406.171 27.376C406.134 27.376 406.103 27.3822 406.078 27.3945C405.546 27.5924 405.008 27.7718 404.464 27.9326C403.92 28.0934 403.382 28.2728 402.85 28.4707C402.738 28.5078 402.683 28.582 402.683 28.6934L402.627 33.2393C402.627 33.7464 402.373 34 401.866 34H398.953ZM433.899 34.4824C433.194 34.4824 432.458 34.3525 431.691 34.0928C430.924 33.833 430.287 33.4434 429.78 32.9238C429.631 32.7754 429.557 32.6146 429.557 32.4414C429.557 32.3672 429.594 32.1816 429.669 31.8848C429.755 31.5755 429.848 31.2601 429.947 30.9385C430.046 30.6169 430.108 30.4066 430.132 30.3076C430.182 30.1592 430.25 30.0169 430.337 29.8809C430.423 29.7324 430.559 29.6582 430.745 29.6582C430.98 29.6582 431.345 29.8128 431.839 30.1221C432.334 30.4313 432.903 30.5859 433.546 30.5859C434.672 30.5859 435.235 30.0417 435.235 28.9531C435.235 28.248 435.006 27.7594 434.548 27.4873C434.103 27.2152 433.621 26.943 433.101 26.6709C432.062 26.1143 431.27 25.4339 430.726 24.6299C430.182 23.8258 429.91 22.8239 429.91 21.624C429.91 20.1025 430.355 18.915 431.246 18.0615C432.149 17.208 433.349 16.7812 434.845 16.7812C435.031 16.7812 435.315 16.806 435.699 16.8555C436.095 16.9049 436.503 16.9854 436.923 17.0967C437.344 17.1956 437.703 17.3379 438 17.5234C438.296 17.6966 438.445 17.9069 438.445 18.1543C438.445 18.3893 438.395 18.6491 438.296 18.9336C438.198 19.2057 438.117 19.4593 438.055 19.6943C438.006 19.8551 437.938 20.0098 437.851 20.1582C437.765 20.3066 437.616 20.3809 437.406 20.3809C437.146 20.3809 436.868 20.3128 436.571 20.1768C436.274 20.0407 435.952 19.9727 435.606 19.9727C435.136 19.9727 434.722 20.1149 434.363 20.3994C434.004 20.6715 433.825 21.0612 433.825 21.5684C433.825 22.1497 433.998 22.6012 434.344 22.9229C434.703 23.2445 435.142 23.529 435.662 23.7764C436.181 24.0238 436.701 24.3268 437.22 24.6855C437.74 25.0443 438.173 25.5452 438.519 26.1885C438.878 26.8193 439.057 27.6914 439.057 28.8047C439.057 30.388 438.612 31.7301 437.721 32.8311C436.843 33.932 435.569 34.4824 433.899 34.4824Z" fill="#FE6F67"/>
</g>
<defs>
<filter id="filter0_i_1484_4636" x="0" y="0" width="521" height="50" filterUnits="userSpaceOnUse" color-interpolation-filters="sRGB">
<feFlood flood-opacity="0" result="BackgroundImageFix"/>
<feBlend mode="normal" in="SourceGraphic" in2="BackgroundImageFix" result="shape"/>
<feColorMatrix in="SourceAlpha" type="matrix" values="0 0 0 0 0 0 0 0 0 0 0 0 0 0 0 0 0 0 127 0" result="hardAlpha"/>
<feOffset dy="4"/>
<feGaussianBlur stdDeviation="2"/>
<feComposite in2="hardAlpha" operator="arithmetic" k2="-1" k3="1"/>
<feColorMatrix type="matrix" values="0 0 0 0 0.652887 0 0 0 0 0 0 0 0 0 0 0 0 0 0.25 0"/>
<feBlend mode="normal" in2="shape" result="effect1_innerShadow_1484_4636"/>
</filter>
</defs>
</svg>
