<svg width="253" height="242" viewBox="0 0 253 242" fill="none" xmlns="http://www.w3.org/2000/svg">
<path d="M178.985 187.885C213.241 178.601 239.283 156.389 246.178 126.133C257.466 76.5927 213.143 24.2473 147.179 9.21618C81.2151 -5.8149 18.5895 22.1604 7.30082 71.7007C-3.98783 121.241 40.3353 173.586 106.299 188.618C117.767 191.231 129.134 192.544 140.147 192.67C135.791 209.411 122.68 231.787 119.292 236.082C118.399 236.798 118.131 237.061 118.624 236.787C118.757 236.713 118.985 236.472 119.292 236.082C120.495 235.119 122.83 233.336 125.968 230.94C138.043 221.722 161.997 203.435 178.985 187.885Z" fill="white"/>
<path d="M119.292 236.082C122.68 231.787 135.791 209.411 140.147 192.67C129.134 192.544 117.767 191.231 106.299 188.618C40.3353 173.586 -3.98783 121.241 7.30082 71.7007C18.5895 22.1604 81.2151 -5.8149 147.179 9.21618C213.143 24.2473 257.466 76.5927 246.178 126.133C239.283 156.389 213.241 178.601 178.985 187.885C161.997 203.435 138.043 221.722 125.968 230.94C122.83 233.336 120.495 235.119 119.292 236.082ZM119.292 236.082C118.399 236.798 118.131 237.061 118.624 236.787C118.757 236.713 118.985 236.472 119.292 236.082Z" stroke="#364D8F" stroke-width="10"/>
</svg>
