<svg width="20" height="16" viewBox="0 0 20 16" fill="none" xmlns="http://www.w3.org/2000/svg">
<path d="M10.075 0.5C3.75 0.5 0 8 0 8C0 8 3.75 15.5 10.075 15.5C16.25 15.5 20 8 20 8C20 8 16.25 0.5 10.075 0.5ZM10 3C12.775 3 15 5.25 15 8C15 10.775 12.775 13 10 13C7.25 13 5 10.775 5 8C5 5.25 7.25 3 10 3ZM10 5.5C8.625 5.5 7.5 6.625 7.5 8C7.5 9.375 8.625 10.5 10 10.5C11.375 10.5 12.5 9.375 12.5 8C12.5 7.75 12.4 7.525 12.35 7.3C12.15 7.7 11.75 8 11.25 8C10.55 8 10 7.45 10 6.75C10 6.25 10.3 5.85 10.7 5.65C10.475 5.575 10.25 5.5 10 5.5Z" fill="white"/>
</svg>
